<?xml version="1.0" standalone="no"?>
<!DOCTYPE svg PUBLIC "-//W3C//DTD SVG 20010904//EN"
 "http://www.w3.org/TR/2001/REC-SVG-20010904/DTD/svg10.dtd">
<svg version="1.0" xmlns="http://www.w3.org/2000/svg"
 width="256.000000pt" height="256.000000pt" viewBox="0 0 256.000000 256.000000"
 preserveAspectRatio="xMidYMid meet">
<metadata>
Created by potrace 1.11, written by Peter Selinger 2001-2013
</metadata>
<g transform="translate(0.000000,256.000000) scale(0.100000,-0.100000)"
fill="#000000" stroke="none">
<path d="M628 2117 l-188 -191 0 -608 0 -608 105 0 105 0 0 70 0 70 -35 0 -35
0 0 505 0 505 155 0 155 0 0 155 0 155 320 0 320 0 0 -25 c0 -24 2 -25 70 -25
l70 0 0 95 0 95 -427 -1 -428 -1 -187 -191z"/>
<path d="M992 1915 l3 -155 -155 -2 -155 -3 0 -590 0 -590 45 3 c25 2 49 8 54
13 6 5 18 9 28 9 17 0 18 25 18 505 l0 505 155 0 155 0 0 155 0 155 320 0 320
0 0 -440 c0 -299 3 -440 10 -440 16 0 84 66 114 109 l26 37 -2 440 -3 439
-468 3 -468 2 3 -155z"/>
<path d="M1980 1840 c0 -44 0 -83 0 -87 0 -5 28 -6 61 -5 75 5 113 -10 133
-53 34 -72 15 -180 -56 -312 -107 -199 -386 -499 -595 -642 -35 -24 -65 -47
-68 -52 -3 -5 -38 -28 -78 -50 -40 -23 -74 -45 -77 -49 -13 -19 -295 -153
-370 -176 -47 -14 -98 -32 -115 -39 -97 -42 -322 -45 -394 -4 -22 12 -44 20
-47 16 -13 -12 29 -47 95 -80 62 -31 72 -32 201 -35 127 -3 143 -1 272 32 133
34 165 47 348 135 142 68 363 209 441 281 18 16 37 30 41 30 5 0 8 -31 8 -70
l0 -70 -66 0 c-57 0 -70 -4 -102 -29 -20 -17 -64 -45 -97 -63 -33 -19 -61 -42
-63 -52 -3 -14 0 -17 13 -12 9 3 118 6 241 6 l225 0 -1 212 -2 212 104 114
c125 137 220 274 269 387 88 205 77 401 -28 481 -54 41 -98 53 -200 54 l-93 0
0 -80z"/>
<path d="M1027 1423 c-4 -3 -7 -30 -7 -60 l0 -53 275 0 275 0 0 60 0 60 -268
0 c-148 0 -272 -3 -275 -7z"/>
<path d="M1020 1165 l0 -55 275 0 275 0 0 55 0 55 -275 0 -275 0 0 -55z"/>
<path d="M316 1048 c-76 -117 -116 -242 -116 -361 0 -88 13 -127 60 -181 65
-73 168 -103 328 -93 93 6 282 45 319 67 10 5 67 30 127 55 61 25 117 52 125
59 9 8 48 30 87 49 40 20 78 43 86 51 8 8 46 33 84 56 66 41 84 56 84 73 0 14
-23 6 -53 -19 -16 -14 -62 -41 -101 -61 -39 -20 -74 -40 -77 -44 -9 -15 -266
-119 -354 -144 -219 -62 -432 -56 -508 13 -55 50 -73 157 -42 258 19 64 21
284 3 283 -7 0 -31 -28 -52 -61z"/>
<path d="M1024 1016 c-3 -7 -4 -35 -2 -62 l3 -49 273 -3 273 -2 -3 62 -3 63
-268 3 c-221 2 -268 0 -273 -12z"/>
</g>
</svg>
