<?xml version="1.0" standalone="no"?>
<!DOCTYPE svg PUBLIC "-//W3C//DTD SVG 1.1//EN" "http://www.w3.org/Graphics/SVG/1.1/DTD/svg11.dtd" >
<svg>
<metadata>
Created by FontForge 20090914 at Wed Aug 30 20:59:11 2017
 By www-data
From Doug Miles' Black Chancery bitmap font. Outlines by Earl Allen &#38; Doug Miles. Public domain.
</metadata>
<defs>
<font id="BlackChancery" horiz-adv-x="450" >
  <font-face 
    font-family="BlackChancery"
    font-weight="5"
    font-stretch="normal"
    units-per-em="1000"
    panose-1="0 0 0 0 0 0 0 0 0 0"
    ascent="800"
    descent="-200"
    x-height="428"
    cap-height="651"
    bbox="-194 -351 1462 833"
    underline-thickness="25"
    underline-position="-266"
    unicode-range="U+0020-U+F002"
  />
<missing-glyph horiz-adv-x="833" 
d="M52 0v833h729v-833h-729zM729 52v729h-625v-729h625z" />
    <glyph glyph-name=".notdef" horiz-adv-x="833" 
d="M52 0v833h729v-833h-729zM729 52v729h-625v-729h625z" />
    <glyph glyph-name="space" unicode=" " horiz-adv-x="250" 
 />
    <glyph glyph-name="exclam" unicode="!" horiz-adv-x="365" 
d="M330 666c-21.333 -32.667 -41.666 -93.499 -60.999 -182.499s-35.333 -156.167 -48 -201.5s-40.334 -103 -83.001 -173c-12.667 34 -22.167 67.167 -28.5 99.5s-9.5 63.166 -9.5 92.499c0 68 14 127.667 42 179s59.5 92 94.5 122s66.167 51.333 93.5 64zM154 8.00098
c4 0 14.999 -8.33203 32.999 -24.999s36.333 -30.334 55 -41.001c-4 -6 -19 -23 -45 -51s-43 -42 -51 -42c-4.66699 0 -14.667 7.83301 -30 23.5s-34.666 30.167 -57.999 43.5c6.66699 9.33301 22.667 27 48 53s41.333 39 48 39z" />
    <glyph glyph-name="quotedbl" unicode="&#x22;" horiz-adv-x="323" 
d="M290 639c-3.33301 -16 -5 -35.334 -5 -58.001v-26.5c0 -9 0.333008 -17.833 1 -26.5c0 -17.333 -1.16699 -34.166 -3.5 -50.499s-6.5 -33.833 -12.5 -52.5c-6 24 -22 54.5 -48 91.5s-39 77.833 -39 122.5c8 4.66699 17 8 27 10s18.667 3 26 3c14 0 25 -1.33301 33 -4
s15 -5.66699 21 -9zM122 638.999c-3.33301 -16 -5 -35.334 -5 -58.001v-26.5c0 -9 0.333008 -17.833 1 -26.5c0 -17.333 -1.16699 -34.166 -3.5 -50.499s-6.5 -33.833 -12.5 -52.5c-6 24 -22 54.5 -48 91.5s-39 77.833 -39 122.5c8 4.66699 17 8 27 10s18.667 3 26 3
c14 0 25 -1.33301 33 -4s15 -5.66699 21 -9z" />
    <glyph glyph-name="numbersign" unicode="#" horiz-adv-x="445" 
d="M142 296l-30 -59h-32l30 59h-60l24 32h52l43 86h-65l24 32h57l33 66h32l-33 -66h70l33 66h32l-33 -66h57l-24 -32h-49l-43 -86h62l-24 -32h-54l-30 -59h-32l30 59h-70zM271 414h-70l-43 -86h70z" />
    <glyph glyph-name="dollar" unicode="$" horiz-adv-x="392" 
d="M208 -1v-81.998l-40 1v80c-24.667 0 -51.167 5.16699 -79.5 15.5s-53.166 32.833 -74.499 67.5v100c27.333 -46.667 55.166 -83 83.499 -109s61.166 -39 98.499 -39c23.333 0 42.5 10.333 57.5 31s22.5 42.667 22.5 66c0 38 -21.667 71.667 -65 101l-122 71
c-44 31.333 -66 67.666 -66 108.999c0 55.333 15.833 94.333 47.5 117s64.167 34 97.5 34v77l40 2v-79c15.333 0 40.166 -5.5 74.499 -16.5s51.5 -42.5 51.5 -94.5c-14 23.333 -31.167 40.333 -51.5 51s-47.166 16 -80.499 16c-22.667 0 -43.167 -5.33301 -61.5 -16
s-27.5 -30.667 -27.5 -60c0 -28.667 29.833 -59.5 89.5 -92.5s101.834 -59.333 126.501 -79s37 -56.167 37 -109.5c0 -48.667 -14.833 -87.834 -44.5 -117.501s-67.5 -44.5 -113.5 -44.5z" />
    <glyph glyph-name="percent" unicode="%" horiz-adv-x="490" 
d="M133 560c32.667 0 56.166 -11.5 70.499 -34.5s21.5 -51.5 21.5 -85.5c0 -40.667 -9.66699 -69.5 -29 -86.5s-43 -25.5 -71 -25.5c-33.333 0 -57.166 12.333 -71.499 37s-21.5 53 -21.5 85c0 33.333 9.66699 60 29 80s43.333 30 72 30zM375.999 558
c20.667 0 37.5 -2.50098 50.5 -7.50098s19.5 -12.5 19.5 -22.5c0 -5.33301 -2.33301 -11.333 -7 -18l-324 -464c-4 -7.33301 -6 -13.333 -6 -18c0 -8 4.33301 -14.167 13 -18.5s24.667 -11.166 48 -20.499h-67c-20 0 -37.167 2 -51.5 6s-21.5 10.667 -21.5 20
c0 4 2 8.66699 6 14l334 480c4 5.33301 6 10 6 14c0 8 -5.5 14.333 -16.5 19l-39.5 16h56zM370.999 218.999c29.333 0 52 -11.832 68 -35.499s24 -52.167 24 -85.5c0 -38.667 -10.333 -66.834 -31 -84.501s-44 -26.5 -70 -26.5c-32.667 0 -56.167 12.333 -70.5 37
s-21.5 53 -21.5 85c0 38.667 10.5 66.667 31.5 84s44.167 26 69.5 26zM75.999 450c0 -22 4.16895 -43.499 12.502 -64.499s20.166 -31.5 35.499 -31.5c17.333 0 31.333 6.83301 42 20.5s16 35.167 16 64.5c0 24.667 -3.83301 46.667 -11.5 66s-19.834 29 -36.501 29
c-17.333 0 -31.333 -6.83301 -42 -20.5s-16 -34.834 -16 -63.501zM315.001 110.001c0 -24.667 3.66699 -47 11 -67s19.333 -30 36 -30s30.334 6.83301 41.001 20.5s16 34.834 16 63.501c0 26.667 -3.83301 49.5 -11.5 68.5s-19.5 28.5 -35.5 28.5
c-16.667 0 -30.334 -6.83301 -41.001 -20.5s-16 -34.834 -16 -63.501z" />
    <glyph glyph-name="ampersand" unicode="&#x26;" horiz-adv-x="650" 
d="M254 662c29.333 0 54.667 -11.6611 76 -34.9941s32 -50.666 32 -81.999c0 -29.333 -8.83301 -56.333 -26.5 -81s-49.834 -59.334 -96.501 -104.001c28 -34.667 75.333 -86.334 142 -155.001s114 -114.667 142 -138c13.333 20 23.833 40 31.5 60s11.5 41 11.5 63
c0 36 -12.833 71.167 -38.5 105.5s-69.5 67.166 -131.5 98.499c74 0 127.167 -18.333 159.5 -55s48.5 -83 48.5 -139c0 -28.667 -4.16699 -57.5 -12.5 -86.5s-18.833 -53.167 -31.5 -72.5c44.667 -41.333 79.167 -71.5 103.5 -90.5s58.5 -36.167 102.5 -51.5h-50
c-56.667 0 -100 8.33301 -130 25l-70 44c-20.667 -24.667 -50.667 -47.834 -90 -69.501s-90.666 -32.5 -153.999 -32.5c-78.667 0 -139.334 19.5 -182.001 58.5s-64 86.5 -64 142.5c0 51.333 13.333 99.166 40 143.499s58.667 85.166 96 122.499
c-13.333 17.333 -26.666 37.666 -39.999 60.999s-20 51.333 -20 84c0 45.333 14.333 87.333 43 126s65 58 109 58zM170.001 528.006c0 -19.333 3.33301 -41.334 10 -66.001s20.667 -49.667 42 -75c16.667 12.667 33 32 49 58s24 48 24 66c0 26.667 -4.5 47.334 -13.5 62.001
s-26.833 22 -53.5 22c-16.667 0 -30.5 -4.66699 -41.5 -14s-16.5 -27 -16.5 -53zM117.001 165.005c0 -70.667 18.999 -122.833 56.999 -156.5s91.333 -50.5 160 -50.5c28.667 0 54.834 3.83301 78.501 11.5s44.167 20.834 61.5 39.501c-40 26.667 -88.5 68.5 -145.5 125.5
s-105.833 114.167 -146.5 171.5c-14 -16.667 -28.333 -38.334 -43 -65.001s-22 -52 -22 -76z" />
    <glyph glyph-name="quotesingle" unicode="'" horiz-adv-x="125" 
d="M118 639c-3.33301 -16 -5 -35.334 -5 -58.001v-26.5c0 -9 0.333008 -17.833 1 -26.5c0 -17.333 -1.16699 -34.166 -3.5 -50.499s-6.5 -33.833 -12.5 -52.5c-6 24 -22 54.5 -48 91.5s-39 77.833 -39 122.5c8 4.66699 17 8 27 10s18.667 3 26 3c14 0 25 -1.33301 33 -4
s15 -5.66699 21 -9z" />
    <glyph glyph-name="parenleft" unicode="(" horiz-adv-x="230" 
d="M188 -188c-44.667 33.333 -82.667 84.167 -114 152.5s-47 139.5 -47 213.5c0 66.667 13 129.167 39 187.5s68 109.833 126 154.5c-23.333 -29.333 -41.5 -77.5 -54.5 -144.5s-19.5 -139.5 -19.5 -217.5c0 -74 5.83301 -142.167 17.5 -204.5s29.167 -109.5 52.5 -141.5z
" />
    <glyph glyph-name="parenright" unicode=")" horiz-adv-x="230" 
d="M43 519c44.667 -33.333 82.667 -84.167 114 -152.5s47 -139.5 47 -213.5c0 -66.667 -13 -129.167 -39 -187.5s-68 -109.833 -126 -154.5c23.333 29.333 41.5 77.5 54.5 144.5s19.5 139.5 19.5 217.5c0 74 -5.83301 142.167 -17.5 204.5s-29.167 109.5 -52.5 141.5z" />
    <glyph glyph-name="asterisk" unicode="*" horiz-adv-x="573" 
d="M283 662l19.999 -42.0029c8 -3.33301 22.333 -10 43 -20l-39 -16c-7.33301 -5.33301 -11 -19.333 -11 -42c0 -22 1.33301 -34.667 4 -38c10.667 -6.66699 23.334 -15.334 38.001 -26.001c15.333 15.333 24.666 24.833 27.999 28.5s5 7.5 5 11.5
c-1.33301 8.66699 -2 18.334 -2 29.001c24.667 0 39 2.33301 43 7s6 19.334 6 44.001h44v-44c-23.333 0 -37.666 -2.33301 -42.999 -7s-8 -19.334 -8 -44.001c-13.333 0.666992 -21.666 1 -24.999 1c-5.33301 0 -11.666 -4.16699 -18.999 -12.5s-14.333 -15.5 -21 -21.5
c5.33301 -12 10.166 -21.833 14.499 -29.5s12.166 -11.5 23.499 -11.5h24c22 0 36 4 42 12c5.33301 14 10.666 26.333 15.999 37c6.66699 -14.667 13.667 -29 21 -43c8.66699 -2.66699 23 -9 43 -19c-14 -6.66699 -28 -13 -42 -19l-22 -43c-5.33301 12 -10.333 24 -15 36
c-6 8.66699 -20.333 13 -43 13c-24.667 0 -38.667 -1.66699 -42 -5c-5.33301 -10.667 -12 -22.667 -20 -36c8 -9.33301 15.333 -17.333 22 -24s13.334 -10 20.001 -10c8 0.666992 15.667 1 23 1c0 -22.667 2.5 -36.167 7.5 -40.5s19.5 -6.5 43.5 -6.5v-45h-44
c0 21.333 -2.5 34.833 -7.5 40.5s-18.833 8.5 -41.5 8.5v19c0 9.33301 -1.33301 16 -4 20c-8.66699 8.66699 -17.667 18.334 -27 29.001l-35 -21c-4.66699 -4 -7 -11.667 -7 -23v-19c0 -21.333 3.66699 -34.666 11 -39.999c14 -6 27 -12 39 -18l-44 -20
c-2.66699 -8.66699 -9 -23 -19 -43c-14.667 30 -25.5 46.5 -32.5 49.5s-16.833 7.5 -29.5 13.5l37 16c8 6 12 19.667 12 41v19c0 12 -1.66699 19.667 -5 23l-36 22l-23.5 -24c-6.33301 -6.66699 -9.5 -13.667 -9.5 -21v-23c-24.667 0 -39.167 -2.16699 -43.5 -6.5
s-6.5 -18.5 -6.5 -42.5h-42v45c22.667 0 36.667 2.16699 42 6.5s8 17.833 8 40.5h15c12.667 0 21.834 3 27.501 9s13.834 14 24.501 24l-17 29c-4.66699 8 -12.334 12 -23.001 12h-23c-22 0 -36.333 -4.33301 -43 -13c-5.33301 -14 -10.666 -26 -15.999 -36
c-13.333 28 -21 42.667 -23 44c-8.66699 2 -21.667 8 -39 18l30 16c7.33301 4 18 19.667 32 47l16 -39c6 -7.33301 20.333 -11 43 -11c23.333 0 37 2 41 6c6 10.667 13.333 22.334 22 35.001l-24 25.5c-6.66699 7 -13 10.5 -19 10.5
c-8.66699 -0.666992 -17.334 -1 -26.001 -1c0 24.667 -2 39 -6 43s-18 6 -42 6v44h42c0 -24.667 2 -39 6 -43s18.667 -6 44 -6c-0.666992 -14.667 -1 -23.667 -1 -27c0 -5.33301 3.16699 -11.333 9.5 -18l24.5 -26l38 25c3.33301 3.33301 5 16 5 38
c0 22.667 -3.33301 36.667 -10 42c-14.667 5.33301 -28.334 11 -41.001 17l44 20c2 8 8 22 18 42zM220.999 414.997c0 -18.667 5.83203 -33.832 17.499 -45.499s25.834 -17.5 42.501 -17.5s31.667 5.66699 45 17s20 26.666 20 45.999c0 18.667 -6.5 34.5 -19.5 47.5
s-27.833 19.5 -44.5 19.5s-31 -6.33301 -43 -19s-18 -28.667 -18 -48z" />
    <glyph glyph-name="plus" unicode="+" horiz-adv-x="563" 
d="M282 400c16.667 0 30.4961 2.16504 41.4961 6.49805s23.833 12.833 38.5 25.5c-8.66699 -21.333 -21.5 -37.166 -38.5 -47.499s-25.5 -32.5 -25.5 -66.5c0 -27.333 2 -43 6 -47s21.333 -6 52 -6c28.667 0 47.334 8.5 56.001 25.5s26.334 30.167 53.001 39.5
c-13.333 -16.667 -22.333 -30.167 -27 -40.5s-7 -23.5 -7 -39.5c0 -16.667 2 -30.167 6 -40.5s13.333 -24.166 28 -41.499c-26.667 8.66699 -44.167 21.834 -52.5 39.501s-27.166 26.5 -56.499 26.5c-28.667 0 -45.5 -1.33301 -50.5 -4s-7.5 -13.667 -7.5 -33v-21
c0 -29.333 9 -47.333 27 -54s30.333 -22.667 37 -48c-10.667 8.66699 -21.167 15.334 -31.5 20.001s-26.5 7 -48.5 7c-19.333 0 -34.166 -1.66699 -44.499 -5s-22.166 -11.333 -35.499 -24c8 25.333 21 41.666 39 48.999s27 25.666 27 54.999
c0 28.667 -1.33301 45.5 -4 50.5s-13.334 7.5 -32.001 7.5h-18c-30.667 0 -50.167 -8.16699 -58.5 -24.5s-25.5 -29.833 -51.5 -40.5c13.333 16.667 22 30.167 26 40.5s6 23.833 6 40.5c0 18.667 -3.66699 34.667 -11 48l-22 32c28 -8.66699 45.833 -21.667 53.5 -39
s26.834 -26 57.501 -26c28 0 44 2 48 6s6 19.667 6 47c0 32.667 -9.16699 54.167 -27.5 64.5s-31.166 26.833 -38.499 49.5c13.333 -12.667 25.666 -21.167 36.999 -25.5s25.666 -6.5 42.999 -6.5zM498.996 229.998c-14 0 -21 7 -21 21c0 13.333 7 20 21 20s21 -7 21 -21
c0 -13.333 -7 -20 -21 -20zM282.996 445.998c-14 0 -21 7 -21 21c0 13.333 7 20 21 20s21 -7 21 -21c0 -13.333 -7 -20 -21 -20zM282.996 13.998c-14 0 -21 7 -21 21c0 13.333 7 20 21 20s21 -7 21 -21c0 -13.333 -7 -20 -21 -20zM66.9961 229.998c-14 0 -21 7 -21 21
c0 13.333 7 20 21 20s21 -7 21 -21c0 -13.333 -7 -20 -21 -20zM281.996 271.998c-14 0 -21 -7.33301 -21 -22c0 -13.333 7 -20 21 -20s21 7.33301 21 22c0 13.333 -7 20 -21 20z" />
    <glyph glyph-name="comma" unicode="," horiz-adv-x="240" 
d="M120 95c34.667 -32 52.001 -65.3301 52.001 -99.9971c0 -24.667 -8.33301 -47.834 -25 -69.501s-40.334 -40.834 -71.001 -57.501c10 11.333 17.5 22.5 22.5 33.5s7.5 21.5 7.5 31.5c0 18.667 -4.66699 33.167 -14 43.5s-25 24.833 -47 43.5
c5.33301 13.333 13 27.166 23 41.499s27.333 25.5 52 33.5z" />
    <glyph glyph-name="hyphen" unicode="-" horiz-adv-x="586" 
d="M79 176c16.667 50.667 45.999 82.334 87.999 95.001s100.333 20.167 175 22.5s125.334 10.5 152.001 24.5c-26 -54 -59 -86.667 -99 -98s-95.333 -17.333 -166 -18s-120.667 -9.33398 -150 -26.001z" />
    <glyph glyph-name="period" unicode="." horiz-adv-x="240" 
d="M119 96c12 0 27.001 -7.66602 45.001 -22.999s33.333 -32.666 46 -51.999l-83 -83c-18 17.333 -33.167 30.666 -45.5 39.999s-27.833 19.666 -46.5 30.999c6 10.667 19.167 27.5 39.5 50.5s35.166 35.167 44.499 36.5z" />
    <glyph glyph-name="slash" unicode="/" horiz-adv-x="464" 
d="M376 658h50l-338 -760h-50z" />
    <glyph glyph-name="zero" unicode="0" 
d="M244 433c54.667 0 97.5 -19.666 128.5 -58.999s46.5 -88 46.5 -146c0 -60.667 -22.167 -114.834 -66.5 -162.501s-94.5 -71.5 -150.5 -71.5c-53.333 0 -96 19.833 -128 59.5s-48 89.5 -48 149.5s22 113.333 66 160s94.667 70 152 70zM114 262.001
c0 -52 7.66602 -101.667 22.999 -149s48 -71 98 -71c28 0 50.667 12 68 36s26 54.667 26 92c0 54 -9 103.5 -27 148.5s-48.667 67.5 -92 67.5c-29.333 0 -52.666 -11.667 -69.999 -35s-26 -53 -26 -89z" />
    <glyph glyph-name="one" unicode="1" horiz-adv-x="280" 
d="M204 431v-367c0 -18 2.33301 -30.5 7 -37.5s15 -15.833 31 -26.5h-171l28 23c8.66699 10 13 23.667 13 41v263c0 18.667 -8.66699 28 -26 28c-12.667 0 -28 -6 -46 -18c23.333 26.667 45.5 49 66.5 67s53.5 27 97.5 27z" />
    <glyph glyph-name="two" unicode="2" horiz-adv-x="424" 
d="M224 435c50.667 0 90.834 -10.667 120.501 -32s44.5 -55.666 44.5 -102.999c0 -34.667 -45.167 -76.834 -135.5 -126.501s-140.833 -80.834 -151.5 -93.501c15.333 0 31.166 -0.166992 47.499 -0.5s33.166 -0.5 50.499 -0.5c50.667 0 94.5 1.5 131.5 4.5
s65.167 9.16699 84.5 18.5l-43 -67c-22 -24.667 -50.667 -37 -86 -37l-265 2c0 44.667 22.667 85.667 68 123l129.5 90c44.333 31.333 66.5 63.333 66.5 96c0 29.333 -6.16699 52.5 -18.5 69.5s-35.166 25.5 -68.499 25.5c-20.667 0 -41.334 -7.83301 -62.001 -23.5
s-31 -34.5 -31 -56.5c0 -17.333 1.33301 -31.666 4 -42.999s10 -25.666 22 -42.999c-32 16.667 -53.167 32.167 -63.5 46.5s-15.5 33.166 -15.5 56.499c0 26 16.833 48.167 50.5 66.5s73.834 27.5 120.501 27.5z" />
    <glyph glyph-name="three" unicode="3" horiz-adv-x="424" 
d="M216 428l177 -0.00195312c-16 -54 -48.167 -101.667 -96.5 -143s-81.166 -72.666 -98.499 -93.999c18 4 34.667 6 50 6c48 0 84.667 -18.5 110 -55.5s38 -83.5 38 -139.5c0 -49.333 -22.667 -99 -68 -149s-99.333 -75 -162 -75c-59.333 0 -99.5 12.333 -120.5 37
s-31.5 61.334 -31.5 110.001l65 -87c28 -23.333 59.667 -35 95 -35c44.667 0 77.167 17.333 97.5 52s30.5 73.667 30.5 117c0 55.333 -8.83301 99.833 -26.5 133.5s-47.834 50.5 -90.501 50.5c-20.667 0 -45.667 -5 -75 -15c18 24 51.333 58.333 100 103
s81.334 80.667 98.001 108h-151c-28 0 -47.667 -2 -59 -6s-28.333 -11.333 -51 -22c11.333 35.333 32.166 61.5 62.499 78.5s65.833 25.5 106.5 25.5z" />
    <glyph glyph-name="four" unicode="4" horiz-adv-x="480" 
d="M362 428v-409.999c9.33301 0 24.333 0.333008 45 1s40 4.66699 58 12c-2 -18.667 -9.5 -34 -22.5 -46s-39.833 -18 -80.5 -18v-121c0 -16.667 4.83301 -29.834 14.5 -39.501s19.5 -17.834 29.5 -24.501h-178c9.33301 6.66699 18.833 15 28.5 25s14.5 23 14.5 39v121h-255
c26.667 36.667 61.667 100.834 105 192.501s77 157.5 101 197.5s51.667 61.667 83 65zM270 367.001c-28.667 -34.667 -64.167 -97.5 -106.5 -188.5s-68.833 -144.5 -79.5 -160.5h186v349z" />
    <glyph glyph-name="five" unicode="5" horiz-adv-x="464" 
d="M97 168c20 9.33301 38.5 17.334 55.5 24.001s40.167 10 69.5 10c63.333 0 117 -18.833 161 -56.5s66 -88.834 66 -153.501c0 -53.333 -17.167 -101.5 -51.5 -144.5s-92.833 -64.5 -175.5 -64.5c-72 0 -123.5 17.667 -154.5 53s-46.5 89 -46.5 161
c34 -63.333 70.667 -109.666 110 -138.999s77.333 -44 114 -44c38.667 0 67 13.833 85 41.5s27 64.5 27 110.5c0 73.333 -16.333 124.333 -49 153s-72.334 43 -119.001 43c-26 0 -49 -4.33301 -69 -13s-44.667 -23 -74 -43l110 322c12 0 24.333 -0.166992 37 -0.5
s25.334 -0.5 38.001 -0.5c46.667 0 84.667 1.66699 114 5s55 10.666 77 21.999c-15.333 -54 -43.333 -86.833 -84 -98.5s-100 -17.5 -178 -17.5c-5.33301 0 -15.833 -23 -31.5 -69s-26.167 -79.667 -31.5 -101z" />
    <glyph glyph-name="six" unicode="6" horiz-adv-x="480" 
d="M334 650c-64 -32 -112.332 -73.332 -144.999 -123.999s-55 -101.334 -67 -152.001c-3.33301 -21.333 -6.33301 -42.666 -9 -63.999c20.667 15.333 42.667 27.166 66 35.499s51.666 12.5 84.999 12.5c61.333 0 108.833 -16.833 142.5 -50.5s50.5 -77.5 50.5 -131.5
c0 -59.333 -19.667 -104.833 -59 -136.5s-89.666 -47.5 -150.999 -47.5c-74 0 -129.5 23.167 -166.5 69.5s-55.5 109.833 -55.5 190.5c0 102 28.167 193.833 84.5 275.5s131.166 122.5 224.499 122.5zM122.001 210.001c0 -46 16.5 -88.167 49.5 -126.5
s69.5 -57.5 109.5 -57.5c24 0 44 8 60 24s24 41.333 24 76c0 52 -10.667 97.167 -32 135.5s-53 57.5 -95 57.5c-31.333 0 -58.5 -10.333 -81.5 -31s-34.5 -46.667 -34.5 -78z" />
    <glyph glyph-name="seven" unicode="7" horiz-adv-x="480" 
d="M169 -22c0 -28 7.66797 -53.3311 23.001 -75.998s40.333 -44.334 75 -65.001c-16.667 -20.667 -30.667 -37 -42 -49s-20.666 -18 -27.999 -18c-22 0 -47 20.167 -75 60.5s-42 81.5 -42 123.5c0 61.333 33.5 125.333 100.5 192l192.5 191h-271
c-26.667 0 -46.834 -2.33301 -60.501 -7s-34.167 -17.667 -61.5 -39c13.333 42.667 34.166 76.167 62.499 100.5s62.833 36.5 103.5 36.5h249c19.333 0 38.333 2.5 57 7.5s35 11.167 49 18.5c-30 -68.667 -71.333 -128.834 -124 -180.501l-146 -142.5
c-41.333 -47.333 -62 -98.333 -62 -153z" />
    <glyph glyph-name="eight" unicode="8" horiz-adv-x="400" 
d="M204 624c49.333 0 85.001 -13.1641 107.001 -39.4971s33 -56.5 33 -90.5c0 -32 -8.33301 -55.833 -25 -71.5s-46.334 -38.167 -89.001 -67.5c34 -20 67.833 -45.333 101.5 -76s50.5 -73.334 50.5 -128.001c0 -50.667 -19.833 -89.834 -59.5 -117.501
s-89.834 -41.5 -150.501 -41.5c-105.333 0 -158 47.333 -158 142c0 46.667 9.33301 82 28 106s48 50 88 78c-26 25.333 -45.167 50.166 -57.5 74.499s-18.5 55.5 -18.5 93.5c0 58 15.333 95.5 46 112.5s65.334 25.5 104.001 25.5zM100.001 525.003
c0 -32 11.332 -62.168 33.999 -90.501s48.667 -50.166 78 -65.499c14.667 8.66699 29.667 18.667 45 30s23 35 23 71c0 35.333 -10.5 64.833 -31.5 88.5s-45.5 35.5 -73.5 35.5c-21.333 0 -39.166 -5 -53.499 -15s-21.5 -28 -21.5 -54zM78 185.002
c0 -52.667 14.5 -92.333 43.5 -119s59.833 -40 92.5 -40c22 0 38.833 6 50.5 18s17.5 33.667 17.5 65c0 58.667 -11.333 100.167 -34 124.5s-56.667 48.5 -102 72.5c-24.667 -20 -42.167 -37.833 -52.5 -53.5s-15.5 -38.167 -15.5 -67.5z" />
    <glyph glyph-name="nine" unicode="9" horiz-adv-x="448" 
d="M238 431c63.333 0 109.833 -22.3311 139.5 -66.998s44.5 -102.667 44.5 -174c0 -86.667 -20 -162 -60 -226s-85.667 -114.5 -137 -151.5s-95 -61.833 -131 -74.5c96 81.333 159.333 150 190 206s46 118 46 186c0 83.333 -11.667 144.666 -35 183.999s-62.333 59 -117 59
c-28.667 0 -51.5 -8.83301 -68.5 -26.5s-25.5 -38.834 -25.5 -63.501c0 -43.333 17.5 -90.333 52.5 -141s85.5 -85 151.5 -103c-97.333 0 -164.833 14.5 -202.5 43.5s-56.5 78.5 -56.5 148.5c0 61.333 20.5 110 61.5 146s90.167 54 147.5 54z" />
    <glyph glyph-name="colon" unicode=":" horiz-adv-x="240" 
d="M124 327c6.66699 0 20.8311 -11.1699 42.498 -33.5029s32.5 -36.5 32.5 -42.5c0 -5.33301 -9.33301 -17.666 -28 -36.999s-38.667 -34.666 -60 -45.999c-11.333 19.333 -22.666 35.333 -33.999 48c-20 18.667 -32.333 30.334 -37 35.001l52 53.5
c14.667 15 25.334 22.5 32.001 22.5zM123.997 91.9971c6.66699 0 20.832 -10.8301 42.499 -32.4971s32.5 -35.834 32.5 -42.501c0 -22.667 -29.333 -50.334 -88 -83.001c-10 17.333 -22.5 33.666 -37.5 48.999l-33.5 34l52 53c14.667 14.667 25.334 22 32.001 22z" />
    <glyph glyph-name="semicolon" unicode=";" horiz-adv-x="240" 
d="M135 327c7.33301 0 21.667 -11 43 -33s32 -36.333 32 -43c0 -6 -8.33301 -17.667 -25 -35s-36 -32.333 -58 -45c-12.667 21.333 -24 37.333 -34 48c-21.333 18 -34.333 29.333 -39 34l60 63c7.33301 7.33301 14.333 11 21 11zM124.001 95
c34.667 -32 52.001 -65.3301 52.001 -99.9971c0 -24.667 -8.33301 -47.834 -25 -69.501s-40.334 -40.834 -71.001 -57.501c10 11.333 17.5 22.5 22.5 33.5s7.5 21.5 7.5 31.5c0 18.667 -4.66699 33.167 -14 43.5s-25 24.833 -47 43.5c5.33301 13.333 13 27.166 23 41.499
s27.333 25.5 52 33.5z" />
    <glyph glyph-name="less" unicode="&#x3c;" horiz-adv-x="426" 
d="M258 414h67l-155 -160v-8l155 -159h-67l-163 157v9z" />
    <glyph glyph-name="equal" unicode="=" horiz-adv-x="416" 
d="M36 133c14 28 32.6689 49.166 56.002 63.499s62.666 21.5 117.999 21.5c8.66699 0 17.5 -0.166992 26.5 -0.5s18.167 -0.5 27.5 -0.5c30 0 53 1.83301 69 5.5s30.667 8.83398 44 15.501c-22.667 -36 -48.834 -58.667 -78.501 -68s-67.5 -14 -113.5 -14
c-45.333 0 -76.5 -0.833008 -93.5 -2.5s-35.5 -8.5 -55.5 -20.5zM26.002 263.999c18 36.667 41.166 60.001 69.499 70.001s65.166 15 110.499 15h42c26.667 0 48.834 1.16699 66.501 3.5s35.167 8.16602 52.5 17.499c-22.667 -36.667 -49.167 -59.667 -79.5 -69
s-69.166 -14 -116.499 -14c-48 0 -80.167 -1.5 -96.5 -4.5s-32.5 -9.16699 -48.5 -18.5z" />
    <glyph glyph-name="greater" unicode="&#x3e;" horiz-adv-x="365" 
d="M57 416h75l164 -163v-9l-167 -158h-67l159 158v9z" />
    <glyph glyph-name="question" unicode="?" horiz-adv-x="592" 
d="M325 662c75.333 0 131.998 -18.002 169.998 -54.002s57 -87.333 57 -154c0 -54 -14.167 -97.5 -42.5 -130.5s-79.333 -85.833 -153 -158.5s-110.5 -124 -110.5 -154c0 -21.333 5.66699 -34.833 17 -40.5s28.333 -8.5 51 -8.5c17.333 0 34.333 11 51 33s25 46 25 72v16
c-2 5.33301 -3.33301 9 -4 11c6.66699 -3.33301 10.834 -11.166 12.501 -23.499s2.83398 -24.5 3.50098 -36.5c0 -36.667 -8.83301 -67.334 -26.5 -92.001s-48.5 -37 -92.5 -37c-26 0 -47.167 7.5 -63.5 22.5s-24.5 38.167 -24.5 69.5c0 45.333 21 94.666 63 147.999
l118 134c42.667 52.667 64 99.334 64 140.001c0 71.333 -18.333 123.833 -55 157.5s-81 50.5 -133 50.5c-46 0 -82.167 -15.5 -108.5 -46.5s-39.5 -70.5 -39.5 -118.5c0 -43.333 7.5 -81.666 22.5 -114.999s40.167 -61.666 75.5 -84.999
c-48.667 0 -87.334 17.833 -116.001 53.5s-43 77.167 -43 124.5c0 60 21.333 112 64 156s115.334 66 218.001 66zM289.998 -170.002c4 0 14.666 -8.16797 31.999 -24.501s36 -30.166 56 -41.499c-4 -6 -19 -23 -45 -51s-43 -42 -51 -42c-4.66699 0 -14.667 7.83301 -30 23.5
s-34.666 30.167 -57.999 43.5c6.66699 9.33301 22.667 27 48 53s41.333 39 48 39z" />
    <glyph glyph-name="at" unicode="@" horiz-adv-x="656" 
d="M385 31c-18 0 -32.502 3.83105 -43.502 11.498s-16.5 19.167 -16.5 34.5c0 5.33301 1 11.666 3 18.999l12 44c-38.667 -30.667 -72.667 -56.5 -102 -77.5s-52 -31.5 -68 -31.5c-15.333 0 -26.5 6.66699 -33.5 20s-10.5 29 -10.5 47c0 35.333 9.33301 74.333 28 117
s54.167 80.5 106.5 113.5s125.5 49.5 219.5 49.5l-77 -283c-3.33301 -14.667 8 -22 34 -22c42.667 0 79.5 19.833 110.5 59.5s46.5 84.167 46.5 133.5c0 60 -26 108.333 -78 145s-109.333 55 -172 55c-77.333 0 -143.666 -27.667 -198.999 -83s-83 -121.666 -83 -198.999
s27.667 -143.666 83 -198.999s121.666 -83 198.999 -83c44.667 0 86 9.5 124 28.5s70.667 45.5 98 79.5l31 -16c-30 -38.667 -67.167 -69.5 -111.5 -92.5s-92.166 -34.5 -143.499 -34.5c-88 0 -162.667 31 -224 93s-92 136.667 -92 224s30.667 162 92 224s136 93 224 93
c68.667 0 133.334 -20.5 194.001 -61.5s91 -94.167 91 -159.5c0 -75.333 -20.167 -135.666 -60.5 -180.999s-100.833 -68 -181.5 -68zM217.998 173.998c0 -13.333 2.99902 -23.333 8.99902 -30s15 -10 27 -10c24 0 56 14.333 96 43l48 178
c-47.333 0 -89.166 -20 -125.499 -60s-54.5 -80.333 -54.5 -121z" />
    <glyph glyph-name="A" unicode="A" horiz-adv-x="785" 
d="M998 -231l-75.999 -0.00195312c-71.333 0 -131.666 25 -180.999 75l-141 163c-72 70.667 -163 122.334 -273 155.001l-75 -89.5c-31.333 -37 -68.333 -74.667 -111 -113s-77 -57.5 -103 -57.5c-12.667 0 -21.5 2.5 -26.5 7.5s-7.5 13.833 -7.5 26.5
c0 10 28.833 32.5 86.5 67.5s125.5 91.5 203.5 169.5c-30 7.33301 -58.333 11 -85 11c-28 0 -49.5 -2.5 -64.5 -7.5s-34.167 -13.5 -57.5 -25.5c19.333 18 41.5 31 66.5 39s51.5 12 79.5 12c26 0 51.667 -2.66699 77 -8c61.333 76.667 114.666 157.334 159.999 242.001
s77.666 161.667 96.999 231c22 -101.333 47.667 -212.833 77 -334.5s73 -236 131 -343s132.333 -180.5 223 -220.5zM507.001 449.998c-20.667 -45.333 -44.499 -89.498 -71.499 -132.498s-57.5 -86.833 -91.5 -131.5c51.333 -12.667 99.166 -27.834 143.499 -45.501
s81.833 -38.834 112.5 -63.501c-14.667 30 -31 80.667 -49 152s-32.667 145 -44 221z" />
    <glyph glyph-name="B" unicode="B" horiz-adv-x="914" 
d="M482 651l18 15.002v-15c110.667 0 193 -20.167 247 -60.5s81 -97.833 81 -172.5c0 -42.667 -7.33301 -72.334 -22 -89.001s-42.667 -33.667 -84 -51c29.333 -10.667 65.5 -40.334 108.5 -89.001s64.5 -100 64.5 -154c0 -82.667 -43.333 -145.667 -130 -189
s-185.667 -65 -297 -65c-66 0 -123.333 7.83301 -172 23.5s-77.667 37.5 -87 65.5c31.333 -21.333 58.333 -36 81 -44s50 -12 82 -12v572c0 28.667 9.66699 68.5 29 119.5s37.333 87.5 54 109.5c-158.667 0 -265.167 -19.167 -319.5 -57.5s-81.5 -86.833 -81.5 -145.5
c0 -63.333 14.667 -114.5 44 -153.5s81.333 -80.167 156 -123.5c-81.333 0 -143.333 23.167 -186 69.5s-64 104.166 -64 173.499c0 90.667 38.5 158.834 115.5 204.501s197.833 68.5 362.5 68.5zM499 -4.99805c0 -38 -10.999 -71.833 -32.999 -101.5
s-44.333 -55.834 -67 -78.501c123.333 0 215.166 14.333 275.499 43s90.5 85 90.5 169c0 68 -15.5 123.667 -46.5 167s-71.167 71.333 -120.5 84c51.333 14.667 85.833 33.334 103.5 56.001s26.5 50.667 26.5 84c0 77.333 -19.167 129.5 -57.5 156.5s-95.5 40.5 -171.5 40.5
v-620z" />
    <glyph glyph-name="C" unicode="C" horiz-adv-x="728" 
d="M378 650h248.002c5.33301 -24.667 19.166 -57 41.499 -97s36.166 -69 41.499 -87l-142 111c-58.667 31.333 -120 47 -184 47c-94.667 0 -159.167 -28.5 -193.5 -85.5s-51.5 -131.5 -51.5 -223.5c0 -102.667 26 -203.167 78 -301.5s127 -147.5 225 -147.5
c80 0 139 15.333 177 46s69.333 70 94 118c0 -62 -20.333 -110 -61 -144s-116.667 -51 -228 -51c-117.333 0 -214.666 32 -291.999 96s-116 160 -116 288c0 132.667 35.667 237.667 107 315s156.666 116 255.999 116z" />
    <glyph glyph-name="D" unicode="D" horiz-adv-x="999" 
d="M968 216c0 -147.333 -40.5029 -256.503 -121.503 -327.503s-225.5 -106.5 -433.5 -106.5h-36c-56 0 -105.833 10 -149.5 30s-73.5 63.333 -89.5 130c24.667 -44.667 53.667 -75 87 -91s70.333 -28.333 111 -37v576c0 28.667 10.333 66.834 31 114.501
s39.334 82.5 56.001 104.5c-127.333 0 -220.666 -12.167 -279.999 -36.5s-89 -76.5 -89 -156.5c0 -67.333 14.333 -119 43 -155s82 -76.333 160 -121c-84 0 -147.167 22.333 -189.5 67s-63.5 100.334 -63.5 167.001c0 81.333 29.833 147.333 89.5 198s177.167 76 352.5 76
l18 16v-16c150.667 0 272.334 -32.667 365.001 -98s139 -176.666 139 -333.999zM466.997 8.99707c0 -29.333 -9.99902 -61.499 -29.999 -96.499s-40.667 -67.167 -62 -96.5c98 0 180.167 7.66699 246.5 23s119.666 46.666 159.999 93.999s60.5 117 60.5 209
c0 147.333 -27 262.5 -81 345.5s-152 124.5 -294 124.5v-603z" />
    <glyph glyph-name="E" unicode="E" horiz-adv-x="849" 
d="M382 651l16.001 15v-15h357c0 -26 11.167 -58.167 33.5 -96.5s36.833 -69.166 43.5 -92.499l-129 116c-46.667 28 -97.667 42 -153 42h-153v-313c32.667 40.667 65.167 73.834 97.5 99.501s72.166 38.5 119.499 38.5c26 0 46 -7.33301 60 -22s21 -34 21 -58
c0 -22 -7 -45.667 -21 -71c2 17.333 3 31.666 3 42.999c0 27.333 -4.83301 45.166 -14.5 53.499s-23.167 12.5 -40.5 12.5c-36 0 -82.5 -29.5 -139.5 -88.5s-85.5 -132.5 -85.5 -220.5c0 -54.667 8.83301 -87.667 26.5 -99s55.834 -17 114.501 -17c66 0 124 15.167 174 45.5
s89.333 74.833 118 133.5c-3.33301 -31.333 -13.166 -65.5 -29.499 -102.5l-45.5 -101.5h-582l38 20c40 24.667 60 54 60 88v351c0 31.333 4.16699 58.166 12.5 80.499s29.166 64.833 62.499 127.5c-108 0 -183.667 -15.833 -227 -47.5s-65 -85.167 -65 -160.5
s12.5 -132.166 37.5 -170.499s65.5 -73.166 121.5 -104.499c-78 0 -132.333 23.667 -163 71s-46 106.666 -46 177.999c0 85.333 28.667 150.833 86 196.5s154.666 68.5 291.999 68.5z" />
    <glyph glyph-name="F" unicode="F" horiz-adv-x="919" 
d="M1004 666c-26 -33.333 -59.8359 -59.667 -101.503 -79s-85.167 -29 -130.5 -29h-367c54 -10.667 113.167 -41 177.5 -91s100.833 -114.667 109.5 -194c43.333 0 83.833 9.83301 121.5 29.5s65.834 52.167 84.501 97.5l-59 -250l-29 87
c-23.333 -8 -44.833 -14.333 -64.5 -19l-47.5 -11c0 -135.333 -35.667 -240.333 -107 -315s-161 -112 -269 -112c-100.667 0 -170.5 23 -209.5 69s-58.5 102.667 -58.5 170c0 84 28.833 146.167 86.5 186.5s129.167 60.5 214.5 60.5h206
c-17.333 94.667 -52.666 164.834 -105.999 210.501s-117.333 68.5 -192 68.5c-66 0 -118.333 -15.667 -157 -47s-72.667 -78 -102 -140c0 85.333 34.833 155.333 104.5 210s148.834 82 237.501 82c52 0 121.833 -0.333008 209.5 -1s148.167 -1 181.5 -1
c77.333 0 136.833 1.16699 178.5 3.5s71.167 7.16602 88.5 14.499zM95.9971 43.999c0 -58 23.668 -111.002 71.001 -159.002s101.666 -72 162.999 -72c80 0 139 32.833 177 98.5s57 162.834 57 291.501h-293c-48 0 -89.167 -14.667 -123.5 -44s-51.5 -67.666 -51.5 -114.999
z" />
    <glyph glyph-name="G" unicode="G" horiz-adv-x="846" 
d="M429 666c34.667 0 86.167 -6.33105 154.5 -18.998s111.833 -19 130.5 -19c-20.667 -40 -34 -68.833 -40 -86.5s-11 -39.834 -15 -66.501c-21.333 61.333 -55.333 103.666 -102 126.999s-106.334 35 -179.001 35c-88.667 0 -151.167 -29 -187.5 -87s-54.5 -132 -54.5 -222
c0 -124.667 26.167 -233.5 78.5 -326.5s129.5 -139.5 231.5 -139.5c60 0 108.5 17.167 145.5 51.5s55.5 80.833 55.5 139.5c0 58 -13.667 93.333 -41 106s-78 19 -152 19c-34 0 -65.667 -3.33301 -95 -10s-55 -25.667 -77 -57c0 32 17.5 65.167 52.5 99.5
s77.5 51.5 127.5 51.5c17.333 0 35.333 -0.166992 54 -0.5s37.667 -0.5 57 -0.5c66 0 121.333 1.66699 166 5s79 10 103 20c-9.33301 -25.333 -27.5 -51 -54.5 -77s-64.833 -39 -113.5 -39c12.667 -14.667 21.334 -28.834 26.001 -42.501s7 -35.5 7 -65.5
c0 -83.333 -26.5 -141.833 -79.5 -175.5s-122.167 -50.5 -207.5 -50.5c-142.667 0 -246.167 38.333 -310.5 115s-96.5 166.334 -96.5 269.001c0 136 36.5 244.333 109.5 325s175.167 121 306.5 121z" />
    <glyph glyph-name="H" unicode="H" horiz-adv-x="912" 
d="M263 651h232.001c-28.667 -12 -52.167 -27.167 -70.5 -45.5s-27.5 -40.833 -27.5 -67.5v-275c48.667 39.333 95.667 70 141 92s89 36.667 131 44v129c0 32 -5.66699 56.167 -17 72.5s-37.333 33.166 -78 50.499h316c-41.333 -12 -66.833 -30 -76.5 -54
s-15.5 -47 -17.5 -69l1 -119c38 -6 62.833 -13.667 74.5 -23s20.167 -26 25.5 -50c-19.333 17.333 -34.5 28.666 -45.5 33.999s-28.833 8 -53.5 8v-316c0 -26 8.66699 -48 26 -66s39.333 -32.333 66 -43h-309c27.333 11.333 48.666 26 63.999 44s23 39.667 23 65v306
c-51.333 -10 -109.333 -43.667 -174 -101s-97 -117.666 -97 -180.999c0 -43.333 8.16699 -73.333 24.5 -90s38.833 -31 67.5 -43h-314c26 10.667 48.667 27 68 49s29 46.667 29 74v495c0 16.667 -5.16699 29.167 -15.5 37.5s-24.833 12.5 -43.5 12.5
c-36 0 -71.5 -13 -106.5 -39s-52.5 -68.667 -52.5 -128c0 -60.667 13 -111.5 39 -152.5s68 -76.833 126 -107.5c-74 0 -128.333 22 -163 66s-52 97.333 -52 160c0 72.667 25.833 129.334 77.5 170.001s112.167 61 181.5 61z" />
    <glyph glyph-name="I" unicode="I" horiz-adv-x="581" 
d="M284 651h337.001c-60.667 -25.333 -91 -62.666 -91 -111.999v-469c0 -21.333 6.5 -42.833 19.5 -64.5s36.833 -39.834 71.5 -54.501h-308c60.667 26.667 91 66.334 91 119.001v420c0 38 5 66.333 15 85l35 44h-179c-84 0 -141.833 -17.333 -173.5 -52
s-47.5 -83.334 -47.5 -146.001c0 -49.333 13.333 -94 40 -134s60.667 -60 102 -60c38.667 0 62.667 17 72 51s22.666 51 39.999 51c12.667 0 19 -8.33301 19 -25c0 -23.333 -12 -45.833 -36 -67.5s-58.333 -32.5 -103 -32.5c-58 0 -103.167 20.667 -135.5 62
s-48.5 93 -48.5 155c0 79.333 30.333 137.5 91 174.5s123.667 55.5 189 55.5z" />
    <glyph glyph-name="J" unicode="J" horiz-adv-x="670" 
d="M392 651l333 -0.000976562c-29.333 -12 -52 -27.5 -68 -46.5s-24 -41.5 -24 -67.5v-476c0 -54.667 -9.5 -111.167 -28.5 -169.5s-57.167 -110.5 -114.5 -156.5s-138.333 -69 -243 -69c-91.333 0 -154.666 20.5 -189.999 61.5s-53 90.5 -53 148.5
c0 39.333 7.16699 75.833 21.5 109.5s38.833 50.5 73.5 50.5c-23.333 -7.33301 -40.666 -21.166 -51.999 -41.499s-17 -43.166 -17 -68.499c0 -64.667 24 -119.334 72 -164.001s105 -67 171 -67c79.333 0 138.166 29.5 176.499 88.5s57.5 126.5 57.5 202.5v496
c0 34.667 3.16699 59.5 9.5 74.5s20.166 35.5 41.499 61.5h-210c-72 0 -122.167 -19.667 -150.5 -59s-42.5 -86 -42.5 -140c0 -50.667 13.833 -95.834 41.5 -135.501s64.834 -59.5 111.501 -59.5c36.667 0 64.5 10.333 83.5 31s33.167 48.334 42.5 83.001
c0 -52.667 -13.833 -88.5 -41.5 -107.5s-61.834 -28.5 -102.501 -28.5c-59.333 0 -105 20.667 -137 62s-48 90 -48 146c0 74 29 132.667 87 176s124.667 65 200 65z" />
    <glyph glyph-name="K" unicode="K" horiz-adv-x="878" 
d="M296 651l657.999 0.000976562c-37.333 -6.66699 -70 -18.334 -98 -35.001s-55.667 -38.167 -83 -64.5l-101.5 -100.5c-40.333 -40.667 -64.166 -65.334 -71.499 -74.001s-11 -18 -11 -28c0 -8 4.66699 -17.833 14 -29.5l126 -153.5l208 -245
c64 -72.667 122.833 -128.334 176.5 -167.001s105.834 -58 156.501 -58c42 0 74.833 13 98.5 39s35.5 57.333 35.5 94c0 17.333 -3.66699 31.5 -11 42.5s-15 21.833 -23 32.5c0 9.33301 3.83301 15.833 11.5 19.5s15.167 5.5 22.5 5.5c19.333 0 33.833 -8.66699 43.5 -26
s14.5 -39 14.5 -65c0 -44.667 -16.833 -83.834 -50.5 -117.501s-77.834 -50.5 -132.501 -50.5c-68.667 0 -140.834 26.167 -216.501 78.5s-152.5 119 -230.5 200l-331 360.5v-238c0 -39.333 8.33301 -66.666 25 -81.999s37 -28 61 -38h-341
c48 10.667 80.833 26.334 98.5 47.001s26.5 45 26.5 73v475c0 28 -9.16699 48.333 -27.5 61s-39.833 19 -64.5 19c-72 0 -127.5 -16.833 -166.5 -50.5s-58.5 -85.167 -58.5 -154.5c0 -66 14.833 -123.167 44.5 -171.5s78.834 -82.833 147.501 -103.5
c-85.333 0 -147 23.333 -185 70s-57 106.334 -57 179.001c0 78 28.667 140.167 86 186.5s126 69.5 206 69.5zM500.999 546.001l0.00195312 -201l141.5 137c59 56.667 93.667 90.667 104 102s15.5 20 15.5 26c0 10 -6.83301 16.5 -20.5 19.5s-32.834 4.5 -57.501 4.5h-30
c-50.667 0 -88.834 -5.16699 -114.501 -15.5s-38.5 -34.5 -38.5 -72.5z" />
    <glyph glyph-name="L" unicode="L" horiz-adv-x="577" 
d="M255 651l433.997 0.00195312c-74 -16 -119 -31.333 -135 -46s-24 -37 -24 -67v-477c0 -26.667 19.333 -67.667 58 -123s90.334 -104.333 155.001 -147s136.667 -64 216 -64c33.333 0 61.166 6.16699 83.499 18.5s33.5 31.166 33.5 56.499c0 20 -8 36.167 -24 48.5
l-42 31.5c8.66699 17.333 18.667 29.166 30 35.499s26.333 9.5 45 9.5c19.333 0 32.333 -10.333 39 -31s10 -41 10 -61c0 -42 -13.167 -74.667 -39.5 -98s-77.166 -35 -152.499 -35c-96.667 0 -170.167 15.167 -220.5 45.5s-104.166 72.166 -161.499 125.499
s-103.333 80 -138 80h-176c-44 0 -84 -14 -120 -42l-55 -53c30.667 64.667 76 104.334 136 119.001l136 14c41.333 8.66699 62 39.667 62 93v447c0 29.333 -10.5 52.5 -31.5 69.5s-49.5 25.5 -85.5 25.5c-86 0 -146.5 -17.667 -181.5 -53s-52.5 -86 -52.5 -152
c0 -51.333 15.833 -94.666 47.5 -129.999s65.167 -53 100.5 -53c24.667 0 49.334 8 74.001 24s43.667 47.333 57 94c0 -50 -12.5 -85.5 -37.5 -106.5s-58.167 -31.5 -99.5 -31.5c-64 0 -112 17.167 -144 51.5s-48 79.166 -48 134.499c0 83.333 27 145.333 81 186
s110.667 61 170 61z" />
    <glyph glyph-name="M" unicode="M" horiz-adv-x="974" 
d="M406 666c46 0 82 -16.8301 108 -50.4971s45.333 -74.167 58 -121.5l35.5 -130c11 -39.333 21.167 -72 30.5 -98l39 129c27.333 75.333 62.166 139.333 104.499 192s94.833 79 157.5 79c29.333 0 52.833 -5.66699 70.5 -17s30.834 -26.333 39.501 -45
c-13.333 14.667 -28.666 25.5 -45.999 32.5s-35.666 10.5 -54.999 10.5c-41.333 0 -73.666 -19.333 -96.999 -58s-35 -81 -35 -127c0 -56.667 16.167 -133.334 48.5 -230.001s78.666 -188 138.999 -274s130.833 -145.333 211.5 -178h-93c-117.333 0 -205 47.667 -263 143
s-96.667 207 -116 335l-14 168c-18 -35.333 -39.333 -96.333 -64 -183s-42.334 -154.334 -53.001 -203.001c-14.667 25.333 -30.834 61.166 -48.501 107.499s-37.667 102.333 -60 168l-47.5 138.5c0 -58 -12.667 -141.833 -38 -251.5s-62 -207.834 -110 -294.501
s-104.667 -130 -170 -130c-40.667 0 -75.667 19 -105 57s-44 83 -44 135c17.333 -21.333 39.833 -39.166 67.5 -53.499s57.5 -21.5 89.5 -21.5c70 0 126.167 36.667 168.5 110s72.166 155 89.499 245s26 160.667 26 212c0 64.667 -6.66699 110 -20 136
s-42.666 39 -87.999 39c-82 0 -147 -21 -195 -63s-72 -99 -72 -171c0 -53.333 10.333 -100 31 -140l69 -93c0 -8.66699 -7.16699 -16.334 -21.5 -23.001s-26.5 -10 -36.5 -10c-20.667 16.667 -41.167 40 -61.5 70s-30.5 79 -30.5 147
c0 102.667 34.833 180.334 104.5 233.001s168.5 79 296.5 79z" />
    <glyph glyph-name="N" unicode="N" horiz-adv-x="822" 
d="M314 659c72.667 0 120.329 -13.333 142.996 -40s54.667 -69.334 96 -128.001l183 -383v434c0 29.333 -9.66699 52.166 -29 68.499s-42.333 29.833 -69 40.5h252c-49.333 -10.667 -82.666 -25 -99.999 -43s-26 -40 -26 -66v-487
c47.333 -106.667 89.333 -176.834 126 -210.501s83.667 -50.5 141 -50.5c16.667 0 36.834 5.5 60.501 16.5s45.167 24.833 64.5 41.5c-18 -25.333 -38.667 -45.5 -62 -60.5s-58 -22.5 -104 -22.5c-98 0 -178.667 43.833 -242 131.5s-132.666 211.834 -207.999 372.501
s-134.333 260.334 -177 299.001v-510c0 -26.667 9.5 -48.5 28.5 -65.5s42.833 -31.5 71.5 -43.5h-250c48.667 10.667 81.167 24.5 97.5 41.5s24.5 39.5 24.5 67.5v533c-14.667 14.667 -28.5 24.834 -41.5 30.501s-31.5 8.5 -55.5 8.5c-64.667 0 -111.5 -18.5 -140.5 -55.5
s-43.5 -84.167 -43.5 -141.5c0 -70 15 -124.167 45 -162.5s72.333 -70.5 127 -96.5c-75.333 0 -131.166 22 -167.499 66s-54.5 98 -54.5 162c0 90 26.667 154.667 80 194s130 59 230 59z" />
    <glyph glyph-name="O" unicode="O" horiz-adv-x="882" 
d="M450 667c134 0 235.667 -33.332 305 -99.999s104 -163 104 -289c0 -143.333 -36.5 -252.833 -109.5 -328.5s-175.5 -113.5 -307.5 -113.5c-133.333 0 -234.833 34.167 -304.5 102.5s-104.5 162.166 -104.5 281.499c0 57.333 10.667 119.5 32 186.5s63 127.167 125 180.5
s148.667 80 260 80zM158 337.001c0 -142.667 26.834 -256.167 80.501 -340.5s138.167 -126.5 253.5 -126.5c92 0 156 25.667 192 77s54 123 54 215c0 82 -8.5 157.333 -25.5 226s-49.833 127 -98.5 175s-116.334 72 -203.001 72c-76 0 -137.167 -22.5 -183.5 -67.5
s-69.5 -121.833 -69.5 -230.5z" />
    <glyph glyph-name="P" unicode="P" horiz-adv-x="842" 
d="M466 672l-0.00195312 -17.9951c7.33301 0.666992 13.666 1 18.999 1c42 0 88.667 -6.16699 140 -18.5s98.333 -38.833 141 -79.5s64 -100.334 64 -179.001c0 -70.667 -19.667 -123.667 -59 -159s-89 -53 -149 -53c-37.333 0 -67.166 7.16699 -89.499 21.5
s-33.5 29.166 -33.5 44.499c30 -22.667 49.5 -35.834 58.5 -39.501s23.833 -5.5 44.5 -5.5c36.667 0 68 15.833 94 47.5s39 82.167 39 151.5c0 95.333 -28.667 159 -86 191s-119.333 48 -186 48v-547c0 -40.667 22.5 -73.834 67.5 -99.501s67.5 -51.5 67.5 -77.5
c0 -6.66699 -0.333008 -11.667 -1 -15c-14 28 -34.667 46.167 -62 54.5s-62.666 12.5 -105.999 12.5c-84.667 0 -151.667 -21 -201 -63s-74 -85 -74 -129c0 -16 2.5 -27.833 7.5 -35.5s21.167 -20.834 48.5 -39.501c-7.33301 -0.666992 -13 -1 -17 -1
c-22 0 -42.167 4.66699 -60.5 14s-27.5 27.333 -27.5 54c0 34.667 20 72.667 60 114l112 103c40.667 40.667 61 76.667 61 108v313c0 30 6.33301 70.5 19 121.5s34.334 88.5 65.001 112.5c-144 0 -241.333 -18.667 -292 -56s-76 -85.333 -76 -144c0 -68 18 -125.5 54 -172.5
s89.667 -86.5 161 -118.5c-86 0 -151.667 22 -197 66s-68 105 -68 183c0 93.333 39.167 161.833 117.5 205.5s186.5 65.5 324.5 65.5z" />
    <glyph glyph-name="Q" unicode="Q" horiz-adv-x="909" 
d="M441 666c132.667 0 234.164 -34.1699 304.497 -102.503s105.5 -163.833 105.5 -286.5c0 -90 -16.667 -167.333 -50 -232l-109 -144l26 -48c24 -36.667 55.167 -68.667 93.5 -96s84.5 -41 138.5 -41c34.667 0 60.334 4.66699 77.001 14s35 27.333 55 54
c0 -27.333 -17.667 -51.166 -53 -71.499s-78.666 -30.5 -129.999 -30.5c-69.333 0 -124.5 17.167 -165.5 51.5s-79.833 78.833 -116.5 133.5c-18.667 -9.33301 -45.167 -17.166 -79.5 -23.499s-69.166 -9.5 -104.499 -9.5c-140 0 -243.5 35.333 -310.5 106
s-100.5 163.334 -100.5 278.001c0 150 38.5 262.167 115.5 336.5s178.167 111.5 303.5 111.5zM145.997 335.997c0 -152 30.334 -268.668 91.001 -350.001s134.334 -122 221.001 -122c20.667 0 44.167 2.16699 70.5 6.5s51.166 11.5 74.499 21.5
c-29.333 63.333 -65.666 119.833 -108.999 169.5s-86 74.5 -128 74.5c-22.667 0 -40.167 -3.5 -52.5 -10.5s-23.833 -16.833 -34.5 -29.5c3.33301 26.667 15.666 45.334 36.999 56.001s46.333 16 75 16c60.667 0 114.167 -22.5 160.5 -67.5s84.5 -99.167 114.5 -162.5
c22.667 23.333 38.334 55 47.001 95s13 82.333 13 127c0 73.333 -8.83301 145.5 -26.5 216.5s-50.334 131.667 -98.001 182s-112.834 75.5 -195.501 75.5c-84 0 -148.333 -21.667 -193 -65s-67 -121 -67 -233z" />
    <glyph glyph-name="R" unicode="R" horiz-adv-x="920" 
d="M897 445c0 -66.667 -25.9971 -119.167 -77.9971 -157.5s-117.333 -57.5 -196 -57.5l105 -177.5c44.667 -73.667 105.667 -149 183 -226s155.666 -115.5 234.999 -115.5c40.667 0 82.667 12 126 36s74.333 45.333 93 64c-30 -44 -66.667 -78.5 -110 -103.5
s-101.666 -37.5 -174.999 -37.5c-90.667 0 -171.834 28.5 -243.501 85.5s-132.334 125.667 -182.001 206s-99.834 174.833 -150.501 283.5c88 0 154.5 10.667 199.5 32s67.5 66 67.5 134c0 74.667 -21.167 128.5 -63.5 161.5s-123.833 49.5 -244.5 49.5v-560
c0 -23.333 6.83301 -44.333 20.5 -63s37.167 -34.334 70.5 -47.001h-341c38.667 7.33301 69.167 21.333 91.5 42s33.5 46 33.5 76v324c0 38.667 7.33301 81 22 127s34 79.667 58 101c-144.667 0 -241.5 -17.333 -290.5 -52s-73.5 -82 -73.5 -142
c0 -58 15.833 -110 47.5 -156s85.834 -85 162.501 -117c-83.333 0 -147.5 22.833 -192.5 68.5s-67.5 102.5 -67.5 170.5c0 86 33.667 150.667 101 194s182 65 344 65l16 15v-16c159.333 0 271.166 -14.667 335.499 -44s96.5 -83.666 96.5 -162.999z" />
    <glyph glyph-name="S" unicode="S" horiz-adv-x="790" 
d="M279 651l331 0.00488281c0 -24 14.167 -62 42.5 -114s43.833 -83.667 46.5 -95c-59.333 66 -116.833 113.167 -172.5 141.5s-125.5 42.5 -209.5 42.5c-62 0 -107.833 -12.667 -137.5 -38s-44.5 -57.333 -44.5 -96c0 -68 51.667 -114.333 155 -139l305 -71
c108 -41.333 162 -114.333 162 -219c0 -82.667 -26.333 -152.834 -79 -210.501s-141 -86.5 -265 -86.5c-70.667 0 -135.167 6.66699 -193.5 20s-108.833 41.666 -151.5 84.999s-64 107 -64 191c0 33.333 3.66699 61.666 11 84.999s23 41.666 47 54.999
c-10.667 -12 -17.5 -25.5 -20.5 -40.5s-4.5 -33.167 -4.5 -54.5c0 -80 40.833 -145.5 122.5 -196.5s185.5 -76.5 311.5 -76.5c78.667 0 136.167 14 172.5 42s54.5 71 54.5 129c0 85.333 -52.667 144 -158 176l-294 68c-106 36.667 -159 103.667 -159 201
c0 55.333 19 102.666 57 141.999s83 59 135 59z" />
    <glyph glyph-name="T" unicode="T" horiz-adv-x="750" 
d="M996 669c-40.667 -43.333 -84.001 -73.6689 -130.001 -91.002s-100.667 -26 -164 -26h-291c13.333 0 42.833 -11.167 88.5 -33.5s89.5 -61.666 131.5 -117.999s63 -132.166 63 -227.499c0 -128.667 -35.833 -225.334 -107.5 -290.001s-160.5 -97 -266.5 -97
c-98 0 -171.167 29.833 -219.5 89.5s-72.5 122.167 -72.5 187.5c0 71.333 19.167 131.5 57.5 180.5s94.166 73.5 167.499 73.5c48.667 0 90.167 -16.167 124.5 -48.5s51.5 -73.166 51.5 -122.499c0 -33.333 -11 -62 -33 -86s-45 -39.667 -69 -47
c12.667 21.333 22.334 41 29.001 59s10 40 10 66c0 49.333 -12 86.833 -36 112.5s-55 38.5 -93 38.5c-36.667 0 -73.667 -17.833 -111 -53.5s-56 -84.834 -56 -147.501c0 -75.333 24 -139 72 -191s109.667 -78 185 -78c79.333 0 138.333 33 177 99s58 141.667 58 227
c0 135.333 -28.333 236.666 -85 303.999s-128.334 101 -215.001 101c-71.333 0 -124.666 -15.667 -159.999 -47s-68.666 -79.666 -99.999 -144.999c0 92 34.167 163.667 102.5 215s148.5 77 240.5 77h100h79h63h50h39h31h23h19h15h11h24c6 0 10.333 0.333008 13 1
c20 0 48.167 1.83301 84.5 5.5s69.5 7.83398 99.5 12.501z" />
    <glyph glyph-name="U" unicode="U" horiz-adv-x="922" 
d="M356 651l234 0.00195312c-80 -84 -137.5 -161 -172.5 -231s-52.5 -144 -52.5 -222c0 -101.333 17.333 -165.5 52 -192.5s84.667 -40.5 150 -40.5c40.667 0 79.167 13.333 115.5 40s54.5 57.667 54.5 93v494c0 18.667 -4 31.5 -12 38.5s-21 13.833 -39 20.5h193
c18 0 35 -5 51 -15s28.667 -23 38 -39l-31.5 19c-11 6.66699 -21.833 10 -32.5 10c-7.33301 0 -16.166 -3.83301 -26.499 -11.5s-15.5 -20.834 -15.5 -39.501v-510c0 -21.333 8 -42.333 24 -63s40.333 -37 73 -49h-222v51c-24.667 -34.667 -59.334 -68.167 -104.001 -100.5
s-95 -48.5 -151 -48.5c-91.333 0 -155.5 27 -192.5 81s-55.5 127.667 -55.5 221c0 75.333 14 143 42 203s60.833 110.833 98.5 152.5s76.167 77.834 115.5 108.501h-176c-84 0 -146.833 -20.833 -188.5 -62.5s-62.5 -94.834 -62.5 -159.501
c0 -44 9.16699 -84.833 27.5 -122.5s46.833 -66.5 85.5 -86.5c-52 6 -93.667 28.167 -125 66.5s-47 83.166 -47 134.499c0 62 27.333 120.833 82 176.5s144.667 83.5 270 83.5z" />
    <glyph glyph-name="V" unicode="V" horiz-adv-x="960" 
d="M303 651l250.998 -0.00195312c-34 -34 -63.833 -84.667 -89.5 -152s-38.5 -147.666 -38.5 -240.999c0 -106.667 16 -200.5 48 -281.5s75 -121.5 129 -121.5c12.667 0 35.167 14.5 67.5 43.5s62.166 73.167 89.499 132.5s41 132.333 41 219
c0 60.667 -14.167 116.167 -42.5 166.5s-63.166 75.5 -104.499 75.5c-7.33301 0 -15.166 -3.66699 -23.499 -11s-18.5 -17.666 -30.5 -30.999c6 38 22.667 75.5 50 112.5s53.666 55.5 78.999 55.5c34 0 75.833 -32.5 125.5 -97.5s74.5 -138.167 74.5 -219.5
c0 -91.333 -40.5 -193.5 -121.5 -306.5s-162.833 -169.5 -245.5 -169.5c-89.333 0 -155.333 38.833 -198 116.5s-64 169.5 -64 275.5c0 79.333 14 152 42 218s64 128.333 108 187h-134c-74 0 -136.333 -18.5 -187 -55.5s-76 -86.5 -76 -148.5c0 -46 13.333 -93.667 40 -143
s74.334 -93.666 143.001 -132.999c-67.333 0 -123.166 21.833 -167.499 65.5s-66.5 99.5 -66.5 167.5c0 87.333 30.5 155.166 91.5 203.499s130.833 72.5 209.5 72.5z" />
    <glyph glyph-name="W" unicode="W" horiz-adv-x="1134" 
d="M270 651l259.001 -0.000976562c-16 -2 -37.833 -6.83301 -65.5 -14.5s-41.5 -19.834 -41.5 -36.501c0 -2 0.666992 -5 2 -9l189 -481c8 20 17.5 45.5 28.5 76.5l44 126l39.5 114.5c-26.667 69.333 -46.167 117.333 -58.5 144s-41.166 53.334 -86.499 80.001h307
c-62.667 -19.333 -94 -39.333 -94 -60c0 -5.33301 1 -11 3 -17l183 -464l85 257.5c21.333 65.667 33.333 104.834 36 117.501s4 23.334 4 32.001c0 35.333 -13.333 63.5 -40 84.5s-59.667 37.5 -99 49.5h367c-47.333 -8.66699 -87.5 -27.167 -120.5 -55.5
s-54.833 -55.5 -65.5 -81.5l-210 -631l-194 504l-172 -504c-3.33301 10.667 -22.5 60.834 -57.5 150.501l-92 236l-76.5 196.5c-24.667 63.333 -44.834 105.166 -60.501 125.499s-34.834 30.5 -57.501 30.5c-42 0 -79.833 -16.5 -113.5 -49.5s-50.5 -81.833 -50.5 -146.5
c0 -50.667 13.5 -98.834 40.5 -144.501s64.167 -68.5 111.5 -68.5c26 0 50.167 10.167 72.5 30.5s33.5 42.833 33.5 67.5c0 12.667 -3.33301 24.667 -10 36c16 -12 24 -28.333 24 -49c0 -26.667 -12.667 -51.334 -38 -74.001s-58.666 -34 -99.999 -34
c-40.667 0 -82.834 16.333 -126.501 49s-65.5 84 -65.5 154c0 84.667 26.167 148.834 78.5 192.501s114.833 65.5 187.5 65.5z" />
    <glyph glyph-name="X" unicode="X" horiz-adv-x="810" 
d="M314 662c85.333 0 151.836 -24.499 199.503 -73.499s77.167 -96.5 88.5 -142.5l95 155c-6.66699 15.333 -11.334 25.166 -14.001 29.499s-15 11.166 -37 20.499h251c-85.333 -14 -140.833 -36.333 -166.5 -67s-65.167 -87 -118.5 -169c47.333 -188 112.333 -332 195 -432
s169 -150 259 -150c39.333 0 72.166 8 98.499 24s49.166 35 68.499 57c-22 -38.667 -50.5 -67.167 -85.5 -85.5s-81.833 -27.5 -140.5 -27.5c-106 0 -194.167 32 -264.5 96s-122 130.833 -155 200.5s-57.5 132.5 -73.5 188.5l-91 -137.5
c-18.667 -29 -34.334 -56.5 -47.001 -82.5s-19 -48.333 -19 -67c0 -12.667 5.5 -22.834 16.5 -30.501l26.5 -18.5h-220c41.333 16 77.5 39.167 108.5 69.5s65 73.5 102 129.5l111.5 170c-25.333 82.667 -46.166 143.334 -62.499 182.001s-40 71 -71 97s-71.833 39 -122.5 39
c-66 0 -113 -24.333 -141 -73s-42 -108 -42 -178c0 -55.333 9.33301 -98.666 28 -129.999s51 -60.333 97 -87c-66 0 -113.167 21 -141.5 63s-42.5 90.667 -42.5 146c0 76.667 23.5 143.167 70.5 199.5s126.833 84.5 239.5 84.5z" />
    <glyph glyph-name="Y" unicode="Y" horiz-adv-x="419" 
d="M676 682c60.667 0 108.669 -21.832 144.002 -65.499s53 -97.167 53 -160.5c-30 68.667 -59.167 113.5 -87.5 134.5s-67.5 31.5 -117.5 31.5c-72 0 -129.667 -22.667 -173 -68s-74.333 -96.833 -93 -154.5s-28 -103.5 -28 -137.5v-192
c0 -22.667 9.16699 -45.334 27.5 -68.001s45.5 -39 81.5 -49h-293c30 12 52.833 26.167 68.5 42.5s23.5 38.5 23.5 66.5v217c0 22.667 -13.5 59.667 -40.5 111s-67.333 102 -121 152s-119.834 86.333 -198.501 109h319c-17.333 -6.66699 -32 -13.667 -44 -21
s-18 -17 -18 -29c0 -0.666992 14 -18 42 -52s54 -69.167 78 -105.5s38.333 -67.5 43 -93.5c17.333 80 54.666 155.333 111.999 226s131.333 106 222 106z" />
    <glyph glyph-name="Z" unicode="Z" horiz-adv-x="784" 
d="M756 663l-349.998 -304.996c89.333 0 171.166 -28.333 245.499 -85s111.5 -138.334 111.5 -245.001c0 -35.333 -11.167 -81 -33.5 -137s-66.166 -107.5 -131.499 -154.5s-158.666 -70.5 -279.999 -70.5c-96.667 0 -171.167 24.167 -223.5 72.5s-78.5 114.5 -78.5 198.5
c0 77.333 24.333 138.5 73 183.5s110 67.5 184 67.5c73.333 0 130.833 -20.167 172.5 -60.5s62.5 -87.833 62.5 -142.5c0 -22 -4 -43.667 -12 -65c0 57.333 -26.667 110.666 -80 159.999s-112.666 74 -177.999 74c-56.667 0 -97.334 -16.667 -122.001 -50
s-37 -75.333 -37 -126c0 -86.667 23.667 -154.334 71 -203.001s108.666 -73 183.999 -73c88 0 159.667 33.833 215 101.5s83 148.167 83 241.5c0 77.333 -24 139.666 -72 186.999s-109.667 71 -185 71c-38.667 0 -78 -6.33301 -118 -19l305 268h-344
c-32.667 0 -69.667 -7.33301 -111 -22l-65 -28c20 31.333 53 64 99 98s96 51 150 51h367c7.33301 -0.666992 13.333 -1 18 -1c13.333 0 26.166 0.833008 38.499 2.5s26.166 5.16699 41.499 10.5z" />
    <glyph glyph-name="bracketleft" unicode="[" horiz-adv-x="262" 
d="M37 495h193v-25h-68v-610h68v-25h-193v660z" />
    <glyph glyph-name="backslash" unicode="\" horiz-adv-x="454" 
d="M46 562h42l325 -660h-42z" />
    <glyph glyph-name="bracketright" unicode="]" horiz-adv-x="272" 
d="M37 495h193v-660h-193v25h67v610h-67v25z" />
    <glyph glyph-name="asciicircum" unicode="^" horiz-adv-x="397" 
d="M200 342l168.001 -173h-46l-117 117h-11l-118 -117h-46l77.5 80c50.333 52 81.166 83 92.499 93z" />
    <glyph glyph-name="underscore" unicode="_" horiz-adv-x="454" 
d="M-2 -40h460v-25h-460v25z" />
    <glyph glyph-name="grave" unicode="`" horiz-adv-x="202" 
d="M170 466c-10 0 -37.833 16 -83.5 48s-68.5 60 -68.5 84c0 10.667 7 16 21 16c23.333 0 53 -24.667 89 -74z" />
    <glyph glyph-name="a" unicode="a" horiz-adv-x="462" 
d="M383 428l0.000976562 -370.001c0.666992 -8.66699 5 -13 13 -13c6 0 13.167 2.16699 21.5 6.5s21.833 11.833 40.5 22.5c-8.66699 -18 -23.167 -35.667 -43.5 -53s-39.833 -26 -58.5 -26c-10.667 0 -24.5 7.33301 -41.5 22s-25.5 34.334 -25.5 59.001v54
c-40.667 -40.667 -75 -73.334 -103 -98.001s-52.333 -37 -73 -37c-22.667 0 -42.834 13.333 -60.501 40s-26.5 62.334 -26.5 107.001c0 90.667 25 161 75 211s115 75 195 75h87zM122.001 217.999c0 -32.667 5.33203 -56.668 15.999 -72.001s25.334 -23 44.001 -23
c16 0 33.167 4.83301 51.5 14.5s36.833 22.834 55.5 39.501v223c-50 0 -90.333 -18.5 -121 -55.5s-46 -79.167 -46 -126.5z" />
    <glyph glyph-name="b" unicode="b" horiz-adv-x="370" 
d="M118 264c33.333 55.333 65 96.5 95 123.5s55.667 40.5 77 40.5c24 0 39.833 -6.5 47.5 -19.5s11.5 -36.833 11.5 -71.5v-122c0 -68.667 -18.833 -122.5 -56.5 -161.5s-83.5 -58.5 -137.5 -58.5c-40 0 -72.167 13.333 -96.5 40s-36.5 73 -36.5 139v320
c0 48.667 12.833 89.667 38.5 123s59.5 50 101.5 50h90c-21.333 -38.667 -49 -59.167 -83 -61.5s-51 -8.5 -51 -18.5v-323zM118 126c0 -58.667 21.333 -87.999 64 -87.999c18 0 34.167 9.16699 48.5 27.5s21.5 49.166 21.5 92.499v128c0 14 -1.33301 24.833 -4 32.5
s-11 11.5 -25 11.5c-22 0 -45 -16.333 -69 -49s-36 -55.667 -36 -69v-86z" />
    <glyph glyph-name="c" unicode="c" horiz-adv-x="394" 
d="M254 431c26 0 53.334 -8.50195 82.001 -25.502s43 -37.833 43 -62.5c0 -6.66699 -8.66699 -19 -26 -37s-32.333 -30.667 -45 -38c-6 30 -21.333 54.333 -46 73s-50 28 -76 28c-24.667 0 -44.834 -13.5 -60.501 -40.5s-23.5 -58.5 -23.5 -94.5
c0 -64 14.833 -109.167 44.5 -135.5s63.5 -39.5 101.5 -39.5c16 0 33.333 4.5 52 13.5s38 20.167 58 33.5c-26.667 -40.667 -53.167 -69.167 -79.5 -85.5s-62.833 -24.5 -109.5 -24.5c-64.667 0 -106 17.333 -124 52s-27 77.334 -27 128.001c0 76.667 22 138.334 66 185.001
s100.667 70 170 70z" />
    <glyph glyph-name="d" unicode="d" horiz-adv-x="458" 
d="M383 58c0.666992 -8.66699 5.00293 -13 13.0029 -13c6 0 13.167 2.16699 21.5 6.5s21.833 11.833 40.5 22.5c-8 -17.333 -22.333 -34.5 -43 -51.5s-40.334 -26.5 -59.001 -28.5c-10.667 0 -24.5 7.66699 -41.5 23s-25.5 35 -25.5 59v54
c-40 -40 -74.167 -72.667 -102.5 -98s-52.833 -38 -73.5 -38c-22.667 0 -42.834 13.5 -60.501 40.5s-26.5 62.833 -26.5 107.5c0 90.667 24.667 161 74 211s112.333 75 189 75v68c0 48 12.667 88.5 38 121.5s59.666 49.5 102.999 49.5h89
c-21.333 -38.667 -49.333 -59.167 -84 -61.5s-52 -8.5 -52 -18.5v-529zM122.003 218c0 -32.667 5.33203 -56.668 15.999 -72.001s25.334 -23 44.001 -23c16 0 33.167 4.83301 51.5 14.5s36.833 22.834 55.5 39.501v223c-50 0 -90.333 -18.5 -121 -55.5
s-46 -79.167 -46 -126.5z" />
    <glyph glyph-name="e" unicode="e" horiz-adv-x="414" 
d="M256 432c26 0 47.498 -4.66797 64.498 -14.001s40.167 -28.666 69.5 -57.999l-243 -243c13.333 -22 29.833 -36.167 49.5 -42.5s41.834 -9.5 66.501 -9.5s47.834 5.66699 69.501 17s41.167 23.333 58.5 36c-26.667 -40.667 -56 -71.167 -88 -91.5
s-68.667 -30.5 -110 -30.5c-59.333 0 -101.333 19 -126 57s-37 79 -37 123c0 77.333 21.667 139.333 65 186s97 70 161 70zM137.998 139.999l69.999 68c35.333 38 53 66.667 53 86c0 23.333 -5.66699 41.5 -17 54.5s-26.333 19.5 -45 19.5
c-23.333 0 -41.666 -13.833 -54.999 -41.5s-20 -60.5 -20 -98.5c0 -16 1 -31.167 3 -45.5s5.66699 -28.5 11 -42.5z" />
    <glyph glyph-name="f" unicode="f" horiz-adv-x="285" 
d="M283 450c-13.333 -30.667 -29.167 -51.6641 -47.5 -62.9971s-43.833 -17 -76.5 -17v-417c0 -100.667 -18.167 -173.667 -54.5 -219s-78.5 -68 -126.5 -68h-106c13.333 43.333 49 65.666 107 66.999s87 25 87 71v566h-69l53 59h17v49c0 51.333 12.833 95.666 38.5 132.999
s59.5 56 101.5 56h192c-16.667 -28.667 -38.167 -46.667 -64.5 -54s-59.5 -11 -99.5 -11c-32.667 0 -53.5 -0.833008 -62.5 -2.5s-13.5 -8.83398 -13.5 -21.501v-149c76 0 117.333 7 124 21z" />
    <glyph glyph-name="g" unicode="g" horiz-adv-x="410" 
d="M383 -51c0 -79.333 -23.834 -146.669 -71.501 -202.002s-101.834 -83 -162.501 -83c-44.667 0 -75.834 13.333 -93.501 40s-26.5 61 -26.5 103c0 28.667 4.83301 57.334 14.5 86.001s32.834 64.334 69.501 107.001c-23.333 0 -43.666 12.5 -60.999 37.5
s-26 59.833 -26 104.5c0 86.667 28.833 156 86.5 208s118.834 78 183.501 78l87 1v-480zM288.999 129.997l-143.001 -142.001c-38 -53.333 -57 -106.666 -57 -159.999c0 -38 8.33301 -65 25 -81s39.334 -24 68.001 -24c32 0 57.833 14.667 77.5 44s29.5 64.333 29.5 105v258
zM121.998 217.996c0 -32.667 5.33203 -56.668 15.999 -72.001s25.334 -23 44.001 -23c16 0 33.167 4.83301 51.5 14.5s36.833 22.834 55.5 39.501v223c-50 0 -90.333 -18.5 -121 -55.5s-46 -79.167 -46 -126.5z" />
    <glyph glyph-name="h" unicode="h" horiz-adv-x="430" 
d="M349 337l-1 -279.001c0.666992 -8.66699 4.66699 -13 12 -13c10 0 29 9.66699 57 29c-9.33301 -20 -23.166 -38 -41.499 -54s-38.833 -24 -61.5 -24s-38.667 7.16699 -48 21.5s-14 31.833 -14 52.5v216c0 14 -1.33301 24.833 -4 32.5s-11 11.5 -25 11.5
c-22 0 -45 -16.333 -69 -49s-36 -55.667 -36 -69v-118c0 -25.333 -9.33301 -48 -28 -68s-41.667 -30 -69 -30v498c0 48 13 88.833 39 122.5s60 50.5 102 50.5h90c-21.333 -38.667 -49 -59.167 -83 -61.5s-51 -8.5 -51 -18.5v-323c33.333 56 65.166 97.667 95.499 125
s55.833 41 76.5 41c24 0 39.833 -6.66699 47.5 -20s11.5 -37.666 11.5 -72.999z" />
    <glyph glyph-name="i" unicode="i" horiz-adv-x="261" 
d="M135 651c16.667 0 30.667 -6.00098 42 -18.001s17 -28.333 17 -49c0 -23.333 -10 -41.666 -30 -54.999s-38 -20 -54 -20c-14 0 -24.5 7.5 -31.5 22.5s-10.5 32.5 -10.5 52.5c0 25.333 6 42.833 18 52.5s28.333 14.5 49 14.5zM122 432.999c20.667 0 35.168 -8 43.501 -24
s12.5 -35 12.5 -57v-281c2.66699 -18.667 9.66699 -28 21 -28c8 0 17.333 4.33301 28 13l21 17c-16 -27.333 -32.167 -47.333 -48.5 -60s-34.833 -19 -55.5 -19c-17.333 0 -31.333 7.33301 -42 22s-16 32 -16 52v295c0 12.667 -4.66699 19 -14 19
c-12.667 0 -32.334 -11.333 -59.001 -34c3.33301 12.667 17 30 41 52s46.667 33 68 33z" />
    <glyph glyph-name="j" unicode="j" horiz-adv-x="196" 
d="M113 435c25.333 0 40.834 -9.00098 46.501 -27.001s9.16699 -36.667 10.5 -56v-399c0 -75.333 -25.833 -142.333 -77.5 -201s-103.834 -88 -156.501 -88c-50.667 0 -85 21.833 -103 65.5s-27 99.834 -27 168.501c18 -52.667 42 -93.667 72 -123s68.667 -44 116 -44
c36 0 59 16.333 69 49s15 74.667 15 126v458c0 13.333 -5 20 -15 20c-10.667 0 -28 -7.66699 -52 -23c11.333 16.667 25 33.167 41 49.5s36.333 24.5 61 24.5zM119.001 650.999c16.667 0 30.667 -6.00098 42 -18.001s17 -28.333 17 -49c0 -23.333 -10 -41.666 -30 -54.999
s-38 -20 -54 -20c-14 0 -24.5 7.5 -31.5 22.5s-10.5 32.5 -10.5 52.5c0 25.333 6 42.833 18 52.5s28.333 14.5 49 14.5z" />
    <glyph glyph-name="k" unicode="k" horiz-adv-x="428" 
d="M118 269c42 46.667 79.666 85 112.999 115s65.333 45 96 45h92c-44.667 -13.333 -90.5 -34 -137.5 -62s-85.833 -56 -116.5 -84c46.667 -8.66699 85 -47.667 115 -117s61 -104 93 -104c6.66699 0 14.5 1.83301 23.5 5.5s20.167 10.167 33.5 19.5
c-9.33301 -20.667 -25.166 -41 -47.499 -61s-44.5 -30 -66.5 -30c-32 0 -63.5 35.667 -94.5 107s-65.5 109 -103.5 113v-122c0 -25.333 -9.33301 -48 -28 -68s-41.667 -30 -69 -30v498c0 48 13 88.833 39 122.5s60 50.5 102 50.5h90c-21.333 -38.667 -49 -59.167 -83 -61.5
s-51 -8.5 -51 -18.5v-318z" />
    <glyph glyph-name="l" unicode="l" horiz-adv-x="220" 
d="M20 494c0 48 13.168 88.833 39.501 122.5s60.5 50.5 102.5 50.5h90c-21.333 -38.667 -49 -59.167 -83 -61.5s-51 -8.5 -51 -18.5v-509c0 -12 4.66699 -18 14 -18c8 0 18.833 4.5 32.5 13.5s28.834 20.833 45.501 35.5c-16.667 -30.667 -37.834 -57.5 -63.501 -80.5
s-48.834 -34.5 -69.501 -34.5c-20 0 -34.5 7.5 -43.5 22.5s-13.5 35.5 -13.5 61.5v416z" />
    <glyph glyph-name="m" unicode="m" horiz-adv-x="681" 
d="M275 -6v291.998c0 15.333 -1.66699 27.5 -5 36.5s-12.666 13.5 -27.999 13.5c-16.667 0 -38.667 -17.5 -66 -52.5s-41 -55.5 -41 -61.5v-170c-3.33301 -14 -14.833 -27.167 -34.5 -39.5s-39.167 -18.5 -58.5 -18.5v342c0 10.667 -4 16 -12 16c-10 0 -29 -9 -57 -27
c25.333 32 48.5 57.167 69.5 75.5s37.5 27.5 49.5 27.5c18.667 0 30.5 -10.167 35.5 -30.5s7.5 -51.833 7.5 -94.5v-37c26 40.667 53.5 77.834 82.5 111.501s59.5 50.5 91.5 50.5c24.667 0 41 -8.33301 49 -25s12 -41.667 12 -75c0 -10 -0.166992 -19.833 -0.5 -29.5
s-0.5 -19.5 -0.5 -29.5c24.667 35.333 52.167 70.666 82.5 105.999s60.833 53 91.5 53c21.333 0 36.5 -5.66699 45.5 -17s13.5 -30.666 13.5 -57.999v-288c0 -16 5 -24 15 -24c11.333 0 28.666 10.667 51.999 32c-8 -22 -21 -40.667 -39 -56s-38.667 -23 -62 -23
c-38.667 0 -58 25 -58 75v217c0 17.333 -2.66699 30 -8 38s-14 12 -26 12c-15.333 0 -37 -17.667 -65 -53s-42 -55.666 -42 -60.999v-170c-3.33301 -14 -14.5 -27.167 -33.5 -39.5s-39.167 -18.5 -60.5 -18.5z" />
    <glyph glyph-name="n" unicode="n" horiz-adv-x="446" 
d="M369 63c0 -14.667 4.99902 -22 14.999 -22c13.333 0 31.666 11 54.999 33c-13.333 -25.333 -30.166 -45 -50.499 -59s-38.5 -21 -54.5 -21c-18 0 -32.5 5.5 -43.5 16.5s-16.5 27.833 -16.5 50.5l1 225c0 15.333 -1.66699 27.5 -5 36.5s-12.666 13.5 -27.999 13.5
c-16.667 0 -38.667 -17.5 -66 -52.5s-41 -55.5 -41 -61.5v-170c-3.33301 -14 -14.833 -27.167 -34.5 -39.5s-39.167 -18.5 -58.5 -18.5v342c0 10.667 -4 16 -12 16c-10 0 -29 -9 -57 -27c25.333 32 48.5 57.167 69.5 75.5s37.5 27.5 49.5 27.5
c18.667 0 30.5 -10.167 35.5 -30.5s7.5 -51.833 7.5 -94.5v-37c26 40.667 53.5 77.834 82.5 111.501s59.5 50.5 91.5 50.5c24.667 0 41 -8.33301 49 -25s12 -41.667 12 -75c0 -10 -0.166992 -19.833 -0.5 -29.5s-0.5 -19.5 -0.5 -29.5
c0 -19.333 -0.166992 -39.833 -0.5 -61.5s-0.5 -47.834 -0.5 -78.501v-45.5c0 -13 0.333008 -19.833 1 -20.5z" />
    <glyph glyph-name="o" unicode="o" 
d="M244 433c54.667 0 97.5 -19.668 128.5 -59.001s46.5 -88 46.5 -146c0 -61.333 -22.667 -115.666 -68 -162.999s-96 -71 -152 -71c-52.667 0 -94.667 19.833 -126 59.5s-47 89.5 -47 149.5s22 113.333 66 160s94.667 70 152 70zM114 261.999
c0 -54.667 7.16602 -105 21.499 -151s46.5 -69 96.5 -69c28.667 0 52 12 70 36s27 54.667 27 92c0 54 -9 103.5 -27 148.5s-48.667 67.5 -92 67.5c-29.333 0 -52.666 -11.667 -69.999 -35s-26 -53 -26 -89z" />
    <glyph glyph-name="p" unicode="p" horiz-adv-x="434" 
d="M115 434c12 0 19.4961 -5.33691 22.4961 -16.0039s4.5 -40.667 4.5 -90l55 67c26 26 55.333 39 88 39c22.667 0 49 -18.167 79 -54.5s45 -86.833 45 -151.5c0 -66 -26.5 -121.333 -79.5 -166s-96.167 -67 -129.5 -67c-8.66699 0 -18.5 3.83301 -29.5 11.5
s-20.5 14.834 -28.5 21.501v-218c0 -24.667 11.333 -48 34 -70s35.667 -36.333 39 -43c-31.333 16 -52.166 25.667 -62.499 29s-22.166 5 -35.499 5c-19.333 0 -34.833 -2.66699 -46.5 -8s-42.5 -24.333 -92.5 -57c2.66699 8 15.334 24.333 38.001 49s34 51.334 34 80.001
v525c0 6.66699 -1.66699 11.334 -5 14.001s-8 4 -14 4c-12 0 -23.167 -2.66699 -33.5 -8s-18.166 -9.66602 -23.499 -12.999c19.333 26 41.333 52 66 78s49.667 39 75 39zM141.996 121.996c0 -18 6.83203 -34.501 20.499 -49.501s30.834 -22.5 51.501 -22.5
c30 0 53.833 16.333 71.5 49s26.5 67.334 26.5 104.001c0 49.333 -6.5 85 -19.5 107s-29.5 33 -49.5 33c-22.667 0 -45.167 -10.5 -67.5 -31.5s-33.5 -36.5 -33.5 -46.5v-143z" />
    <glyph glyph-name="q" unicode="q" horiz-adv-x="426" 
d="M383 -168c0 -11.333 9.50293 -26.167 28.5029 -44.5s33.833 -36.833 44.5 -55.5c-14.667 14 -28.834 23 -42.501 27s-30.834 6 -51.501 6c-24 0 -45.167 -4.66699 -63.5 -14s-42.833 -25.333 -73.5 -48c0 4.66699 10.667 20.167 32 46.5s32 45.5 32 57.5v323
c-40.667 -40.667 -75 -73.334 -103 -98.001s-52.333 -37 -73 -37c-22.667 0 -42.834 13.333 -60.501 40s-26.5 62.334 -26.5 107.001c0 90.667 25 161 75 211s115 75 195 75h87v-596zM122.003 217.999c0 -32.667 5.33203 -56.668 15.999 -72.001s25.334 -23 44.001 -23
c16 0 33.167 4.83301 51.5 14.5s36.833 22.834 55.5 39.501v223c-50 0 -90.333 -18.5 -121 -55.5s-46 -79.167 -46 -126.5z" />
    <glyph glyph-name="r" unicode="r" horiz-adv-x="402" 
d="M104 433c18.667 0 30.5 -8.83301 35.5 -26.5s7.5 -48.5 7.5 -92.5v-45l77 106c32.667 38.667 65 58 97 58c18 0 32.167 -6.5 42.5 -19.5s15.5 -28.833 15.5 -47.5c0 -22.667 -12.667 -47.834 -38 -75.501s-50.333 -53.5 -75 -77.5
c3.33301 6.66699 6.83301 17.834 10.5 33.501s5.5 29.5 5.5 41.5c0 14.667 -2.5 26.667 -7.5 36s-13.5 14 -25.5 14c-12.667 0 -28.5 -11.5 -47.5 -34.5s-37.167 -46.167 -54.5 -69.5v-187c-11.333 -10.667 -24.666 -21.5 -39.999 -32.5s-33 -17.833 -53 -20.5v331
c0 14 -6.66699 21 -20 21c-6 0 -13 -2.16699 -21 -6.5s-17 -11.5 -27 -21.5c10.667 22 29.667 46.667 57 74s47.666 41 60.999 41z" />
    <glyph glyph-name="s" unicode="s" horiz-adv-x="330" 
d="M305 436c-11.333 -18 -19.667 -36 -25 -54l-14 -49c-21.333 23.333 -41.333 39.666 -60 48.999s-40.334 14 -65.001 14s-42 -4.33301 -52 -13s-15 -20.334 -15 -35.001c0 -16.667 25 -35.5 75 -56.5s89.5 -41.833 118.5 -62.5s43.5 -53.667 43.5 -99
c0 -53.333 -16.5 -88.666 -49.5 -105.999s-74.833 -26 -125.5 -26c-51.333 0 -84 9.5 -98 28.5s-21 65.5 -21 139.5c12.667 -34.667 33.334 -66 62.001 -94s63 -42 103 -42c46 0 69 20.667 69 62c0 20 -24.333 41 -73 63s-86.667 43.333 -114 64s-41 55.334 -41 104.001
c0 42 13 71 39 87s60.667 24 104 24c11.333 0 27 -2 47 -6s31.667 -6 35 -6c10.667 0 19.667 0.833008 27 2.5s17.333 5.5 30 11.5z" />
    <glyph glyph-name="t" unicode="t" horiz-adv-x="266" 
d="M145 429l82.0029 -0.000976562c-8.66699 -19.333 -20.834 -31.166 -36.501 -35.499s-30.834 -6.83301 -45.501 -7.5v-303c0 -14.667 5.66699 -22 17 -22c9.33301 0 21.166 4.5 35.499 13.5s31.5 22.833 51.5 41.5c-18.667 -35.333 -40.667 -64.5 -66 -87.5
s-51 -34.5 -77 -34.5c-20 0 -33.833 8.16699 -41.5 24.5s-11.5 45.5 -11.5 87.5v280h-59c2 15.333 19.833 32.5 53.5 51.5s66.167 68.5 97.5 148.5v-157z" />
    <glyph glyph-name="u" unicode="u" horiz-adv-x="490" 
d="M94 434c22 0 35.668 -8.33496 41.001 -25.002s8.66602 -33.667 9.99902 -51v-188v-27c0 -20.667 2.5 -36.5 7.5 -47.5s16.5 -16.5 34.5 -16.5c16.667 0 37.334 12.833 62.001 38.5s37 48.5 37 68.5v172c0 20.667 8.83301 38.5 26.5 53.5s39.5 22.5 65.5 22.5v-356
c2 -2.66699 4.5 -5.33398 7.5 -8.00098s8.16699 -4 15.5 -4c9.33301 0 20.5 3.5 33.5 10.5s28.833 19.5 47.5 37.5c-14.667 -23.333 -36.167 -49.166 -64.5 -77.499s-55.166 -42.5 -80.499 -42.5c-18.667 0 -31.834 5.5 -39.501 16.5s-11.5 27.167 -11.5 48.5v44
c-31.333 -33.333 -60 -59.833 -86 -79.5s-53.333 -29.5 -82 -29.5c-24 0 -40.833 11.333 -50.5 34s-14.5 50.334 -14.5 83.001v232c0 12.667 -1.33301 22 -4 28s-8.33398 9 -17.001 9c-10.667 0 -25.667 -6 -45 -18c15.333 24.667 32 42.834 50 54.501s37 17.5 57 17.5z" />
    <glyph glyph-name="v" unicode="v" horiz-adv-x="472" 
d="M377 448c10.667 0 26.335 -13.499 47.002 -40.499s31 -56.833 31 -89.5c0 -16.667 -22 -61 -66 -133s-77.667 -136.667 -101 -194c-31.333 48.667 -62.833 108 -94.5 178s-54.167 115.167 -67.5 135.5s-34.666 30.5 -63.999 30.5c-4.66699 0 -16.834 -3.5 -36.501 -10.5
s-34.167 -13.5 -43.5 -19.5c13.333 22 37.166 48.5 71.499 79.5s59.5 46.5 75.5 46.5c30 0 66 -45.833 108 -137.5s72.333 -148.834 91 -171.501c9.33301 11.333 19.166 29.5 29.499 54.5s15.5 50.5 15.5 76.5s-6.5 47.5 -19.5 64.5s-33.167 34.167 -60.5 51.5
c7.33301 14 19.833 30.667 37.5 50s33.167 29 46.5 29z" />
    <glyph glyph-name="w" unicode="w" horiz-adv-x="767" 
d="M676 466c10.667 0 25.667 -11.3359 45 -34.0029s29 -44.667 29 -66c0 -13.333 -8.66699 -37.166 -26 -71.499l-84.5 -164c-39 -75 -63.5 -124.5 -73.5 -148.5l-151 304c-10.667 -30.667 -36.834 -85.667 -78.501 -165s-64.834 -124.333 -69.501 -135
c-53.333 122 -97.166 214.5 -131.499 277.5s-61.833 94.5 -82.5 94.5c-9.33301 0 -20.5 -2.33301 -33.5 -7s-28.167 -13 -45.5 -25c14 22.667 35 46.167 63 70.5s54.667 36.5 80 36.5c26.667 0 62.667 -47.667 108 -143s73.333 -152.333 84 -171
c4.66699 6 19.834 36.667 45.501 92s41.167 90.333 46.5 105l-18 27c-8.66699 10.667 -20.667 18.334 -36 23.001c10 14.667 21.333 29.5 34 44.5s26.334 22.5 41.001 22.5c16 0 30.667 -12.833 44 -38.5s36.666 -74.667 69.999 -147s57.333 -114.5 72 -126.5
c12 15.333 26.333 41.833 43 79.5s25 62.834 25 75.501c0 19.333 -7.83301 40.333 -23.5 63s-33.5 40 -53.5 52c14 22 27.667 40 41 54s25.333 21 36 21z" />
    <glyph glyph-name="x" unicode="x" horiz-adv-x="491" 
d="M99 434c40 0 71.4951 -16.168 94.4951 -48.501s41.833 -70.5 56.5 -114.5c6 10.667 18 29.667 36 57s27 48 27 62s-13 27 -39 39h164c-35.333 -13.333 -65 -31.666 -89 -54.999s-52.667 -67 -86 -131c14.667 -50 33.834 -96 57.501 -138s49.834 -63 78.501 -63
c10 0 19.333 2.16699 28 6.5s25.334 13.166 50.001 26.499c-11.333 -26.667 -27.166 -46.834 -47.499 -60.501s-44.166 -20.5 -71.499 -20.5c-39.333 0 -72 15.167 -98 45.5s-49.333 69.166 -70 116.499l-40.5 -66.5c-15.667 -26.333 -23.5 -43.5 -23.5 -51.5
c0 -6 4.66699 -12.833 14 -20.5s20.666 -13.5 33.999 -17.5h-161c26.667 8.66699 54.334 29.334 83.001 62.001s55.667 75.334 81 128.001c-20 59.333 -40.167 106 -60.5 140s-43.5 51 -69.5 51c-15.333 0 -39 -7.33301 -71 -22c30 34.667 51.5 55.834 64.5 63.501
s32.5 11.5 58.5 11.5z" />
    <glyph glyph-name="y" unicode="y" horiz-adv-x="467" 
d="M378 450c10 0 26.001 -14.002 48.001 -42.002s33 -58 33 -90c0 -16 -24 -66.667 -72 -152s-84 -152.5 -108 -201.5s-36 -93.167 -36 -132.5c0 -32.667 9.5 -62 28.5 -88s44.167 -39 75.5 -39c26 0 46.167 6.83301 60.5 20.5s28.833 37.834 43.5 72.501
c0 -51.333 -15.167 -86.333 -45.5 -105s-65.5 -28 -105.5 -28c-52 0 -90 8.5 -114 25.5s-36 47.5 -36 91.5c0 35.333 10.5 69.833 31.5 103.5s50.5 75.5 88.5 125.5l-49.5 110c-21 46.667 -44.167 93 -69.5 139s-42.166 70 -50.499 72s-15.833 3 -22.5 3
c-15.333 0 -31.333 -3.5 -48 -10.5s-32.667 -15.167 -48 -24.5c19.333 30 43.166 59.833 71.499 89.5s53.833 44.5 76.5 44.5c30.667 0 68.167 -47.167 112.5 -141.5s74.833 -152.833 91.5 -175.5c10.667 19.333 21 40.833 31 64.5s15 47.834 15 72.501
c0 27.333 -6.83301 50.5 -20.5 69.5s-33.834 34.5 -60.501 46.5c10 18 21 35.833 33 53.5s27.333 26.5 46 26.5z" />
    <glyph glyph-name="z" unicode="z" horiz-adv-x="410" 
d="M171 428l234 -0.00292969l-195 -193h67c9.33301 0 19.333 1.16699 30 3.5s23 7.16602 37 14.499c-24 -31.333 -44.333 -53.666 -61 -66.999s-38.334 -20 -65.001 -20h-76c-16 -13.333 -32 -28.333 -48 -45s-24 -33.667 -24 -51h208c34 0 62.333 15 85 45
c17.333 32.667 27 50.667 29 54c0.666992 -7.33301 1 -13.666 1 -18.999c0 -37.333 -5.66699 -72 -17 -104s-34 -48 -68 -48l-282 2c0 34.667 6.83301 65.334 20.5 92.001s34.167 51.334 61.5 74.001h-69c-12.667 0 -22.667 -1.66699 -30 -5s-13.666 -7 -18.999 -11
c15.333 18.667 33.166 37.5 53.499 56.5s42.5 28.5 66.5 28.5h64l124 123h-169c-19.333 0 -34 -2.83301 -44 -8.5s-15 -16.167 -15 -31.5s6.33301 -27 19 -35c16.667 -7.33301 27.667 -12.333 33 -15c-35.333 0 -60 5.83301 -74 17.5s-21 25.5 -21 41.5
c0 37.333 14.833 63.5 44.5 78.5s62.834 22.5 99.501 22.5z" />
    <glyph glyph-name="braceleft" unicode="{" horiz-adv-x="350" 
d="M298 498c-48 -26 -75.001 -53.333 -81.001 -82s-11.167 -80.5 -15.5 -155.5s-20.166 -126.5 -47.499 -154.5c22.667 -22.667 36.334 -48.667 41.001 -78s7 -69.333 7 -120s4.66699 -92 14 -124s31.666 -59.667 66.999 -83c-44.667 0 -85.667 25.833 -123 77.5
s-56 92.834 -56 123.501v47c0 49.333 -3.5 88.666 -10.5 117.999s-21.833 44 -44.5 44c22.667 0 37.5 15 44.5 45s10.5 69 10.5 117v33c0 32 18.833 72 56.5 120s83.5 72 137.5 72z" />
    <glyph glyph-name="bar" unicode="|" horiz-adv-x="182" 
d="M58 658h58v-926h-58v926z" />
    <glyph glyph-name="braceright" unicode="}" horiz-adv-x="350" 
d="M258 306l-0.000976562 -34.9971c0 -46.667 3.5 -85 10.5 -115s21.833 -45 44.5 -45c-22.667 0 -37.5 -15 -44.5 -45s-10.5 -70 -10.5 -120v-44c0 -30.667 -18.667 -71.834 -56 -123.501s-78.666 -77.5 -123.999 -77.5c42.667 28.667 68.334 70.667 77.001 126
c1.33301 49.333 3.16602 100.833 5.49902 154.5s18.166 95.167 47.499 124.5c-27.333 27.333 -43.166 79.166 -47.499 155.499s-9.5 128.333 -15.5 156s-33 54.5 -81 80.5c54 0 99.833 -23.833 137.5 -71.5s56.5 -87.834 56.5 -120.501z" />
    <glyph glyph-name="asciitilde" unicode="~" horiz-adv-x="456" 
d="M146 562c17.333 0 48.334 -11.167 93.001 -33.5s77.667 -33.5 99 -33.5c25.333 0 43.666 5.16699 54.999 15.5s23.666 23.5 36.999 39.5c-6.66699 -34 -18.5 -61.333 -35.5 -82s-41.5 -31 -73.5 -31c-22 0 -54 11 -96 33s-74 33 -96 33c-22.667 0 -39.334 -4 -50.001 -12
s-24.667 -21.667 -42 -41c4.66699 32 16.334 58.667 35.001 80s43.334 32 74.001 32z" />
    <glyph glyph-name="nbspace" unicode="&#xa0;" horiz-adv-x="250" 
 />
    <glyph glyph-name="exclamdown" unicode="&#xa1;" horiz-adv-x="365" 
d="M25 -335c21.333 32.667 41.834 94.4971 61.501 185.497s35.667 158 48 201s40.166 99.833 83.499 170.5c12.667 -34 22.167 -67.167 28.5 -99.5s9.5 -63.166 9.5 -92.499c0 -68.667 -14.167 -128.667 -42.5 -180s-59.833 -91.666 -94.5 -120.999s-66 -50.666 -94 -63.999
zM201.001 322.997c-4.66699 0 -15.8291 8.5 -33.4961 25.5s-35.834 30.833 -54.501 41.5c6.66699 8.66699 22.5 26.167 47.5 52.5s41.167 39.5 48.5 39.5c5.33301 0 15.666 -8 30.999 -24s34.666 -30.333 57.999 -43l-57.5 -61.5
c-19.667 -20.333 -32.834 -30.5 -39.501 -30.5z" />
    <glyph glyph-name="cent" unicode="&#xa2;" horiz-adv-x="427" 
d="M202 453l-0.00195312 61h42v-61c26.667 0 55.167 -12 85.5 -36s48.166 -52.333 53.499 -85c-31.333 36 -77.666 54 -138.999 54v-272c32.667 0 59.334 4 80.001 12s41.334 22 62.001 42c-10 -37.333 -29.333 -66 -58 -86s-56.334 -30 -83.001 -30v-64h-42v64
c-41.333 0 -78.166 16.5 -110.499 49.5s-48.5 83.5 -48.5 151.5c0 62 17.5 110.833 52.5 146.5s70.167 53.5 105.5 53.5zM113.998 252c0 -41.333 8 -74.667 24 -100s37.333 -38 64 -38v272c-29.333 0 -51.333 -11.333 -66 -34s-22 -56 -22 -100z" />
    <glyph glyph-name="sterling" unicode="&#xa3;" horiz-adv-x="486" 
d="M346 310l-108.998 -0.00292969c8 -17.333 15.667 -40.166 23 -68.499s11 -53.833 11 -76.5c0 -11.333 -1 -22 -3 -32c22 -16.667 41.667 -29.667 59 -39s32.333 -14 45 -14c9.33301 0 16.666 3 21.999 9s8 16 8 30c0 9.33301 -2 16.333 -6 21s-11.667 7 -23 7
c-8 0 -17 -1.33301 -27 -4l-16 51c20.667 11.333 40.667 17 60 17c24 0 44 -9.16699 60 -27.5s24 -45.5 24 -81.5c0 -33.333 -9.83301 -61.166 -29.5 -83.499s-43.167 -33.5 -70.5 -33.5c-18 0 -39.667 8.16699 -65 24.5s-49.333 33.166 -72 50.499
c-14.667 -24 -33.834 -42.5 -57.501 -55.5s-48.167 -19.5 -73.5 -19.5s-48.166 8.83301 -68.499 26.5s-30.5 42.5 -30.5 74.5c0 31.333 9.16699 54.333 27.5 69s41.5 22 69.5 22c21.333 0 41.333 -3.66699 60 -11c-9.33301 52 -22.333 100 -39 144h-94l15 56h61
c-1.33301 8 -3 19.5 -5 34.5s-3 26.5 -3 34.5c0 60 19.167 107.333 57.5 142s82.5 52 132.5 52c40 0 76.167 -12.5 108.5 -37.5s48.5 -61.167 48.5 -108.5c0 -23.333 -4.83301 -42.666 -14.5 -57.999s-23.834 -23 -42.501 -23c-17.333 0 -29.666 5 -36.999 15
s-11 22.667 -11 38c0 10.667 1 20.834 3 30.501s4 17.834 6 24.501c0 16 -6.66699 28 -20 36s-27 12 -41 12c-26.667 0 -47.334 -10.333 -62.001 -31s-22 -47.667 -22 -81c0 -13.333 1.16699 -26.333 3.5 -39s5.83301 -26.334 10.5 -41.001h143zM74.002 85.9971
c0 -18 6.66602 -26.999 19.999 -26.999c12 0 24.333 4.83301 37 14.5s21.334 17.5 26.001 23.5c-7.33301 5.33301 -15.833 9.83301 -25.5 13.5s-19.167 5.5 -28.5 5.5c-8.66699 0 -15.667 -2.33301 -21 -7s-8 -12.334 -8 -23.001z" />
    <glyph glyph-name="currency" unicode="&#xa4;" horiz-adv-x="673" 
d="M142 224c-12 21.333 -20.501 40.168 -25.501 56.501s-7.5 35.833 -7.5 58.5c0 41.333 11 80.666 33 117.999l-40 39l72 72l39 -40c36.667 22.667 75.334 34 116.001 34c45.333 0 85.666 -11.333 120.999 -34l39 40l70 -72l-40 -39c22.667 -35.333 34 -74.333 34 -117
c0 -20.667 -2.66699 -41 -8 -61s-14 -38.333 -26 -55l40 -40l-70 -71l-39 40c-38 -23.333 -76.667 -35 -116 -35c-45.333 0 -85.666 11.667 -120.999 35l-39 -40l-72 71zM486.999 340.002c0 42 -14.832 78.499 -44.499 109.499s-66.834 46.5 -111.501 46.5
c-43.333 0 -80.166 -15.5 -110.499 -46.5s-45.5 -67.5 -45.5 -109.5c0 -41.333 15 -77.666 45 -108.999s67 -47 111 -47c43.333 0 80.166 15.5 110.499 46.5s45.5 67.5 45.5 109.5z" />
    <glyph glyph-name="section" unicode="&#xa7;" horiz-adv-x="442" 
d="M42 241c0 24 4.33398 46.1641 13.001 66.4971s21 36.5 37 48.5c-14 10.667 -25 25.334 -33 44.001s-12 38.334 -12 59.001c0 54.667 17.833 96.667 53.5 126s76.5 44 122.5 44c35.333 0 71.833 -11.5 109.5 -34.5s56.5 -54.5 56.5 -94.5
c0 -16 -5.16699 -29.5 -15.5 -40.5s-22.166 -16.5 -35.499 -16.5c-25.333 0 -43.333 17.833 -54 53.5s-31.334 53.5 -62.001 53.5c-24.667 0 -42.167 -5.66699 -52.5 -17s-15.5 -25.666 -15.5 -42.999c0 -23.333 27.167 -44.166 81.5 -62.499s95.666 -36.833 123.999 -55.5
s42.5 -56 42.5 -112c0 -42 -13 -76 -39 -102c26.667 -26.667 40 -61.334 40 -104.001c0 -64 -20.333 -112 -61 -144s-88 -48 -142 -48c-55.333 0 -98.166 14.333 -128.499 43s-45.5 59.334 -45.5 92.001c0 19.333 5.33301 34.666 16 45.999s24 17 40 17
c28.667 0 48 -19.333 58 -58s34 -58 72 -58c28.667 0 50.667 7 66 21s23 32.667 23 56c0 29.333 -31.833 53.833 -95.5 73.5s-106.834 35.5 -129.501 47.5s-34 45 -34 99zM164.001 318.997c-6 -5.33301 -11 -11.667 -15 -19s-6 -15 -6 -23c0 -22 16.833 -39 50.5 -51
s68.5 -23.667 104.5 -35l5.5 19c1.66699 6 2.5 11.333 2.5 16c0 26.667 -16.667 46.167 -50 58.5z" />
    <glyph glyph-name="dieresis" unicode="&#xa8;" horiz-adv-x="278" 
d="M78 573c8.66699 0 15.834 -4.16602 21.501 -12.499s8.5 -17.5 8.5 -27.5c0 -12.667 -3.83301 -20.834 -11.5 -24.501s-17.167 -5.5 -28.5 -5.5c-8.66699 0 -15.834 4.16699 -21.501 12.5s-8.5 17.5 -8.5 27.5c0 20 13.333 30 40 30zM211 573.001
c9.33301 0 16.8311 -3.99805 22.498 -11.998s8.5 -17.333 8.5 -28c0 -12.667 -3.83301 -20.834 -11.5 -24.501s-17.167 -5.5 -28.5 -5.5c-9.33301 0 -16.666 4.33301 -21.999 13s-8 17.667 -8 27s3.83301 16.666 11.5 21.999s16.834 8 27.501 8z" />
    <glyph glyph-name="copyright" unicode="&#xa9;" horiz-adv-x="672" 
d="M24 197c0 87.333 30.833 161.833 92.5 223.5s136.167 92.5 223.5 92.5s161.833 -30.833 223.5 -92.5s92.5 -136.167 92.5 -223.5c0 -88 -30.667 -162.667 -92 -224s-136 -92 -224 -92c-87.333 0 -161.833 30.833 -223.5 92.5s-92.5 136.167 -92.5 223.5zM342 -84
c77.333 0 143.333 27.333 198 82s82 121 82 199c0 76.667 -27.333 142.667 -82 198s-120.667 83 -198 83c-78 0 -144.333 -27.333 -199 -82s-82 -121 -82 -199s27.333 -144.333 82 -199s121 -82 199 -82zM336 404h123.002c2.66699 -12 9.66699 -28.167 21 -48.5
s18.333 -34.833 21 -43.5l-71 56c-29.333 15.333 -60 23 -92 23c-46.667 0 -78.834 -14.167 -96.501 -42.5s-26.5 -65.5 -26.5 -111.5c0 -50.667 13.167 -100.667 39.5 -150s63.833 -74 112.5 -74c40 0 69.667 7.83301 89 23.5s34.666 35.167 45.999 58.5
c0 -30.667 -10.167 -54.667 -30.5 -72s-58.166 -26 -113.499 -26c-58.667 0 -107.334 16 -146.001 48s-58 80 -58 144c0 66 17.833 118.333 53.5 157s78.5 58 128.5 58z" />
    <glyph glyph-name="guillemotleft" unicode="&#xab;" horiz-adv-x="326" 
d="M246 288l42 -156l-42 -31l-81 187l81 169l42 -28zM109 288l41 -156l-41 -31l-82 180l82 176l41 -28z" />
    <glyph glyph-name="registered" unicode="&#xae;" horiz-adv-x="688" 
d="M542 26c12 -10.667 23.501 -18.666 34.501 -23.999s22.5 -8 34.5 -8c12.667 0 27.5 4.83301 44.5 14.5s31.167 21.5 42.5 35.5c-12 -21.333 -26.5 -38.333 -43.5 -51s-40.167 -19 -69.5 -19c-27.333 0 -53.333 8.66699 -78 26c-51.333 -31.333 -107 -47 -167 -47
c-87.333 0 -161.833 30.833 -223.5 92.5s-92.5 136.167 -92.5 223.5s30.833 161.833 92.5 223.5s136.167 92.5 223.5 92.5s161.833 -30.833 223.5 -92.5s92.5 -136.167 92.5 -223.5c0 -48.667 -9.83301 -93.834 -29.5 -135.501s-47.834 -77.5 -84.501 -107.5z
M479.001 25.001c-24.667 25.333 -46.667 57.8311 -66 97.498s-39 85.834 -59 138.501c36 0 63 5.33301 81 16s27 33 27 67c0 37.333 -8.66699 64.333 -26 81s-50 25 -98 25v-280c0 -12.667 2.66699 -23.5 8 -32.5s14.666 -16.833 27.999 -23.5h-136
c33.333 8.66699 50 28.667 50 60v163c1.33301 19.333 4 39.666 8 60.999s12 38.666 24 51.999c-58 0 -96.833 -8.66699 -116.5 -26s-29.5 -40.666 -29.5 -69.999s6.5 -55.5 19.5 -78.5s34.5 -42.833 64.5 -59.5c-33.333 0 -59 11.5 -77 34.5s-27 51.833 -27 86.5
c0 42.667 13.5 74.667 40.5 96s72.833 32 137.5 32l6 9v-8c64 0 108.833 -7.5 134.5 -22.5s38.5 -42.5 38.5 -82.5c0 -31.333 -10.167 -56.166 -30.5 -74.499s-46.5 -29.166 -78.5 -32.499c13.333 -30 29 -63.167 47 -99.5s41 -70.833 69 -103.5
c32.667 26 58.167 58 76.5 96s27.5 78.667 27.5 122c0 76.667 -27.333 142.667 -82 198s-120.667 83 -198 83c-78 0 -144.333 -27.333 -199 -82s-82 -121 -82 -199s27.333 -144.333 82 -199s121 -82 199 -82c23.333 0 46.833 3.33301 70.5 10s45.834 15.667 66.501 27z" />
    <glyph glyph-name="degree" unicode="&#xb0;" horiz-adv-x="394" 
d="M198 664c29.333 0 53.333 -9.33398 72 -28.001s28 -41.667 28 -69c0 -29.333 -9.5 -53.166 -28.5 -71.499s-42.5 -27.5 -70.5 -27.5c-29.333 0 -52.833 9.16699 -70.5 27.5s-26.5 41.833 -26.5 70.5c0 28 9 51.333 27 70s41 28 69 28zM146 565.999
c0 -13.333 5.66797 -25.333 17.001 -36s23.666 -16 36.999 -16c14 0 26.5 4.83301 37.5 14.5s16.5 22.167 16.5 37.5c0 14 -5.66699 26.667 -17 38s-24 17 -38 17c-13.333 0 -25.5 -5.5 -36.5 -16.5s-16.5 -23.833 -16.5 -38.5z" />
    <glyph glyph-name="plusminus" unicode="&#xb1;" horiz-adv-x="549" 
d="M506 19h-462v68h462v-68zM309 331h197v-68h-197v-122h-68v122h-197v68h197v122h68v-122z" />
    <glyph glyph-name="acute" unicode="&#xb4;" horiz-adv-x="202" 
d="M166 628c14 0 21.001 -5.33301 21.001 -16c0 -24 -22.833 -52 -68.5 -84s-73.834 -48 -84.501 -48l42 74c36 49.333 66 74 90 74z" />
    <glyph glyph-name="mu" unicode="&#xb5;" horiz-adv-x="576" 
d="M166 153c0 -47.333 4.66895 -79.002 14.002 -95.002s26 -24 50 -24c38 0 69.667 27 95 81s38 122 38 204v130h92v-328c0 -30 3.16699 -52 9.5 -66s15.833 -21 28.5 -21c13.333 0 23.833 6.83301 31.5 20.5s11.5 34.167 11.5 61.5v14h21l1 -9v-13
c0 -36.667 -7.83301 -65.334 -23.5 -86.001s-37.834 -31 -66.501 -31c-32.667 0 -57.834 14.333 -75.501 43s-26.5 71.667 -26.5 129c-15.333 -59.333 -35.833 -102.833 -61.5 -130.5s-57.834 -41.5 -96.501 -41.5c-28 0 -52.333 8.66699 -73 26
c-18.667 18 -32 43.667 -40 77l-1 -28c0 -43.333 10.667 -90.666 32 -141.999s32 -81.666 32 -90.999c0 -13.333 -3.66699 -23.666 -11 -30.999s-17.666 -11 -30.999 -11c-15.333 0 -26.333 5.66699 -33 17s-10 29 -10 53l2 58l2 89l-1 101l-2 95v245h92v-296z" />
    <glyph glyph-name="paragraph" unicode="&#xb6;" horiz-adv-x="653" 
d="M176 -221c27.333 8 45.499 18.999 54.499 32.999s13.5 29.333 13.5 46v15v284c-25.333 0 -50.666 2.5 -75.999 7.5s-49.166 14.333 -71.499 28s-40.5 35.5 -54.5 65.5s-21 64 -21 102c0 35.333 6.5 68.333 19.5 99s28.667 52.667 47 66s37.166 22.833 56.499 28.5
s47.333 8.5 84 8.5h20h368c-29.333 -8 -48 -17.667 -56 -29s-12 -34.666 -12 -69.999v-586c0 -38 3.16699 -62 9.5 -72s25.833 -18.667 58.5 -26h-440zM372.999 500.999v-661c0 -8 2.33301 -14 7 -18s10 -6 16 -6c14.667 0 22 8 22 24v661c0 8 -2.33301 14 -7 18
s-10 6 -16 6c-14.667 0 -22 -8 -22 -24zM162.999 229.999c30.667 0 53.168 7.66895 67.501 23.002s21.5 51.666 21.5 108.999c0 54.667 -5.66699 88 -17 100s-32 18 -62 18c-24.667 0 -46.834 -12.167 -66.501 -36.5s-29.5 -51.5 -29.5 -81.5
c0 -32.667 8.33301 -62.834 25 -90.501s37 -41.5 61 -41.5z" />
    <glyph glyph-name="cedilla" unicode="&#xb8;" horiz-adv-x="294" 
d="M130 -49l31.001 2c17.333 0 32.666 -6.66699 45.999 -20s20 -30.666 20 -51.999c0 -31.333 -8.83301 -54.833 -26.5 -70.5s-39.834 -23.5 -66.501 -23.5c-20.667 0 -42.667 2.16699 -66 6.5s-41.666 12.166 -54.999 23.499h21c36.667 0 67 4.33301 91 13s36 27 36 55
c0 14 -5 24 -15 30s-21.333 9 -34 9h-27l8 76h43z" />
    <glyph glyph-name="guillemotright" unicode="&#xbb;" horiz-adv-x="326" 
d="M69 457l81 -169l-81 -187l-42 31l42 156l-42 141zM206 457l82 -176l-86 -180l-41 31l45 156l-45 141z" />
    <glyph glyph-name="questiondown" unicode="&#xbf;" horiz-adv-x="533" 
d="M239 -332c-68 0 -119.166 16.1689 -153.499 48.502s-51.5 78.5 -51.5 138.5c0 48.667 23.667 100.667 71 156l135.5 133c46.333 45.333 69.5 81.666 69.5 108.999c0 19.333 -5.33301 31.666 -16 36.999s-26 8 -46 8c-15.333 0 -30.5 -10.167 -45.5 -30.5
s-22.5 -42.5 -22.5 -66.5c0 -8 1 -15.667 3 -23c-6 3.33301 -9.5 10.5 -10.5 21.5s-1.83301 22.167 -2.5 33.5c0 32 8 59.333 24 82s43.333 34 82 34c23.333 0 42.333 -6.66699 57 -20s22 -34.333 22 -63c0 -40.667 -18.667 -84.667 -56 -132l-104 -119
c-37.333 -46.667 -56 -90 -56 -130c0 -56.667 16.167 -99 48.5 -127s69.5 -42 111.5 -42c37.333 0 66.666 12.667 87.999 38s32 57.333 32 96c0 42 -4.16699 77.333 -12.5 106s-27.5 52.667 -57.5 72c44 0 78.833 -16.333 104.5 -49s38.5 -70 38.5 -112
c0 -54.667 -19.167 -101.5 -57.5 -140.5s-103.5 -58.5 -195.5 -58.5zM270.001 416.002c-4.66699 0 -15.3311 7.83203 -31.998 23.499s-32.667 27.5 -48 35.5c14.667 18.667 31.5 37.334 50.5 56.001s31.167 28 36.5 28s15.166 -7.33301 29.499 -22
s31.166 -27.667 50.499 -39c-12 -14 -28 -31.167 -48 -51.5s-33 -30.5 -39 -30.5z" />
    <glyph glyph-name="Agrave" unicode="&#xc0;" horiz-adv-x="628" 
d="M798 -185l-60.001 0.000976562c-57.333 0 -105.666 20 -144.999 60l-113 130c-58 57.333 -130.667 99 -218 125l-58.5 -70.5c-24.333 -29 -54 -59.167 -89 -90.5s-63.167 -47 -84.5 -47c-13.333 0 -21.166 2.5 -23.499 7.5s-3.5 11.5 -3.5 19.5s23.167 26.167 69.5 54.5
s100.5 73.166 162.5 134.499c-26 6.66699 -49.333 10 -70 10c-22 0 -39.167 -2.33301 -51.5 -7s-26.833 -11.334 -43.5 -20.001c15.333 14.667 32.833 25.167 52.5 31.5s41.167 9.5 64.5 9.5c8 0 16.667 -0.5 26 -1.5s21 -2.83301 35 -5.5c49.333 62 92 126.667 128 194
s62 129 78 185c34 -156 58.833 -264.667 74.5 -326s46.167 -134.166 91.5 -218.499s104.666 -142.5 177.999 -174.5zM512.999 548.001c-10 0 -38 12.833 -84 38.5s-69 48.167 -69 67.5c0 8 7.33301 12 22 12c23.333 0 53 -19.667 89 -59zM405.999 360.001
c-16.667 -37.333 -35.833 -72.833 -57.5 -106.5s-46.167 -68.5 -73.5 -104.5c39.333 -10 77.333 -22.167 114 -36.5s67 -31.166 91 -50.499c-28 59.333 -52.667 158.666 -74 297.999z" />
    <glyph glyph-name="Aacute" unicode="&#xc1;" horiz-adv-x="628" 
d="M798 -185l-60.001 0.000976562c-57.333 0 -105.666 20 -144.999 60l-113 130c-58 57.333 -130.667 99 -218 125l-58.5 -70.5c-24.333 -29 -54 -59.167 -89 -90.5s-63.167 -47 -84.5 -47c-13.333 0 -21.166 2.5 -23.499 7.5s-3.5 11.5 -3.5 19.5s23.167 26.167 69.5 54.5
s100.5 73.166 162.5 134.499c-26 6.66699 -49.333 10 -70 10c-22 0 -39.167 -2.33301 -51.5 -7s-26.833 -11.334 -43.5 -20.001c15.333 14.667 32.833 25.167 52.5 31.5s41.167 9.5 64.5 9.5c8 0 16.667 -0.5 26 -1.5s21 -2.83301 35 -5.5c49.333 62 92 126.667 128 194
s62 129 78 185c34 -156 58.833 -264.667 74.5 -326s46.167 -134.166 91.5 -218.499s104.666 -142.5 177.999 -174.5zM517.999 664.001c14 0 21 -4.33203 21 -12.999c0 -18.667 -23 -40.834 -69 -66.501s-74 -38.5 -84 -38.5l42 59c36 39.333 66 59 90 59zM405.999 360.002
c-16.667 -37.333 -35.833 -72.833 -57.5 -106.5s-46.167 -68.5 -73.5 -104.5c39.333 -10 77.333 -22.167 114 -36.5s67 -31.166 91 -50.499c-28 59.333 -52.667 158.666 -74 297.999z" />
    <glyph glyph-name="Acircumflex" unicode="&#xc2;" horiz-adv-x="628" 
d="M798 -185l-60.001 0.000976562c-57.333 0 -105.666 20 -144.999 60l-113 130c-58 57.333 -130.667 99 -218 125l-58.5 -70.5c-24.333 -29 -54 -59.167 -89 -90.5s-63.167 -47 -84.5 -47c-13.333 0 -21.166 2.5 -23.499 7.5s-3.5 11.5 -3.5 19.5s23.167 26.167 69.5 54.5
s100.5 73.166 162.5 134.499c-26 6.66699 -49.333 10 -70 10c-22 0 -39.167 -2.33301 -51.5 -7s-26.833 -11.334 -43.5 -20.001c15.333 14.667 32.833 25.167 52.5 31.5s41.167 9.5 64.5 9.5c8 0 16.667 -0.5 26 -1.5s21 -2.83301 35 -5.5c49.333 62 92 126.667 128 194
s62 129 78 185c34 -156 58.833 -264.667 74.5 -326s46.167 -134.166 91.5 -218.499s104.666 -142.5 177.999 -174.5zM575.999 540.001c-22.667 10.667 -46.833 21 -72.5 31s-46.167 15 -61.5 15c-14.667 0 -35.5 -5 -62.5 -15s-52.833 -20.333 -77.5 -31
c16.667 32 38.667 55 66 69s53.333 25 78 33c24.667 -7.33301 50 -17.833 76 -31.5s44 -37.167 54 -70.5zM406 360.001c-16.667 -37.333 -35.833 -72.833 -57.5 -106.5s-46.167 -68.5 -73.5 -104.5c39.333 -10 77.333 -22.167 114 -36.5s67 -31.166 91 -50.499
c-28 59.333 -52.667 158.666 -74 297.999z" />
    <glyph glyph-name="Atilde" unicode="&#xc3;" horiz-adv-x="628" 
d="M798 -185l-60.001 0.000976562c-57.333 0 -105.666 20 -144.999 60l-113 130c-58 57.333 -130.667 99 -218 125l-58.5 -70.5c-24.333 -29 -54 -59.167 -89 -90.5s-63.167 -47 -84.5 -47c-13.333 0 -21.166 2.5 -23.499 7.5s-3.5 11.5 -3.5 19.5s23.167 26.167 69.5 54.5
s100.5 73.166 162.5 134.499c-26 6.66699 -49.333 10 -70 10c-22 0 -39.167 -2.33301 -51.5 -7s-26.833 -11.334 -43.5 -20.001c15.333 14.667 32.833 25.167 52.5 31.5s41.167 9.5 64.5 9.5c8 0 16.667 -0.5 26 -1.5s21 -2.83301 35 -5.5c49.333 62 92 126.667 128 194
s62 129 78 185c34 -156 58.833 -264.667 74.5 -326s46.167 -134.166 91.5 -218.499s104.666 -142.5 177.999 -174.5zM397.999 654.001c16.667 0 38.335 -7.33301 65.002 -22s49 -22 67 -22c25.333 0 43.666 5.16699 54.999 15.5s23.666 23.5 36.999 39.5
c-6.66699 -32 -19.5 -58.833 -38.5 -80.5s-42.5 -32.5 -70.5 -32.5c-14 0 -35.667 7.33301 -65 22s-51.333 22 -66 22c-22.667 0 -39.5 -4 -50.5 -12s-24.833 -22 -41.5 -42c4.66699 30.667 17 57 37 79s43.667 33 71 33zM406 360.001
c-16.667 -37.333 -35.833 -72.833 -57.5 -106.5s-46.167 -68.5 -73.5 -104.5c39.333 -10 77.333 -22.167 114 -36.5s67 -31.166 91 -50.499c-28 59.333 -52.667 158.666 -74 297.999z" />
    <glyph glyph-name="Adieresis" unicode="&#xc4;" horiz-adv-x="628" 
d="M798 -185l-60.001 0.000976562c-57.333 0 -105.666 20 -144.999 60l-113 130c-58 57.333 -130.667 99 -218 125l-58.5 -70.5c-24.333 -29 -54 -59.167 -89 -90.5s-63.167 -47 -84.5 -47c-13.333 0 -21.166 2.5 -23.499 7.5s-3.5 11.5 -3.5 19.5s23.167 26.167 69.5 54.5
s100.5 73.166 162.5 134.499c-26 6.66699 -49.333 10 -70 10c-22 0 -39.167 -2.33301 -51.5 -7s-26.833 -11.334 -43.5 -20.001c15.333 14.667 32.833 25.167 52.5 31.5s41.167 9.5 64.5 9.5c8 0 16.667 -0.5 26 -1.5s21 -2.83301 35 -5.5c49.333 62 92 126.667 128 194
s62 129 78 185c34 -156 58.833 -264.667 74.5 -326s46.167 -134.166 91.5 -218.499s104.666 -142.5 177.999 -174.5zM384.999 630.001c9.33301 0 16.668 -4 22.001 -12s8 -17.333 8 -28c0 -12.667 -3.83301 -20.667 -11.5 -24s-17.167 -5 -28.5 -5
c-8.66699 0 -15.834 4.16699 -21.501 12.5s-8.5 17.5 -8.5 27.5c0 8 3.5 14.833 10.5 20.5s16.833 8.5 29.5 8.5zM518.001 630.001c9.33301 0 16.834 -3.83301 22.501 -11.5s8.5 -17.167 8.5 -28.5c0 -12.667 -3.83301 -20.667 -11.5 -24s-17.167 -5 -28.5 -5
c-6.66699 0 -13.334 3.33301 -20.001 10s-10 16.667 -10 30c0 8.66699 4 15.667 12 21s17 8 27 8zM406.002 360.001c-16.667 -37.333 -35.833 -72.833 -57.5 -106.5s-46.167 -68.5 -73.5 -104.5c39.333 -10 77.333 -22.167 114 -36.5s67 -31.166 91 -50.499
c-28 59.333 -52.667 158.666 -74 297.999z" />
    <glyph glyph-name="Aring" unicode="&#xc5;" horiz-adv-x="628" 
d="M462 486c24 -112.667 46.8301 -206.999 68.4971 -282.999s54.834 -152.167 99.501 -228.5s100.667 -129.5 168 -159.5h-60c-57.333 0 -105.666 20 -144.999 60l-113 130c-58 57.333 -130.667 99 -218 125l-58.5 -70.5c-24.333 -29 -54 -59.167 -89 -90.5
s-63.167 -47 -84.5 -47c-13.333 0 -21.166 2.5 -23.499 7.5s-3.5 11.5 -3.5 19.5s23.167 26.167 69.5 54.5s100.5 73.166 162.5 134.499c-26 6.66699 -49.333 10 -70 10c-22 0 -39.167 -2.33301 -51.5 -7s-26.833 -11.334 -43.5 -20.001
c15.333 14.667 32.833 25.167 52.5 31.5s41.167 9.5 64.5 9.5c8 0 16.667 -0.5 26 -1.5s21 -2.83301 35 -5.5c42 52 79.5 107.167 112.5 165.5s58.833 113.5 77.5 165.5c-21.333 3.33301 -39.666 13.5 -54.999 30.5s-23 36.5 -23 58.5c0 26 9 48 27 66s40 27 66 27
c25.333 0 47.166 -8.83301 65.499 -26.5s27.5 -39.5 27.5 -65.5c0 -24 -8 -44.167 -24 -60.5s-36 -26.166 -60 -29.499zM453.997 531.001c13.333 0 24.666 4.33301 33.999 13s14 20 14 34c0 12.667 -5 23.334 -15 32.001s-21.667 13 -35 13s-24.333 -4.33301 -33 -13
s-13 -19.334 -13 -32.001c0 -14 4.33301 -25.333 13 -34s20.334 -13 35.001 -13zM405.997 360.001c-16.667 -37.333 -35.833 -72.833 -57.5 -106.5s-46.167 -68.5 -73.5 -104.5c39.333 -10 77.333 -22.167 114 -36.5s67 -31.166 91 -50.499
c-28 59.333 -52.667 158.666 -74 297.999z" />
    <glyph glyph-name="AE" unicode="&#xc6;" horiz-adv-x="1128" 
d="M444 -46c26.667 2.66699 51.9961 10.8311 75.9961 24.498s36 31.834 36 54.501c0 22 -23.167 49 -69.5 81s-93.166 55.667 -140.499 71l-81 -97c-34 -40 -73.667 -81 -119 -123s-81.333 -63 -108 -63c-12.667 0 -21.5 2.5 -26.5 7.5s-7.5 13.833 -7.5 26.5
c0 12 32 38.833 96 80.5s135 101.167 213 178.5c-25.333 6 -47.666 9 -66.999 9c-32.667 0 -64.334 -7.33301 -95.001 -22c-28 -16.667 -46 -27 -54 -31c25.333 24 56 43.167 92 57.5s71 21.5 105 21.5c14.667 0 27.334 -1.33301 38.001 -4
c39.333 49.333 72.833 98.166 100.5 146.499s52 97.333 73 147s40.833 99.834 59.5 150.501v-19h475c0 -25.333 11 -57.333 33 -96s36.667 -69.667 44 -93l-129 116c-46.667 28 -98 42 -154 42l-108 1c-29.333 0 -44 -15 -44 -45v-269
c32.667 40.667 65.167 73.834 97.5 99.501s71.833 38.5 118.5 38.5c26 0 46.167 -7.16699 60.5 -21.5s21.5 -33.833 21.5 -58.5c0 -22.667 -7.33301 -46.334 -22 -71.001c2.66699 16 4 31 4 45c0 26.667 -4.83301 44 -14.5 52s-23.5 12 -41.5 12
c-35.333 0 -81.5 -29.667 -138.5 -89s-85.5 -132.666 -85.5 -219.999c0 -54.667 8.83301 -87.667 26.5 -99s55.834 -17 114.501 -17c66 0 124 15.167 174 45.5s89.333 74.833 118 133.5c-3.33301 -32 -13.166 -66.333 -29.499 -103l-45.5 -101zM555.996 571.997
c-18 -62.667 -44.168 -124.834 -78.501 -186.501s-70.166 -117.5 -107.499 -167.5c44 -11.333 77.5 -22.166 100.5 -32.499s51.5 -28.5 85.5 -54.5v441z" />
    <glyph glyph-name="Ccedilla" unicode="&#xc7;" horiz-adv-x="582" 
d="M287 -46c-81.333 9.33301 -147.501 39.165 -198.501 89.498s-76.5 121.833 -76.5 214.5c0 106.667 28.5 190.834 85.5 252.501s125.167 92.5 204.5 92.5h199c4 -18.667 14.833 -44 32.5 -76s28.834 -55.667 33.501 -71l-113 89c-46 24.667 -95.333 37 -148 37
c-75.333 0 -126.833 -23 -154.5 -69s-41.5 -105.333 -41.5 -178c0 -82.667 20.833 -163.167 62.5 -241.5s101.834 -117.5 180.501 -117.5c64.667 0 111.667 11.833 141 35.5s54.666 55.5 75.999 95.5c0 -48.667 -16.5 -86.834 -49.5 -114.501s-93.833 -41.5 -182.5 -41.5
h-12l-4 -41l27 2c16 0 30 -6 42 -18s18 -27.667 18 -47c0 -28 -8.16699 -49.167 -24.5 -63.5s-36.166 -21.5 -59.499 -21.5c-18.667 0 -38.667 2 -60 6s-38 11.333 -50 22h20c33.333 0 60.666 3.83301 81.999 11.5s32 23.834 32 48.501c0 12.667 -4.66699 21.834 -14 27.501
s-19.333 8.5 -30 8.5h-25z" />
    <glyph glyph-name="Egrave" unicode="&#xc8;" horiz-adv-x="679" 
d="M306 511l11.9971 12.002v-12h286c0 -20 9 -45.5 27 -76.5s29.667 -55.833 35 -74.5l-74 72c-46 36 -96.667 54 -152 54h-122v-250c24.667 31.333 50.334 57.5 77.001 78.5s58.667 31.5 96 31.5c20 0 35.833 -5.83301 47.5 -17.5s17.5 -26.834 17.5 -45.501
c0 -17.333 -5.66699 -36.333 -17 -57c2 13.333 3 24.666 3 33.999c0 22.667 -3.66699 37.167 -11 43.5s-18.333 9.5 -33 9.5c-28.667 0 -65.834 -23.667 -111.501 -71s-68.5 -106 -68.5 -176c0 -44 6.83301 -70.5 20.5 -79.5s44.167 -13.5 91.5 -13.5
c52.667 0 99.167 12.167 139.5 36.5s71.833 59.833 94.5 106.5c-2.66699 -26 -10.5 -53.5 -23.5 -82.5l-36.5 -80.5h-466c22 11.333 40.667 22.833 56 34.5s23 28.834 23 51.501v281c0 30.667 3.83301 54.667 11.5 72s23.834 48.666 48.501 93.999
c-87.333 0 -148.166 -12.5 -182.499 -37.5s-51.5 -67.833 -51.5 -128.5c0 -60 10 -105.333 30 -136s52.333 -58.667 97 -84c-62.667 0 -106.167 18.833 -130.5 56.5s-36.5 85.167 -36.5 142.5c0 68.667 22.833 121.167 68.5 157.5s123.834 54.5 234.501 54.5z
M416.997 548.002c-10 0 -38 12.833 -84 38.5s-69 48.167 -69 67.5c0 8 7.33301 12 22 12c23.333 0 53 -19.667 89 -59z" />
    <glyph glyph-name="Eacute" unicode="&#xc9;" horiz-adv-x="679" 
d="M302 511l13 12.0029v-12h286c0 -20 8.83301 -45.333 26.5 -76s29.167 -55.667 34.5 -75l-73 72c-45.333 36 -96 54 -152 54h-123v-250c25.333 31.333 51.333 57.5 78 78.5s58.667 31.5 96 31.5c20 0 35.833 -5.83301 47.5 -17.5s17.5 -26.834 17.5 -45.501
c0 -17.333 -5.66699 -36.333 -17 -57c2 13.333 3 24.666 3 33.999c0 22 -3.83301 36.333 -11.5 43s-18.834 10 -33.501 10c-28.667 0 -65.834 -23.667 -111.501 -71s-68.5 -106 -68.5 -176c0 -44 7 -70.5 21 -79.5s44.667 -13.5 92 -13.5c108 0 186 47.667 234 143
c-2.66699 -24.667 -10.667 -51.834 -24 -81.501l-36 -81.5h-466c22 11.333 40.667 22.833 56 34.5s23 28.834 23 51.501v281c0 30.667 3.83301 54.667 11.5 72s23.834 48.666 48.501 93.999c-87.333 0 -148.166 -12.5 -182.499 -37.5s-51.5 -67.833 -51.5 -128.5
c0 -60 10 -105.333 30 -136s52.333 -58.667 97 -84c-62.667 0 -106.167 18.833 -130.5 56.5s-36.5 85.167 -36.5 142.5c-0 68.667 22.833 121.167 68.5 157.5s123.5 54.5 233.5 54.5zM514 664.003c14.667 0 22 -4.33203 22 -12.999c0 -18.667 -23 -40.834 -69 -66.501
s-74 -38.5 -84 -38.5l41 59c35.333 39.333 65.333 59 90 59z" />
    <glyph glyph-name="Ecircumflex" unicode="&#xca;" horiz-adv-x="679" 
d="M306 511l11.9971 12.002v-12h286c0 -20 9 -45.5 27 -76.5s29.667 -55.833 35 -74.5l-74 72c-46 36 -96.667 54 -152 54h-122v-250c24.667 31.333 50.334 57.5 77.001 78.5s58.667 31.5 96 31.5c20 0 35.833 -5.83301 47.5 -17.5s17.5 -26.834 17.5 -45.501
c0 -17.333 -5.66699 -36.333 -17 -57c2 13.333 3 24.666 3 33.999c0 22.667 -3.66699 37.167 -11 43.5s-18.333 9.5 -33 9.5c-28.667 0 -65.834 -23.667 -111.501 -71s-68.5 -106 -68.5 -176c0 -44 6.83301 -70.5 20.5 -79.5s44.167 -13.5 91.5 -13.5
c52.667 0 99.167 12.167 139.5 36.5s71.833 59.833 94.5 106.5c-2.66699 -26 -10.5 -53.5 -23.5 -82.5l-36.5 -80.5h-466c22 11.333 40.667 22.833 56 34.5s23 28.834 23 51.501v281c0 30.667 3.83301 54.667 11.5 72s23.834 48.666 48.501 93.999
c-87.333 0 -148.166 -12.5 -182.499 -37.5s-51.5 -67.833 -51.5 -128.5c0 -60 10 -105.333 30 -136s52.333 -58.667 97 -84c-62.667 0 -106.167 18.833 -130.5 56.5s-36.5 85.167 -36.5 142.5c0 68.667 22.833 121.167 68.5 157.5s123.834 54.5 234.501 54.5z
M549.997 553.002c-22.667 10 -46.998 20.001 -72.998 30.001s-46 15 -60 15c-16 0 -37.333 -4.83301 -64 -14.5s-52.334 -19.834 -77.001 -30.501c16.667 32 38.667 55 66 69s53.333 25 78 33c24.667 -8 50.167 -19 76.5 -33s44.166 -37 53.499 -69z" />
    <glyph glyph-name="Edieresis" unicode="&#xcb;" horiz-adv-x="679" 
d="M306 511l11.9971 12.002v-12h286c0 -20 9 -45.5 27 -76.5s29.667 -55.833 35 -74.5l-74 72c-46 36 -96.667 54 -152 54h-122v-250c24.667 31.333 50.334 57.5 77.001 78.5s58.667 31.5 96 31.5c20 0 35.833 -5.83301 47.5 -17.5s17.5 -26.834 17.5 -45.501
c0 -17.333 -5.66699 -36.333 -17 -57c2 13.333 3 24.666 3 33.999c0 22.667 -3.66699 37.167 -11 43.5s-18.333 9.5 -33 9.5c-28.667 0 -65.834 -23.667 -111.501 -71s-68.5 -106 -68.5 -176c0 -44 6.83301 -70.5 20.5 -79.5s44.167 -13.5 91.5 -13.5
c52.667 0 99.167 12.167 139.5 36.5s71.833 59.833 94.5 106.5c-2.66699 -26 -10.5 -53.5 -23.5 -82.5l-36.5 -80.5h-466c22 11.333 40.667 22.833 56 34.5s23 28.834 23 51.501v281c0 30.667 3.83301 54.667 11.5 72s23.834 48.666 48.501 93.999
c-87.333 0 -148.166 -12.5 -182.499 -37.5s-51.5 -67.833 -51.5 -128.5c0 -60 10 -105.333 30 -136s52.333 -58.667 97 -84c-62.667 0 -106.167 18.833 -130.5 56.5s-36.5 85.167 -36.5 142.5c0 68.667 22.833 121.167 68.5 157.5s123.834 54.5 234.501 54.5z
M361.997 646.002c9.33301 0 16.833 -3.83301 22.5 -11.5s8.5 -17.167 8.5 -28.5c0 -12.667 -3.83301 -20.667 -11.5 -24s-17.167 -5 -28.5 -5c-9.33301 0 -16.833 4 -22.5 12s-8.5 17.333 -8.5 28c0 8 3.5 14.833 10.5 20.5s16.833 8.5 29.5 8.5zM495.997 646.002
c9.33301 0 16.667 -4 22 -12s8 -17.333 8 -28c0 -12.667 -3.83301 -20.667 -11.5 -24s-17.167 -5 -28.5 -5c-6 0 -12.333 3.5 -19 10.5s-10 16.833 -10 29.5c0 8.66699 4 15.667 12 21s17 8 27 8z" />
    <glyph glyph-name="Igrave" unicode="&#xcc;" horiz-adv-x="465" 
d="M227 511l270.002 -0.000976562c-48.667 -20 -73 -49.667 -73 -89v-376c0 -17.333 5.33301 -34.666 16 -51.999s29.667 -31.666 57 -42.999h-247c48.667 22 73 53.667 73 95v336c0 30 4 52.667 12 68l28 36h-143c-67.333 0 -113.666 -13.833 -138.999 -41.5
s-38 -66.834 -38 -117.501c0 -39.333 10.667 -75 32 -107s48.666 -48 81.999 -48c31.333 0 50.666 13.667 57.999 41s17.666 41 30.999 41c10.667 0 16 -7 16 -21c0 -18 -9.66699 -35.667 -29 -53s-47 -26 -83 -26c-46 0 -82 16.5 -108 49.5s-39 74.167 -39 123.5
c0 64 24.167 110.667 72.5 140s98.833 44 151.5 44zM394.002 547.999c-10 0 -37.833 12.833 -83.5 38.5s-68.5 48.167 -68.5 67.5c0 8 7 12 21 12c23.333 0 53 -19.667 89 -59z" />
    <glyph glyph-name="Iacute" unicode="&#xcd;" horiz-adv-x="465" 
d="M227 511l270.002 -0.000976562c-48.667 -20 -73 -49.667 -73 -89v-376c0 -17.333 5.33301 -34.666 16 -51.999s29.667 -31.666 57 -42.999h-247c48.667 22 73 53.667 73 95v336c0 30 4 52.667 12 68l28 36h-143c-67.333 0 -113.666 -13.833 -138.999 -41.5
s-38 -66.834 -38 -117.501c0 -39.333 10.667 -75 32 -107s48.666 -48 81.999 -48c31.333 0 50.666 13.667 57.999 41s17.666 41 30.999 41c10.667 0 16 -7 16 -21c0 -18 -9.66699 -35.667 -29 -53s-47 -26 -83 -26c-46 0 -82 16.5 -108 49.5s-39 74.167 -39 123.5
c0 64 24.167 110.667 72.5 140s98.833 44 151.5 44zM470.002 663.999c14 0 21 -4.33203 21 -12.999c0 -18.667 -23 -40.834 -69 -66.501s-74 -38.5 -84 -38.5l42 59c36 39.333 66 59 90 59z" />
    <glyph glyph-name="Icircumflex" unicode="&#xce;" horiz-adv-x="465" 
d="M227 511l270.002 -0.000976562c-48.667 -20 -73 -49.667 -73 -89v-376c0 -17.333 5.33301 -34.666 16 -51.999s29.667 -31.666 57 -42.999h-247c48.667 22 73 53.667 73 95v336c0 30 4 52.667 12 68l28 36h-143c-67.333 0 -113.666 -13.833 -138.999 -41.5
s-38 -66.834 -38 -117.501c0 -39.333 10.667 -75 32 -107s48.666 -48 81.999 -48c31.333 0 50.666 13.667 57.999 41s17.666 41 30.999 41c10.667 0 16 -7 16 -21c0 -18 -9.66699 -35.667 -29 -53s-47 -26 -83 -26c-46 0 -82 16.5 -108 49.5s-39 74.167 -39 123.5
c0 64 24.167 110.667 72.5 140s98.833 44 151.5 44zM515.002 552.999c-22.667 10 -46.998 20.001 -72.998 30.001s-46 15 -60 15c-16 0 -37.333 -4.83301 -64 -14.5s-52.334 -19.834 -77.001 -30.501c16.667 32 38.667 55 66 69s53.333 25 78 33
c24.667 -8 50.167 -19 76.5 -33s44.166 -37 53.499 -69z" />
    <glyph glyph-name="Idieresis" unicode="&#xcf;" horiz-adv-x="465" 
d="M227 511l270.002 -0.000976562c-48.667 -20 -73 -49.667 -73 -89v-376c0 -17.333 5.33301 -34.666 16 -51.999s29.667 -31.666 57 -42.999h-247c48.667 22 73 53.667 73 95v336c0 30 4 52.667 12 68l28 36h-143c-67.333 0 -113.666 -13.833 -138.999 -41.5
s-38 -66.834 -38 -117.501c0 -39.333 10.667 -75 32 -107s48.666 -48 81.999 -48c31.333 0 50.666 13.667 57.999 41s17.666 41 30.999 41c10.667 0 16 -7 16 -21c0 -18 -9.66699 -35.667 -29 -53s-47 -26 -83 -26c-46 0 -82 16.5 -108 49.5s-39 74.167 -39 123.5
c0 64 24.167 110.667 72.5 140s98.833 44 151.5 44zM330.002 645.999c9.33301 0 16.833 -3.83301 22.5 -11.5s8.5 -17.167 8.5 -28.5c0 -12.667 -3.83301 -20.667 -11.5 -24s-17.167 -5 -28.5 -5c-9.33301 0 -16.833 4 -22.5 12s-8.5 17.333 -8.5 28
c0 8 3.5 14.833 10.5 20.5s16.833 8.5 29.5 8.5zM464.002 645.999c9.33301 0 16.667 -4 22 -12s8 -17.333 8 -28c0 -12.667 -3.83301 -20.667 -11.5 -24s-17.167 -5 -28.5 -5c-6 0 -12.333 3.5 -19 10.5s-10 16.833 -10 29.5c0 8.66699 4 15.667 12 21s17 8 27 8z" />
    <glyph glyph-name="Ntilde" unicode="&#xd1;" horiz-adv-x="658" 
d="M248 518c58 0 96.334 -11.1699 115.001 -33.5029s44 -56.166 76 -101.499l147 -306v347c0 24 -7.66699 42.333 -23 55s-34 23.334 -56 32.001h202c-40 -8.66699 -66.833 -20 -80.5 -34s-20.5 -31.667 -20.5 -53v-390c31.333 -69.333 60.333 -121.333 87 -156
s69 -52 127 -52c14 0 30 4 48 12s35.333 19.333 52 34c-14 -20 -30.5 -36 -49.5 -48s-46.833 -18 -83.5 -18c-78.667 0 -142.834 34.333 -192.501 103s-105 168 -166 298s-108.833 210.333 -143.5 241v-408c0 -20.667 7.66699 -38 23 -52s34.333 -25.667 57 -35h-200
c39.333 8.66699 65.5 19.834 78.5 33.501s19.5 31.5 19.5 53.5v426c-11.333 10.667 -22.833 18.667 -34.5 24s-26.167 8 -43.5 8c-51.333 0 -88.666 -14.833 -111.999 -44.5s-35 -67.5 -35 -113.5c0 -56.667 11.667 -100 35 -130s57.666 -55.667 102.999 -77
c-60.667 0 -105.5 17.5 -134.5 52.5s-43.5 78.167 -43.5 129.5c-0 72.667 21.333 124.667 64 156s104 47 184 47zM379.001 650.997c16.667 0 38.332 -7.33301 64.999 -22s48.667 -22 66 -22c20.667 0 37.334 4.5 50.001 13.5s26.667 22.833 42 41.5
c-6 -32 -18.5 -58.833 -37.5 -80.5s-42.5 -32.5 -70.5 -32.5c-14 0 -35.667 7.33301 -65 22s-51.666 22 -66.999 22c-22 0 -38.333 -4 -49 -12s-25 -22 -43 -42c5.33301 30.667 18.166 57 38.499 79s43.833 33 70.5 33z" />
    <glyph glyph-name="Ograve" unicode="&#xd2;" horiz-adv-x="706" 
d="M360 534c107.333 0 188.669 -26.666 244.002 -79.999s83 -130.666 83 -231.999c0 -115.333 -29 -203 -87 -263s-140 -90 -246 -90c-107.333 0 -188.833 27.167 -244.5 81.5s-83.5 129.5 -83.5 225.5c0 45.333 8.66699 95.166 26 149.499s50.666 102.666 99.999 144.999
s118.666 63.5 207.999 63.5zM401.003 548.001c-10 0 -38 12.833 -84 38.5s-69 48.167 -69 67.5c0 8 7.33301 12 22 12c23.333 0 53 -19.667 89 -59zM126.003 270.001c0 -114 21.499 -204.833 64.499 -272.5s110.833 -101.5 203.5 -101.5c73.333 0 124.333 20.5 153 61.5
s43 98.5 43 172.5c0 136 -24.167 233 -72.5 291s-111.166 87 -188.499 87c-61.333 0 -110.5 -17.833 -147.5 -53.5s-55.5 -97.167 -55.5 -184.5z" />
    <glyph glyph-name="Oacute" unicode="&#xd3;" horiz-adv-x="706" 
d="M360 534c107.333 0 188.669 -26.666 244.002 -79.999s83 -130.666 83 -231.999c0 -115.333 -29 -203 -87 -263s-140 -90 -246 -90c-107.333 0 -188.833 27.167 -244.5 81.5s-83.5 129.5 -83.5 225.5c0 45.333 8.66699 95.166 26 149.499s50.666 102.666 99.999 144.999
s118.666 63.5 207.999 63.5zM457.003 664.001c14 0 21 -4.33203 21 -12.999c0 -18.667 -22.833 -40.834 -68.5 -66.501s-73.5 -38.5 -83.5 -38.5l41 59c35.333 39.333 65.333 59 90 59zM126.003 270.002c0 -114 21.499 -204.833 64.499 -272.5s110.833 -101.5 203.5 -101.5
c73.333 0 124.333 20.5 153 61.5s43 98.5 43 172.5c0 136 -24.167 233 -72.5 291s-111.166 87 -188.499 87c-61.333 0 -110.5 -17.833 -147.5 -53.5s-55.5 -97.167 -55.5 -184.5z" />
    <glyph glyph-name="Ocircumflex" unicode="&#xd4;" horiz-adv-x="706" 
d="M360 534c107.333 0 188.669 -26.666 244.002 -79.999s83 -130.666 83 -231.999c0 -115.333 -29 -203 -87 -263s-140 -90 -246 -90c-107.333 0 -188.833 27.167 -244.5 81.5s-83.5 129.5 -83.5 225.5c0 45.333 8.66699 95.166 26 149.499s50.666 102.666 99.999 144.999
s118.666 63.5 207.999 63.5zM493.003 553.001c-22.667 10 -47.1641 20.001 -73.4971 30.001s-46.5 15 -60.5 15c-16 0 -37.333 -4.83301 -64 -14.5s-52.334 -19.834 -77.001 -30.501c16.667 32 38.667 55 66 69s53.333 25 78 33c25.333 -8 51.166 -19 77.499 -33
s44.166 -37 53.499 -69zM126.006 270.002c0 -114 21.499 -204.833 64.499 -272.5s110.833 -101.5 203.5 -101.5c73.333 0 124.333 20.5 153 61.5s43 98.5 43 172.5c0 136 -24.167 233 -72.5 291s-111.166 87 -188.499 87c-61.333 0 -110.5 -17.833 -147.5 -53.5
s-55.5 -97.167 -55.5 -184.5z" />
    <glyph glyph-name="Otilde" unicode="&#xd5;" horiz-adv-x="706" 
d="M360 534c107.333 0 188.669 -26.666 244.002 -79.999s83 -130.666 83 -231.999c0 -115.333 -29 -203 -87 -263s-140 -90 -246 -90c-107.333 0 -188.833 27.167 -244.5 81.5s-83.5 129.5 -83.5 225.5c0 45.333 8.66699 95.166 26 149.499s50.666 102.666 99.999 144.999
s118.666 63.5 207.999 63.5zM283.003 658.001c16.667 0 38.333 -7.33203 65 -21.999s48.667 -22 66 -22c26 0 44.667 5.16699 56 15.5s23.333 23.166 36 38.499c-6 -32 -18.5 -58.833 -37.5 -80.5s-42.5 -32.5 -70.5 -32.5c-14 0 -35.667 7.33301 -65 22
s-51.666 22 -66.999 22c-22 0 -38.333 -4 -49 -12s-25 -21.667 -43 -41c5.33301 30.667 18.166 57 38.499 79s43.833 33 70.5 33zM126.002 270.002c0 -114 21.499 -204.833 64.499 -272.5s110.833 -101.5 203.5 -101.5c73.333 0 124.333 20.5 153 61.5s43 98.5 43 172.5
c0 136 -24.167 233 -72.5 291s-111.166 87 -188.499 87c-61.333 0 -110.5 -17.833 -147.5 -53.5s-55.5 -97.167 -55.5 -184.5z" />
    <glyph glyph-name="Odieresis" unicode="&#xd6;" horiz-adv-x="706" 
d="M360 534c107.333 0 188.669 -26.666 244.002 -79.999s83 -130.666 83 -231.999c0 -115.333 -29 -203 -87 -263s-140 -90 -246 -90c-107.333 0 -188.833 27.167 -244.5 81.5s-83.5 129.5 -83.5 225.5c0 45.333 8.66699 95.166 26 149.499s50.666 102.666 99.999 144.999
s118.666 63.5 207.999 63.5zM286.003 640.001c8.66699 0 15.834 -4.16602 21.501 -12.499s8.5 -17.5 8.5 -27.5c0 -12.667 -3.83301 -20.834 -11.5 -24.501s-17.167 -5.5 -28.5 -5.5c-8.66699 0 -15.834 4.16699 -21.501 12.5s-8.5 17.5 -8.5 27.5c0 20 13.333 30 40 30z
M419.003 640.002c9.33301 0 16.833 -3.99805 22.5 -11.998s8.5 -17.333 8.5 -28c0 -12.667 -3.83301 -20.834 -11.5 -24.501s-17.167 -5.5 -28.5 -5.5c-8.66699 0 -15.834 4.5 -21.501 13.5s-8.5 17.833 -8.5 26.5c0 9.33301 3.83301 16.666 11.5 21.999s16.834 8 27.501 8z
M126.003 270.004c0 -114 21.499 -204.833 64.499 -272.5s110.833 -101.5 203.5 -101.5c73.333 0 124.333 20.5 153 61.5s43 98.5 43 172.5c0 136 -24.167 233 -72.5 291s-111.166 87 -188.499 87c-61.333 0 -110.5 -17.833 -147.5 -53.5s-55.5 -97.167 -55.5 -184.5z" />
    <glyph glyph-name="Oslash" unicode="&#xd8;" horiz-adv-x="882" 
d="M709 603c100 -63.333 149.999 -171.667 149.999 -325c0 -143.333 -36.5 -252.833 -109.5 -328.5s-175.5 -113.5 -307.5 -113.5c-78 0 -145.667 12.333 -203 37l-23 -36h-50l35 55c-55.333 31.333 -97.166 74.833 -125.499 130.5s-42.5 121.5 -42.5 197.5
c0 57.333 10.667 119.5 32 186.5s63 127.167 125 180.5s148.667 80 260 80c88 0 162.333 -14.667 223 -44l26 42h50zM653.999 516.999l-370.001 -573c27.333 -24.667 57.833 -43.167 91.5 -55.5s72.5 -18.5 116.5 -18.5c92 0 156 25.667 192 77s54 123 54 215
c0 70 -6.16699 135.167 -18.5 195.5s-34.166 113.5 -65.499 159.5zM253.998 -25.001l371.001 575c-25.333 27.333 -55.5 48.333 -90.5 63s-76.167 22 -123.5 22c-76 0 -137.167 -22.5 -183.5 -67.5s-69.5 -121.833 -69.5 -230.5c0 -78.667 7.66699 -148.167 23 -208.5
s39.666 -111.5 72.999 -153.5z" />
    <glyph glyph-name="Ugrave" unicode="&#xd9;" horiz-adv-x="738" 
d="M285 511l186.999 -0.00390625c-63.333 -66.667 -109.166 -128.334 -137.499 -185.001s-42.5 -115.667 -42.5 -177c0 -81.333 13.833 -132.833 41.5 -154.5s67.834 -32.5 120.501 -32.5c32.667 0 63.5 10.667 92.5 32s43.5 46.333 43.5 75v395
c0 14.667 -3.5 24.834 -10.5 30.501s-17.167 11.167 -30.5 16.5h154c14 0 27.5 -4 40.5 -12s23.167 -18.333 30.5 -31c-8 4.66699 -16 9.66699 -24 15c-10 5.33301 -19 8 -27 8c-8.66699 0 -16.334 -4 -23.001 -12s-10 -17.667 -10 -29v-408c0 -17.333 6.16699 -34 18.5 -50
s31.833 -29 58.5 -39h-177v41c-21.333 -29.333 -49.333 -56.666 -84 -81.999s-74.667 -38 -120 -38c-74 0 -125.667 21.667 -155 65s-44 102.333 -44 177c0 59.333 11.333 113.5 34 162.5s49 89.833 79 122.5s60.667 61.334 92 86.001h-141c-68 0 -118.5 -16.5 -151.5 -49.5
s-49.5 -75.5 -49.5 -127.5c0 -35.333 7.33301 -68.166 22 -98.499s37.667 -53.5 69 -69.5c-42 4.66699 -75.5 22.334 -100.5 53.001s-37.5 66.667 -37.5 108c0 49.333 22 96.333 66 141s116 67 216 67zM544.999 547.996c-10 0 -38 12.833 -84 38.5s-69 48.167 -69 67.5
c0 8 7.33301 12 22 12c23.333 0 53 -19.667 89 -59z" />
    <glyph glyph-name="Uacute" unicode="&#xda;" horiz-adv-x="738" 
d="M288 511l187 -0.00292969c-63.333 -66.667 -109.166 -128.334 -137.499 -185.001s-42.5 -115.667 -42.5 -177c0 -81.333 13.833 -132.833 41.5 -154.5s67.834 -32.5 120.501 -32.5c32.667 0 63.5 10.667 92.5 32s43.5 46.333 43.5 75v395
c0 14.667 -3.5 24.834 -10.5 30.501s-17.167 11.167 -30.5 16.5h154c14 0 27.667 -4 41 -12s23.666 -18.333 30.999 -31c-19.333 11.333 -31.166 18 -35.499 20s-9.83301 3 -16.5 3c-8.66699 0 -16.334 -4 -23.001 -12s-10 -17.667 -10 -29v-408
c0 -17.333 6.16699 -34 18.5 -50s31.833 -29 58.5 -39h-177v41c-21.333 -29.333 -49.333 -56.666 -84 -81.999s-74.667 -38 -120 -38c-74 0 -125.667 21.667 -155 65s-44 102.333 -44 177c0 59.333 11.333 113.5 34 162.5s49 89.833 79 122.5s60.667 61.334 92 86.001h-141
c-67.333 0 -117.5 -16.5 -150.5 -49.5s-49.5 -75.5 -49.5 -127.5c0 -36.667 7.16699 -69.667 21.5 -99s37.166 -52.333 68.499 -69c-42 4.66699 -75.5 22.334 -100.5 53.001s-37.5 66.667 -37.5 108c0 49.333 22 96.333 66 141s116 67 216 67zM652 663.997
c14.667 0 22 -4.33203 22 -12.999c0 -18.667 -23 -40.834 -69 -66.501s-74 -38.5 -84 -38.5l41 59c35.333 39.333 65.333 59 90 59z" />
    <glyph glyph-name="Ucircumflex" unicode="&#xdb;" horiz-adv-x="738" 
d="M282 511l187.001 -0.00390625c-62.667 -66 -108.334 -127.5 -137.001 -184.5s-43 -116.167 -43 -177.5c0 -81.333 13.833 -132.833 41.5 -154.5s67.5 -32.5 119.5 -32.5c33.333 0 64.333 10.667 93 32s43 46.333 43 75v395c0 14.667 -3.5 25 -10.5 31
s-16.833 11.333 -29.5 16h154c14 0 27.5 -4 40.5 -12s23.167 -18.333 30.5 -31c-8 4.66699 -16 9.66699 -24 15c-10 5.33301 -19 8 -27 8c-6.66699 0 -14 -3 -22 -9s-12 -16.667 -12 -32v-408c0 -16.667 6.5 -33.167 19.5 -49.5s32.5 -29.5 58.5 -39.5h-178v41
c-20.667 -29.333 -48.334 -56.666 -83.001 -81.999s-75 -38 -121 -38c-73.333 0 -124.666 21.667 -153.999 65s-44 102.333 -44 177c0 59.333 11.333 113.5 34 162.5s49 89.833 79 122.5s60.667 61.334 92 86.001h-141c-68 0 -118.5 -16.5 -151.5 -49.5
s-49.5 -75.5 -49.5 -127.5c0 -35.333 7.33301 -68.166 22 -98.499s37.667 -53.5 69 -69.5c-42 4.66699 -75.5 22.334 -100.5 53.001s-37.5 66.667 -37.5 108c0 49.333 22 96.333 66 141s116 67 216 67zM634.001 552.996c-22.667 10 -47.166 20.001 -73.499 30.001
s-46.5 15 -60.5 15c-16 0 -37.333 -4.83301 -64 -14.5s-52.334 -19.834 -77.001 -30.501c16.667 32 38.667 55 66 69s53.333 25 78 33c24.667 -8 50.167 -19 76.5 -33s44.5 -37 54.5 -69z" />
    <glyph glyph-name="Udieresis" unicode="&#xdc;" horiz-adv-x="738" 
d="M282 511l187.001 -0.00390625c-62.667 -66 -108.334 -127.5 -137.001 -184.5s-43 -116.167 -43 -177.5c0 -81.333 13.833 -132.833 41.5 -154.5s67.5 -32.5 119.5 -32.5c33.333 0 64.333 10.667 93 32s43 46.333 43 75v395c0 14.667 -3.5 25 -10.5 31
s-16.833 11.333 -29.5 16h154c14 0 27.5 -4 40.5 -12s23.167 -18.333 30.5 -31c-8 4.66699 -16 9.66699 -24 15c-10 5.33301 -19 8 -27 8c-6.66699 0 -14 -3 -22 -9s-12 -16.667 -12 -32v-408c0 -16.667 6.5 -33.167 19.5 -49.5s32.5 -29.5 58.5 -39.5h-178v41
c-20.667 -29.333 -48.334 -56.666 -83.001 -81.999s-75 -38 -121 -38c-73.333 0 -124.666 21.667 -153.999 65s-44 102.333 -44 177c0 59.333 11.333 113.5 34 162.5s49 89.833 79 122.5s60.667 61.334 92 86.001h-141c-68 0 -118.5 -16.5 -151.5 -49.5
s-49.5 -75.5 -49.5 -127.5c0 -35.333 7.33301 -68.166 22 -98.499s37.667 -53.5 69 -69.5c-42 4.66699 -75.5 22.334 -100.5 53.001s-37.5 66.667 -37.5 108c0 49.333 22 96.333 66 141s116 67 216 67zM449.001 629.996c9.33301 0 16.668 -4 22.001 -12s8 -17.333 8 -28
c0 -12.667 -3.83301 -20.667 -11.5 -24s-17.167 -5 -28.5 -5c-8.66699 0 -15.834 4.16699 -21.501 12.5s-8.5 17.5 -8.5 27.5c0 8 3.5 14.833 10.5 20.5s16.833 8.5 29.5 8.5zM582.003 629.996c9.33301 0 16.834 -3.83301 22.501 -11.5s8.5 -17.167 8.5 -28.5
c0 -12.667 -3.83301 -20.667 -11.5 -24s-17.167 -5 -28.5 -5c-6.66699 0 -13.334 3.33301 -20.001 10s-10 16.667 -10 30c0 8.66699 4 15.667 12 21s17 8 27 8z" />
    <glyph glyph-name="germandbls" unicode="&#xdf;" horiz-adv-x="560" 
d="M359 512c-22 16 -45.4951 31.667 -70.4951 47s-47.167 23 -66.5 23c-8.66699 0 -16.834 -4 -24.501 -12s-13.334 -15.667 -17.001 -23s-5.5 -14.333 -5.5 -21v-519c0 -46 -22 -110.167 -66 -192.5s-72 -129.5 -84 -141.5s-24 -19 -36 -21s-26 -3 -42 -3
c-16.667 0 -31.834 0.666992 -45.501 2s-21.834 2.33301 -24.501 3c4 8.66699 16.167 28 36.5 58s32.5 45 36.5 45c7.33301 0 15.166 -0.333008 23.499 -1s14.833 -1 19.5 -1c37.333 0 62.333 6 75 18s19 33 19 63v501c-12 9.33301 -26.333 14 -43 14
c-12.667 0 -25.334 -5.66699 -38.001 -17l62 76h19c0 71.333 25.167 131.833 75.5 181.5s89.166 74.5 116.499 74.5c20 0 55.833 -16 107.5 -48s79.834 -51.667 84.501 -59c-13.333 2 -46.166 -22.667 -98.499 -74s-78.5 -83 -78.5 -95c0 -20.667 28 -43 84 -67
s97 -44.833 123 -62.5s39 -49.167 39 -94.5c0 -55.333 -18.167 -97.5 -54.5 -126.5s-76.5 -43.5 -120.5 -43.5c-51.333 0 -83.833 9.16699 -97.5 27.5s-20.5 63.5 -20.5 135.5c15.333 -39.333 34.833 -72 58.5 -98s57.167 -39 100.5 -39c23.333 0 41.833 11.667 55.5 35
s20.5 48.333 20.5 75c0 26 -18.833 48.833 -56.5 68.5l-111.5 58.5c-39.333 28 -59 63.333 -59 106c0 28.667 16.833 60.5 50.5 95.5s51.5 52.167 53.5 51.5z" />
    <glyph glyph-name="agrave" unicode="&#xe0;" horiz-adv-x="462" 
d="M383 428l0.000976562 -370.001c0.666992 -8.66699 5 -13 13 -13c6 0 13.167 2.16699 21.5 6.5s21.833 11.833 40.5 22.5c-8.66699 -18 -23.167 -35.667 -43.5 -53s-39.833 -26 -58.5 -26c-10.667 0 -24.5 7.33301 -41.5 22s-25.5 34.334 -25.5 59.001v54
c-40.667 -40.667 -75 -73.334 -103 -98.001s-52.333 -37 -73 -37c-22.667 0 -42.834 13.333 -60.501 40s-26.5 62.334 -26.5 107.001c0 90.667 25 161 75 211s115 75 195 75h87zM314.001 465.999c-10 0 -37.833 16 -83.5 48s-68.5 60 -68.5 84c0 10.667 7 16 21 16
c23.333 0 53 -24.667 89 -74zM122.001 217.999c0 -32.667 5.33203 -56.668 15.999 -72.001s25.334 -23 44.001 -23c16 0 33.167 4.83301 51.5 14.5s36.833 22.834 55.5 39.501v223c-50 0 -90.333 -18.5 -121 -55.5s-46 -79.167 -46 -126.5z" />
    <glyph glyph-name="aacute" unicode="&#xe1;" horiz-adv-x="462" 
d="M383 428l0.000976562 -370.001c0.666992 -8.66699 5 -13 13 -13c6 0 13.167 2.16699 21.5 6.5s21.833 11.833 40.5 22.5c-8.66699 -18 -23.167 -35.667 -43.5 -53s-39.833 -26 -58.5 -26c-10.667 0 -24.5 7.33301 -41.5 22s-25.5 34.334 -25.5 59.001v54
c-40.667 -40.667 -75 -73.334 -103 -98.001s-52.333 -37 -73 -37c-22.667 0 -42.834 13.333 -60.501 40s-26.5 62.334 -26.5 107.001c0 90.667 25 161 75 211s115 75 195 75h87zM361.001 627.999c14 0 21 -5.33301 21 -16c0 -24 -22.833 -52 -68.5 -84s-73.5 -48 -83.5 -48
l41 74c35.333 49.333 65.333 74 90 74zM122.001 217.999c0 -32.667 5.33203 -56.668 15.999 -72.001s25.334 -23 44.001 -23c16 0 33.167 4.83301 51.5 14.5s36.833 22.834 55.5 39.501v223c-50 0 -90.333 -18.5 -121 -55.5s-46 -79.167 -46 -126.5z" />
    <glyph glyph-name="acircumflex" unicode="&#xe2;" horiz-adv-x="462" 
d="M383 428l0.000976562 -370.001c0.666992 -8.66699 5 -13 13 -13c6 0 13.167 2.16699 21.5 6.5s21.833 11.833 40.5 22.5c-8.66699 -18 -23.167 -35.667 -43.5 -53s-39.833 -26 -58.5 -26c-10.667 0 -24.5 7.33301 -41.5 22s-25.5 34.334 -25.5 59.001v54
c-40.667 -40.667 -75 -73.334 -103 -98.001s-52.333 -37 -73 -37c-22.667 0 -42.834 13.333 -60.501 40s-26.5 62.334 -26.5 107.001c0 90.667 25 161 75 211s115 75 195 75h87zM396.001 501.999c-25.333 14.667 -52.168 29.002 -80.501 43.002s-50.833 21 -67.5 21
s-40 -7 -70 -21s-59 -28.333 -87 -43c18.667 45.333 43.167 78.166 73.5 98.499s59.166 36.166 86.499 47.499c26.667 -10.667 54.834 -26 84.501 -46s49.834 -53.333 60.501 -100zM121.999 218.001c0 -32.667 5.33203 -56.668 15.999 -72.001s25.334 -23 44.001 -23
c16 0 33.167 4.83301 51.5 14.5s36.833 22.834 55.5 39.501v223c-50 0 -90.333 -18.5 -121 -55.5s-46 -79.167 -46 -126.5z" />
    <glyph glyph-name="atilde" unicode="&#xe3;" horiz-adv-x="462" 
d="M383 428l0.000976562 -370.001c0.666992 -8.66699 5 -13 13 -13c6 0 13.167 2.16699 21.5 6.5s21.833 11.833 40.5 22.5c-8.66699 -18 -23.167 -35.667 -43.5 -53s-39.833 -26 -58.5 -26c-10.667 0 -24.5 7.33301 -41.5 22s-25.5 34.334 -25.5 59.001v54
c-40.667 -40.667 -75 -73.334 -103 -98.001s-52.333 -37 -73 -37c-22.667 0 -42.834 13.333 -60.501 40s-26.5 62.334 -26.5 107.001c0 90.667 25 161 75 211s115 75 195 75h87zM171.001 599.999c16.667 0 38.333 -7.33203 65 -21.999s48.667 -22 66 -22
c26 0 44.667 5.16699 56 15.5s23.333 23.166 36 38.499c-6 -31.333 -18.5 -57.833 -37.5 -79.5s-42.5 -32.5 -70.5 -32.5c-14 0 -35.667 7.33301 -65 22s-51.666 22 -66.999 22c-22 0 -38.333 -4 -49 -12s-25 -22 -43 -42c5.33301 30.667 18.166 57 38.499 79
s43.833 33 70.5 33zM122 218c0 -32.667 5.33203 -56.668 15.999 -72.001s25.334 -23 44.001 -23c16 0 33.167 4.83301 51.5 14.5s36.833 22.834 55.5 39.501v223c-50 0 -90.333 -18.5 -121 -55.5s-46 -79.167 -46 -126.5z" />
    <glyph glyph-name="adieresis" unicode="&#xe4;" horiz-adv-x="462" 
d="M383 428l0.000976562 -370.001c0.666992 -8.66699 5 -13 13 -13c6 0 13.167 2.16699 21.5 6.5s21.833 11.833 40.5 22.5c-8.66699 -18 -23.167 -35.667 -43.5 -53s-39.833 -26 -58.5 -26c-10.667 0 -24.5 7.33301 -41.5 22s-25.5 34.334 -25.5 59.001v54
c-40.667 -40.667 -75 -73.334 -103 -98.001s-52.333 -37 -73 -37c-22.667 0 -42.834 13.333 -60.501 40s-26.5 62.334 -26.5 107.001c0 90.667 25 161 75 211s115 75 195 75h87zM183.001 572.999c9.33301 0 16.833 -4 22.5 -12s8.5 -17.333 8.5 -28
c0 -12.667 -3.83301 -20.834 -11.5 -24.501s-17.167 -5.5 -28.5 -5.5c-9.33301 0 -16.833 4.16699 -22.5 12.5s-8.5 17.5 -8.5 27.5c0 8.66699 3.5 15.834 10.5 21.501s16.833 8.5 29.5 8.5zM317.001 572.999c8.66699 0 15.832 -4.16504 21.499 -12.498s8.5 -17.5 8.5 -27.5
c0 -12.667 -3.83301 -20.834 -11.5 -24.501s-17.167 -5.5 -28.5 -5.5c-6 0 -12.333 3.5 -19 10.5s-10 16.833 -10 29.5c0 9.33301 3.83301 16.666 11.5 21.999s16.834 8 27.501 8zM121.999 218.001c0 -32.667 5.33203 -56.668 15.999 -72.001s25.334 -23 44.001 -23
c16 0 33.167 4.83301 51.5 14.5s36.833 22.834 55.5 39.501v223c-50 0 -90.333 -18.5 -121 -55.5s-46 -79.167 -46 -126.5z" />
    <glyph glyph-name="aring" unicode="&#xe5;" horiz-adv-x="462" 
d="M383 428l0.000976562 -370.001c0.666992 -8.66699 5 -13 13 -13c6 0 13.167 2.16699 21.5 6.5s21.833 11.833 40.5 22.5c-8.66699 -18 -23.167 -35.667 -43.5 -53s-39.833 -26 -58.5 -26c-10.667 0 -24.5 7.33301 -41.5 22s-25.5 34.334 -25.5 59.001v54
c-40.667 -40.667 -75 -73.334 -103 -98.001s-52.333 -37 -73 -37c-22.667 0 -42.834 13.333 -60.501 40s-26.5 62.334 -26.5 107.001c0 90.667 25 161 75 211s115 75 195 75h87zM190.001 558.999c0 26 9.00098 48 27.001 66s40 27 66 27
c25.333 0 47.166 -8.83301 65.499 -26.5s27.5 -39.5 27.5 -65.5s-9.16699 -47.5 -27.5 -64.5s-40.833 -25.5 -67.5 -25.5c-24 0 -45.167 8.83301 -63.5 26.5s-27.5 38.5 -27.5 62.5zM122.002 217.999c0 -32.667 5.33203 -56.668 15.999 -72.001s25.334 -23 44.001 -23
c16 0 33.167 4.83301 51.5 14.5s36.833 22.834 55.5 39.501v223c-50 0 -90.333 -18.5 -121 -55.5s-46 -79.167 -46 -126.5zM332.001 561.998c0 12.667 -4.99902 23.334 -14.999 32.001s-21.667 13 -35 13s-24.333 -4.33301 -33 -13s-13 -19.334 -13 -32.001
c0 -13.333 4.5 -24.333 13.5 -33s20.5 -13 34.5 -13c13.333 0 24.666 4.33301 33.999 13s14 19.667 14 33z" />
    <glyph glyph-name="ae" unicode="&#xe6;" horiz-adv-x="672" 
d="M290 132c-46 -46 -81.6641 -80.334 -106.997 -103.001s-48.666 -34 -69.999 -34c-22.667 0 -42.834 13.333 -60.501 40s-26.5 62.334 -26.5 107.001c0 91.333 25 162.333 75 213s115 76 195 76l187 1c36.667 0 66.5 -5 89.5 -15s48.833 -29 77.5 -57l-244 -243
c12 -18.667 26 -32 42 -40s40.667 -12 74 -12c25.333 0 48.666 5.66699 69.999 17s40.666 23.333 57.999 36c-26.667 -40.667 -56 -71.167 -88 -91.5s-68.667 -30.5 -110 -30.5c-48 0 -85.333 14.5 -112 43.5s-43.334 59.833 -50.001 92.5zM122.003 207.999
c0 -32 4.66699 -54.999 14 -68.999s23 -21 41 -21c15.333 0 33.166 5.66699 53.499 17s39.833 25.333 58.5 42c0 42.667 6 82.667 18 120s43.333 72.666 94 105.999h-84c-73.333 0 -124.166 -20.5 -152.499 -61.5s-42.5 -85.5 -42.5 -133.5zM397.003 140l69.999 68
c35.333 38 53 66.667 53 86c0 23.333 -5.66699 41.5 -17 54.5s-26.333 19.5 -45 19.5c-21.333 0 -39.166 -12.667 -53.499 -38s-21.5 -52.333 -21.5 -81c0 -22 1.33301 -43 4 -63s6 -35.333 10 -46z" />
    <glyph glyph-name="ccedilla" unicode="&#xe7;" horiz-adv-x="394" 
d="M142 -2c-52.667 5.33301 -86.499 24.8301 -101.499 58.4971s-22.5 73.5 -22.5 119.5c0 76.667 22 138.334 66 185.001s100.667 70 170 70c26 0 53.333 -8.5 82 -25.5s43 -37.833 43 -62.5c0 -6.66699 -8.66699 -19 -26 -37s-32.333 -30.667 -45 -38
c-6 30 -21.333 54.333 -46 73s-50 28 -76 28c-24.667 0 -44.834 -13.5 -60.501 -40.5s-23.5 -58.5 -23.5 -94.5c0 -64 14.833 -109.167 44.5 -135.5s63.5 -39.5 101.5 -39.5c16 0 33.333 4.5 52 13.5s38 20.167 58 33.5c-26 -40 -51.5 -68.333 -76.5 -85
s-58.5 -25 -100.5 -25l-3 -38l27 2c16 0 30 -6 42 -18s18 -27.667 18 -47c0 -28 -8.16699 -49.167 -24.5 -63.5s-36.166 -21.5 -59.499 -21.5c-18.667 0 -38.667 2 -60 6s-38 11.333 -50 22h20c33.333 0 60.666 3.83301 81.999 11.5s32 23.834 32 48.501
c0 12.667 -4.66699 21.834 -14 27.501s-19.333 8.5 -30 8.5h-25z" />
    <glyph glyph-name="egrave" unicode="&#xe8;" horiz-adv-x="414" 
d="M256 432c26 0 47.498 -4.66797 64.498 -14.001s40.167 -28.666 69.5 -57.999l-243 -243c13.333 -22 29.833 -36.167 49.5 -42.5s41.834 -9.5 66.501 -9.5s47.834 5.66699 69.501 17s41.167 23.333 58.5 36c-26.667 -40.667 -56 -71.167 -88 -91.5
s-68.667 -30.5 -110 -30.5c-59.333 0 -101.333 19 -126 57s-37 79 -37 123c0 77.333 21.667 139.333 65 186s97 70 161 70zM278.998 465.999c-10 0 -38 16.168 -84 48.501s-69 60.166 -69 83.499c0 10.667 7.33301 16 22 16c23.333 0 53 -24.667 89 -74zM137.998 140
l69.999 68c35.333 38 53 66.667 53 86c0 23.333 -5.66699 41.5 -17 54.5s-26.333 19.5 -45 19.5c-23.333 0 -41.666 -13.833 -54.999 -41.5s-20 -60.5 -20 -98.5c0 -16 1 -31.167 3 -45.5s5.66699 -28.5 11 -42.5z" />
    <glyph glyph-name="eacute" unicode="&#xe9;" horiz-adv-x="414" 
d="M256 432c26 0 47.498 -4.66797 64.498 -14.001s40.167 -28.666 69.5 -57.999l-243 -243c13.333 -22 29.833 -36.167 49.5 -42.5s41.834 -9.5 66.501 -9.5s47.834 5.66699 69.501 17s41.167 23.333 58.5 36c-26.667 -40.667 -56 -71.167 -88 -91.5
s-68.667 -30.5 -110 -30.5c-59.333 0 -101.333 19 -126 57s-37 79 -37 123c0 77.333 21.667 139.333 65 186s97 70 161 70zM315.998 627.999c14.667 0 22.001 -5.33301 22.001 -16c0 -24 -22.833 -52 -68.5 -84s-73.834 -48 -84.501 -48l41 74
c35.333 49.333 65.333 74 90 74zM137.999 139.999l69.999 68c35.333 38 53 66.667 53 86c0 23.333 -5.66699 41.5 -17 54.5s-26.333 19.5 -45 19.5c-23.333 0 -41.666 -13.833 -54.999 -41.5s-20 -60.5 -20 -98.5c0 -16 1 -31.167 3 -45.5s5.66699 -28.5 11 -42.5z" />
    <glyph glyph-name="ecircumflex" unicode="&#xea;" horiz-adv-x="414" 
d="M256 432c26 0 47.498 -4.66797 64.498 -14.001s40.167 -28.666 69.5 -57.999l-243 -243c13.333 -22 29.833 -36.167 49.5 -42.5s41.834 -9.5 66.501 -9.5s47.834 5.66699 69.501 17s41.167 23.333 58.5 36c-26.667 -40.667 -56 -71.167 -88 -91.5
s-68.667 -30.5 -110 -30.5c-59.333 0 -101.333 19 -126 57s-37 79 -37 123c0 77.333 21.667 139.333 65 186s97 70 161 70zM376.998 501.999c-25.333 14.667 -52.168 29.002 -80.501 43.002s-50.833 21 -67.5 21s-40 -7 -70 -21s-59 -28.333 -87 -43
c18.667 45.333 43.167 78.166 73.5 98.499s59.166 36.166 86.499 47.499c26.667 -10.667 54.834 -26 84.501 -46s49.834 -53.333 60.501 -100zM137.996 140.001l69.999 68c35.333 38 53 66.667 53 86c0 23.333 -5.66699 41.5 -17 54.5s-26.333 19.5 -45 19.5
c-23.333 0 -41.666 -13.833 -54.999 -41.5s-20 -60.5 -20 -98.5c0 -16 1 -31.167 3 -45.5s5.66699 -28.5 11 -42.5z" />
    <glyph glyph-name="edieresis" unicode="&#xeb;" horiz-adv-x="414" 
d="M256 432c26 0 47.498 -4.66797 64.498 -14.001s40.167 -28.666 69.5 -57.999l-243 -243c13.333 -22 29.833 -36.167 49.5 -42.5s41.834 -9.5 66.501 -9.5s47.834 5.66699 69.501 17s41.167 23.333 58.5 36c-26.667 -40.667 -56 -71.167 -88 -91.5
s-68.667 -30.5 -110 -30.5c-59.333 0 -101.333 19 -126 57s-37 79 -37 123c0 77.333 21.667 139.333 65 186s97 70 161 70zM173.998 572.999c8.66699 0 15.834 -4.16602 21.501 -12.499s8.5 -17.5 8.5 -27.5c0 -12.667 -3.83301 -20.834 -11.5 -24.501
s-17.167 -5.5 -28.5 -5.5c-8.66699 0 -15.834 4.16699 -21.501 12.5s-8.5 17.5 -8.5 27.5c0 20 13.333 30 40 30zM306.998 573c9.33301 0 16.8311 -3.99805 22.498 -11.998s8.5 -17.333 8.5 -28c0 -12.667 -3.83301 -20.834 -11.5 -24.501s-17.167 -5.5 -28.5 -5.5
c-9.33301 0 -16.666 4.33301 -21.999 13s-8 17.667 -8 27s3.83301 16.666 11.5 21.999s16.834 8 27.501 8zM137.996 140.002l69.999 68c35.333 38 53 66.667 53 86c0 23.333 -5.66699 41.5 -17 54.5s-26.333 19.5 -45 19.5c-23.333 0 -41.666 -13.833 -54.999 -41.5
s-20 -60.5 -20 -98.5c0 -16 1 -31.167 3 -45.5s5.66699 -28.5 11 -42.5z" />
    <glyph glyph-name="igrave" unicode="&#xec;" horiz-adv-x="261" 
d="M122 433c20.667 0 35.168 -8 43.501 -24s12.5 -35 12.5 -57v-281c2.66699 -18.667 9.66699 -28 21 -28c8 0 17.333 4.33301 28 13l21 17c-16 -27.333 -32.167 -47.333 -48.5 -60s-34.833 -19 -55.5 -19c-17.333 0 -31.333 7.33301 -42 22s-16 32 -16 52v295
c0 12.667 -4.66699 19 -14 19c-12.667 0 -32.334 -11.333 -59.001 -34c3.33301 12.667 17 30 41 52s46.667 33 68 33zM170.001 466c-10 0 -37.833 16 -83.5 48s-68.5 60 -68.5 84c0 10.667 7 16 21 16c23.333 0 53 -24.667 89 -74z" />
    <glyph glyph-name="iacute" unicode="&#xed;" horiz-adv-x="261" 
d="M122 433c20.667 0 35.168 -8 43.501 -24s12.5 -35 12.5 -57v-281c2.66699 -18.667 9.66699 -28 21 -28c8 0 17.333 4.33301 28 13l21 17c-16 -27.333 -32.167 -47.333 -48.5 -60s-34.833 -19 -55.5 -19c-17.333 0 -31.333 7.33301 -42 22s-16 32 -16 52v295
c0 12.667 -4.66699 19 -14 19c-12.667 0 -32.334 -11.333 -59.001 -34c3.33301 12.667 17 30 41 52s46.667 33 68 33zM204.001 628c14.667 0 22.001 -5.33301 22.001 -16c0 -24 -22.833 -52 -68.5 -84s-73.834 -48 -84.501 -48l41 74c35.333 49.333 65.333 74 90 74z" />
    <glyph glyph-name="icircumflex" unicode="&#xee;" horiz-adv-x="261" 
d="M122 433c20.667 0 35.168 -8 43.501 -24s12.5 -35 12.5 -57v-281c2.66699 -18.667 9.66699 -28 21 -28c8 0 17.333 4.33301 28 13l21 17c-16 -27.333 -32.167 -47.333 -48.5 -60s-34.833 -19 -55.5 -19c-17.333 0 -31.333 7.33301 -42 22s-16 32 -16 52v295
c0 12.667 -4.66699 19 -14 19c-12.667 0 -32.334 -11.333 -59.001 -34c3.33301 12.667 17 30 41 52s46.667 33 68 33zM284.001 502c-25.333 14.667 -52.168 29.002 -80.501 43.002s-50.833 21 -67.5 21s-40 -7 -70 -21s-59 -28.333 -87 -43
c18.667 45.333 43.167 78.166 73.5 98.499s59.166 36.166 86.499 47.499c26.667 -10.667 54.834 -26 84.501 -46s49.834 -53.333 60.501 -100z" />
    <glyph glyph-name="idieresis" unicode="&#xef;" horiz-adv-x="261" 
d="M122 433c20.667 0 35.168 -8 43.501 -24s12.5 -35 12.5 -57v-281c2.66699 -18.667 9.66699 -28 21 -28c8 0 17.333 4.33301 28 13l21 17c-16 -27.333 -32.167 -47.333 -48.5 -60s-34.833 -19 -55.5 -19c-17.333 0 -31.333 7.33301 -42 22s-16 32 -16 52v295
c0 12.667 -4.66699 19 -14 19c-12.667 0 -32.334 -11.333 -59.001 -34c3.33301 12.667 17 30 41 52s46.667 33 68 33zM65.001 573c8.66699 0 15.834 -4.16602 21.501 -12.499s8.5 -17.5 8.5 -27.5c0 -12.667 -3.83301 -20.834 -11.5 -24.501s-17.167 -5.5 -28.5 -5.5
c-8.66699 0 -15.834 4.16699 -21.501 12.5s-8.5 17.5 -8.5 27.5c0 20 13.333 30 40 30zM198.001 573.001c9.33301 0 16.833 -4.16504 22.5 -12.498s8.5 -17.5 8.5 -27.5c0 -12.667 -3.83301 -20.834 -11.5 -24.501s-17.167 -5.5 -28.5 -5.5
c-6.66699 0 -13.334 3.33301 -20.001 10s-10 16.667 -10 30c0 9.33301 3.83301 16.666 11.5 21.999s16.834 8 27.501 8z" />
    <glyph glyph-name="ntilde" unicode="&#xf1;" horiz-adv-x="446" 
d="M369 63c0 -14.667 4.99902 -22 14.999 -22c13.333 0 31.666 11 54.999 33c-13.333 -25.333 -30.166 -45 -50.499 -59s-38.5 -21 -54.5 -21c-18 0 -32.5 5.5 -43.5 16.5s-16.5 27.833 -16.5 50.5l1 225c0 15.333 -1.66699 27.5 -5 36.5s-12.666 13.5 -27.999 13.5
c-16.667 0 -38.667 -17.5 -66 -52.5s-41 -55.5 -41 -61.5v-170c-3.33301 -14 -14.833 -27.167 -34.5 -39.5s-39.167 -18.5 -58.5 -18.5v342c0 10.667 -4 16 -12 16c-10 0 -29 -9 -57 -27c25.333 32 48.5 57.167 69.5 75.5s37.5 27.5 49.5 27.5
c18.667 0 30.5 -10.167 35.5 -30.5s7.5 -51.833 7.5 -94.5v-37c26 40.667 53.5 77.834 82.5 111.501s59.5 50.5 91.5 50.5c24.667 0 41 -8.33301 49 -25s12 -41.667 12 -75c0 -10 -0.166992 -19.833 -0.5 -29.5s-0.5 -19.5 -0.5 -29.5
c0 -19.333 -0.166992 -39.833 -0.5 -61.5s-0.5 -47.834 -0.5 -78.501v-45.5c0 -13 0.333008 -19.833 1 -20.5zM170.999 600c16.667 0 38.333 -7.33203 65 -21.999s48.667 -22 66 -22c26 0 44.667 5.16699 56 15.5s23.333 23.166 36 38.499
c-6 -31.333 -18.5 -57.833 -37.5 -79.5s-42.5 -32.5 -70.5 -32.5c-14 0 -35.667 7.33301 -65 22s-51.666 22 -66.999 22c-22 0 -38.333 -4 -49 -12s-25 -22 -43 -42c5.33301 30.667 18.166 57 38.499 79s43.833 33 70.5 33z" />
    <glyph glyph-name="ograve" unicode="&#xf2;" 
d="M244 433c54.667 0 97.5 -19.668 128.5 -59.001s46.5 -88 46.5 -146c0 -61.333 -22.667 -115.666 -68 -162.999s-96 -71 -152 -71c-52.667 0 -94.667 19.833 -126 59.5s-47 89.5 -47 149.5s22 113.333 66 160s94.667 70 152 70zM263 465.999c-10 0 -38 16.168 -84 48.501
s-69 60.166 -69 83.499c0 10.667 7.33301 16 22 16c23.333 0 53 -24.667 89 -74zM114 262c0 -54.667 7.16602 -105 21.499 -151s46.5 -69 96.5 -69c28.667 0 52 12 70 36s27 54.667 27 92c0 54 -9 103.5 -27 148.5s-48.667 67.5 -92 67.5
c-29.333 0 -52.666 -11.667 -69.999 -35s-26 -53 -26 -89z" />
    <glyph glyph-name="oacute" unicode="&#xf3;" 
d="M244 433c54.667 0 97.5 -19.668 128.5 -59.001s46.5 -88 46.5 -146c0 -61.333 -22.667 -115.666 -68 -162.999s-96 -71 -152 -71c-52.667 0 -94.667 19.833 -126 59.5s-47 89.5 -47 149.5s22 113.333 66 160s94.667 70 152 70zM300 627.999
c14.667 0 22.001 -5.33301 22.001 -16c0 -24 -22.833 -52 -68.5 -84s-73.834 -48 -84.501 -48l41 74c35.333 49.333 65.333 74 90 74zM114.001 261.999c0 -54.667 7.16602 -105 21.499 -151s46.5 -69 96.5 -69c28.667 0 52 12 70 36s27 54.667 27 92
c0 54 -9 103.5 -27 148.5s-48.667 67.5 -92 67.5c-29.333 0 -52.666 -11.667 -69.999 -35s-26 -53 -26 -89z" />
    <glyph glyph-name="ocircumflex" unicode="&#xf4;" 
d="M244 433c54.667 0 97.5 -19.668 128.5 -59.001s46.5 -88 46.5 -146c0 -61.333 -22.667 -115.666 -68 -162.999s-96 -71 -152 -71c-52.667 0 -94.667 19.833 -126 59.5s-47 89.5 -47 149.5s22 113.333 66 160s94.667 70 152 70zM367 501.999
c-25.333 14.667 -52.165 29.002 -80.498 43.002s-50.833 21 -67.5 21s-40 -7 -70 -21s-59 -28.333 -87 -43c18.667 45.333 43.167 78.166 73.5 98.499s59.166 36.166 86.499 47.499c27.333 -10.667 55.666 -26 84.999 -46s49.333 -53.333 60 -100zM114.001 262.001
c0 -54.667 7.16602 -105 21.499 -151s46.5 -69 96.5 -69c28.667 0 52 12 70 36s27 54.667 27 92c0 54 -9 103.5 -27 148.5s-48.667 67.5 -92 67.5c-29.333 0 -52.666 -11.667 -69.999 -35s-26 -53 -26 -89z" />
    <glyph glyph-name="otilde" unicode="&#xf5;" 
d="M244 433c54.667 0 97.5 -19.668 128.5 -59.001s46.5 -88 46.5 -146c0 -61.333 -22.667 -115.666 -68 -162.999s-96 -71 -152 -71c-52.667 0 -94.667 19.833 -126 59.5s-47 89.5 -47 149.5s22 113.333 66 160s94.667 70 152 70zM171 599.999
c16.667 0 38.333 -7.33203 65 -21.999s48.667 -22 66 -22c26 0 44.667 5.16699 56 15.5s23.333 23.166 36 38.499c-6 -31.333 -18.5 -57.833 -37.5 -79.5s-42.5 -32.5 -70.5 -32.5c-14 0 -35.667 7.33301 -65 22s-51.666 22 -66.999 22c-22 0 -38.333 -4 -49 -12
s-25 -22 -43 -42c5.33301 30.667 18.166 57 38.499 79s43.833 33 70.5 33zM113.999 262c0 -54.667 7.16602 -105 21.499 -151s46.5 -69 96.5 -69c28.667 0 52 12 70 36s27 54.667 27 92c0 54 -9 103.5 -27 148.5s-48.667 67.5 -92 67.5
c-29.333 0 -52.666 -11.667 -69.999 -35s-26 -53 -26 -89z" />
    <glyph glyph-name="odieresis" unicode="&#xf6;" 
d="M244 433c54.667 0 97.5 -19.668 128.5 -59.001s46.5 -88 46.5 -146c0 -61.333 -22.667 -115.666 -68 -162.999s-96 -71 -152 -71c-52.667 0 -94.667 19.833 -126 59.5s-47 89.5 -47 149.5s22 113.333 66 160s94.667 70 152 70zM170 572.999
c9.33301 0 16.833 -4.16699 22.5 -12.5s8.5 -17.5 8.5 -27.5c0 -12.667 -3.83301 -20.834 -11.5 -24.501s-17.167 -5.5 -28.5 -5.5c-9.33301 0 -16.833 4 -22.5 12s-8.5 17.333 -8.5 28c0 8.66699 3.5 15.834 10.5 21.501s16.833 8.5 29.5 8.5zM304 572.999
c8.66699 0 15.832 -4.16504 21.499 -12.498s8.5 -17.5 8.5 -27.5c0 -12.667 -3.66699 -20.834 -11 -24.501s-17 -5.5 -29 -5.5c-6 0 -12.333 3.5 -19 10.5s-10 16.833 -10 29.5c0 9.33301 3.83301 16.666 11.5 21.999s16.834 8 27.501 8zM113.998 262.001
c0 -54.667 7.16602 -105 21.499 -151s46.5 -69 96.5 -69c28.667 0 52 12 70 36s27 54.667 27 92c0 54 -9 103.5 -27 148.5s-48.667 67.5 -92 67.5c-29.333 0 -52.666 -11.667 -69.999 -35s-26 -53 -26 -89z" />
    <glyph glyph-name="divide" unicode="&#xf7;" horiz-adv-x="549" 
d="M275 158c16 0 29.332 -5.33301 39.999 -16s16 -24.334 16 -41.001c0 -16 -5.66699 -29.333 -17 -40c-10 -11.333 -23 -17 -39 -17s-29.5 5.83301 -40.5 17.5s-16.5 24.834 -16.5 39.501c0 16 5.83301 29.5 17.5 40.5s24.834 16.5 39.501 16.5zM505.999 202h-463v68h463
v-68zM274.999 427c16 0 29.332 -5.66797 39.999 -17.001s16 -24.666 16 -39.999c0 -16 -5.66699 -29.333 -17 -40c-10 -11.333 -23 -17 -39 -17s-29.5 5.5 -40.5 16.5s-16.5 24.5 -16.5 40.5s5.83301 29.5 17.5 40.5s24.834 16.5 39.501 16.5z" />
    <glyph glyph-name="oslash" unicode="&#xf8;" 
d="M345 401c23.333 -17.333 41.499 -41.332 54.499 -71.999s19.5 -64.334 19.5 -101.001c0 -61.333 -22.667 -115.666 -68 -162.999s-96 -71 -152 -71c-19.333 0 -38.333 3.33301 -57 10l-30 -60h-50l40 81c-50.667 39.333 -76 98.666 -76 177.999c0 60 22 113.333 66 160
s94.667 70 152 70c22.667 0 43.334 -3.66699 62.001 -11l25 49h50zM301.999 316.001l-130 -253.998c8 -6 17.167 -10.833 27.5 -14.5s21.166 -5.5 32.499 -5.5c28.667 0 52 12 70 36s27 54.667 27 92c0 23.333 -2.16699 48.166 -6.5 74.499s-11.166 50.166 -20.499 71.499z
M141.999 101.003l131.999 258.001c-16.667 18 -38 27 -64 27c-29.333 0 -52.666 -11.667 -69.999 -35s-26 -53 -26 -89c0 -40.667 2 -72.834 6 -96.501s11.333 -45.167 22 -64.5z" />
    <glyph glyph-name="ugrave" unicode="&#xf9;" horiz-adv-x="490" 
d="M94 434c22 0 35.668 -8.33496 41.001 -25.002s8.66602 -33.667 9.99902 -51v-188v-27c0 -20.667 2.5 -36.5 7.5 -47.5s16.5 -16.5 34.5 -16.5c16.667 0 37.334 12.833 62.001 38.5s37 48.5 37 68.5v172c0 20.667 8.83301 38.5 26.5 53.5s39.5 22.5 65.5 22.5v-356
c2 -2.66699 4.5 -5.33398 7.5 -8.00098s8.16699 -4 15.5 -4c9.33301 0 20.5 3.5 33.5 10.5s28.833 19.5 47.5 37.5c-14.667 -23.333 -36.167 -49.166 -64.5 -77.499s-55.166 -42.5 -80.499 -42.5c-18.667 0 -31.834 5.5 -39.501 16.5s-11.5 27.167 -11.5 48.5v44
c-31.333 -33.333 -60 -59.833 -86 -79.5s-53.333 -29.5 -82 -29.5c-24 0 -40.833 11.333 -50.5 34s-14.5 50.334 -14.5 83.001v232c0 12.667 -1.33301 22 -4 28s-8.33398 9 -17.001 9c-10.667 0 -25.667 -6 -45 -18c15.333 24.667 32 42.834 50 54.501s37 17.5 57 17.5z
M241.001 465.998c-10 0 -38 16.168 -84 48.501s-69 60.166 -69 83.499c0 10.667 7.33301 16 22 16c23.333 0 53 -24.667 89 -74z" />
    <glyph glyph-name="uacute" unicode="&#xfa;" horiz-adv-x="490" 
d="M94 434c22 0 35.668 -8.33496 41.001 -25.002s8.66602 -33.667 9.99902 -51v-188v-27c0 -20.667 2.5 -36.5 7.5 -47.5s16.5 -16.5 34.5 -16.5c16.667 0 37.334 12.833 62.001 38.5s37 48.5 37 68.5v172c0 20.667 8.83301 38.5 26.5 53.5s39.5 22.5 65.5 22.5v-356
c2 -2.66699 4.5 -5.33398 7.5 -8.00098s8.16699 -4 15.5 -4c9.33301 0 20.5 3.5 33.5 10.5s28.833 19.5 47.5 37.5c-14.667 -23.333 -36.167 -49.166 -64.5 -77.499s-55.166 -42.5 -80.499 -42.5c-18.667 0 -31.834 5.5 -39.501 16.5s-11.5 27.167 -11.5 48.5v44
c-31.333 -33.333 -60 -59.833 -86 -79.5s-53.333 -29.5 -82 -29.5c-24 0 -40.833 11.333 -50.5 34s-14.5 50.334 -14.5 83.001v232c0 12.667 -1.33301 22 -4 28s-8.33398 9 -17.001 9c-10.667 0 -25.667 -6 -45 -18c15.333 24.667 32 42.834 50 54.501s37 17.5 57 17.5z
M322.001 627.998c14.667 0 22.001 -5.33301 22.001 -16c0 -24 -22.833 -52 -68.5 -84s-73.834 -48 -84.501 -48l41 74c35.333 49.333 65.333 74 90 74z" />
    <glyph glyph-name="ucircumflex" unicode="&#xfb;" horiz-adv-x="490" 
d="M94 434c22 0 35.668 -8.33496 41.001 -25.002s8.66602 -33.667 9.99902 -51v-188v-27c0 -20.667 2.5 -36.5 7.5 -47.5s16.5 -16.5 34.5 -16.5c16.667 0 37.334 12.833 62.001 38.5s37 48.5 37 68.5v172c0 20.667 8.83301 38.5 26.5 53.5s39.5 22.5 65.5 22.5v-356
c2 -2.66699 4.5 -5.33398 7.5 -8.00098s8.16699 -4 15.5 -4c9.33301 0 20.5 3.5 33.5 10.5s28.833 19.5 47.5 37.5c-14.667 -23.333 -36.167 -49.166 -64.5 -77.499s-55.166 -42.5 -80.499 -42.5c-18.667 0 -31.834 5.5 -39.501 16.5s-11.5 27.167 -11.5 48.5v44
c-31.333 -33.333 -60 -59.833 -86 -79.5s-53.333 -29.5 -82 -29.5c-24 0 -40.833 11.333 -50.5 34s-14.5 50.334 -14.5 83.001v232c0 12.667 -1.33301 22 -4 28s-8.33398 9 -17.001 9c-10.667 0 -25.667 -6 -45 -18c15.333 24.667 32 42.834 50 54.501s37 17.5 57 17.5z
M351.001 501.998c-25.333 14.667 -52.165 29.002 -80.498 43.002s-50.833 21 -67.5 21s-40 -7 -70 -21s-59 -28.333 -87 -43c18.667 45.333 43.167 78.166 73.5 98.499s59.166 36.166 86.499 47.499c27.333 -10.667 55.666 -26 84.999 -46s49.333 -53.333 60 -100z" />
    <glyph glyph-name="udieresis" unicode="&#xfc;" horiz-adv-x="490" 
d="M94 434c22 0 35.668 -8.33496 41.001 -25.002s8.66602 -33.667 9.99902 -51v-188v-27c0 -20.667 2.5 -36.5 7.5 -47.5s16.5 -16.5 34.5 -16.5c16.667 0 37.334 12.833 62.001 38.5s37 48.5 37 68.5v172c0 20.667 8.83301 38.5 26.5 53.5s39.5 22.5 65.5 22.5v-356
c2 -2.66699 4.5 -5.33398 7.5 -8.00098s8.16699 -4 15.5 -4c9.33301 0 20.5 3.5 33.5 10.5s28.833 19.5 47.5 37.5c-14.667 -23.333 -36.167 -49.166 -64.5 -77.499s-55.166 -42.5 -80.499 -42.5c-18.667 0 -31.834 5.5 -39.501 16.5s-11.5 27.167 -11.5 48.5v44
c-31.333 -33.333 -60 -59.833 -86 -79.5s-53.333 -29.5 -82 -29.5c-24 0 -40.833 11.333 -50.5 34s-14.5 50.334 -14.5 83.001v232c0 12.667 -1.33301 22 -4 28s-8.33398 9 -17.001 9c-10.667 0 -25.667 -6 -45 -18c15.333 24.667 32 42.834 50 54.501s37 17.5 57 17.5z
M164.001 569.998c8.66699 0 15.834 -4.16504 21.501 -12.498s8.5 -17.5 8.5 -27.5c0 -12.667 -3.66699 -20.834 -11 -24.501s-17 -5.5 -29 -5.5c-8.66699 0 -15.834 4.16699 -21.501 12.5s-8.5 17.5 -8.5 27.5c0 7.33301 3.5 14.166 10.5 20.499s16.833 9.5 29.5 9.5z
M298.001 570c8.66699 0 15.834 -4.16699 21.501 -12.5s8.5 -17.5 8.5 -27.5c0 -12.667 -3.83301 -20.834 -11.5 -24.501s-17.167 -5.5 -28.5 -5.5c-6.66699 0 -13.334 3.33301 -20.001 10s-10 16.667 -10 30c0 8.66699 3.83301 15.834 11.5 21.501s17.167 8.5 28.5 8.5z" />
    <glyph glyph-name="ydieresis" unicode="&#xff;" horiz-adv-x="467" 
d="M378 450c10 0 26.001 -14.002 48.001 -42.002s33 -58 33 -90c0 -16 -24 -66.667 -72 -152s-84 -152.5 -108 -201.5s-36 -93.167 -36 -132.5c0 -32.667 9.5 -62 28.5 -88s44.167 -39 75.5 -39c26 0 46.167 6.83301 60.5 20.5s28.833 37.834 43.5 72.501
c0 -51.333 -15.167 -86.333 -45.5 -105s-65.5 -28 -105.5 -28c-52 0 -90 8.5 -114 25.5s-36 47.5 -36 91.5c0 35.333 10.5 69.833 31.5 103.5s50.5 75.5 88.5 125.5l-49.5 110c-21 46.667 -44.167 93 -69.5 139s-42.166 70 -50.499 72s-15.833 3 -22.5 3
c-15.333 0 -31.333 -3.5 -48 -10.5s-32.667 -15.167 -48 -24.5c19.333 30 43.166 59.833 71.499 89.5s53.833 44.5 76.5 44.5c30.667 0 68.167 -47.167 112.5 -141.5s74.833 -152.833 91.5 -175.5c10.667 19.333 21 40.833 31 64.5s15 47.834 15 72.501
c0 27.333 -6.83301 50.5 -20.5 69.5s-33.834 34.5 -60.501 46.5c10 18 21 35.833 33 53.5s27.333 26.5 46 26.5zM177.001 572.998c8.66699 0 15.834 -4.16602 21.501 -12.499s8.5 -17.5 8.5 -27.5c0 -12.667 -3.83301 -20.834 -11.5 -24.501s-17.167 -5.5 -28.5 -5.5
c-8.66699 0 -15.834 4.16699 -21.501 12.5s-8.5 17.5 -8.5 27.5c0 20 13.333 30 40 30zM310.001 572.999c9.33301 0 16.833 -4.16504 22.5 -12.498s8.5 -17.5 8.5 -27.5c0 -12.667 -3.83301 -20.834 -11.5 -24.501s-17.167 -5.5 -28.5 -5.5
c-6.66699 0 -13.334 3.33301 -20.001 10s-10 16.667 -10 30c0 9.33301 3.83301 16.666 11.5 21.999s16.834 8 27.501 8z" />
    <glyph glyph-name="dotlessi" unicode="&#x131;" horiz-adv-x="261" 
d="M122 433c20.667 0 35.168 -8 43.501 -24s12.5 -35 12.5 -57v-281c2.66699 -18.667 9.66699 -28 21 -28c8 0 17.333 4.33301 28 13l21 17c-16 -27.333 -32.167 -47.333 -48.5 -60s-34.833 -19 -55.5 -19c-17.333 0 -31.333 7.33301 -42 22s-16 32 -16 52v295
c0 12.667 -4.66699 19 -14 19c-12.667 0 -32.334 -11.333 -59.001 -34c3.33301 12.667 17 30 41 52s46.667 33 68 33z" />
    <glyph glyph-name="OE" unicode="&#x152;" horiz-adv-x="1152" 
d="M690 651l16.001 15.0029v-15h356c0 -26 11.167 -58.167 33.5 -96.5s36.833 -69.166 43.5 -92.499l-129 116c-47.333 28 -98.333 42 -153 42l-121 1c-21.333 0 -32 -11.667 -32 -35v-279c34 41.333 67 74.666 99 99.999s71.333 38 118 38c25.333 0 45.333 -7.33301 60 -22
s22 -34 22 -58c0 -22.667 -7.33301 -46.334 -22 -71.001c2 17.333 3 31.666 3 42.999c0 27.333 -4.83301 45.166 -14.5 53.499s-23.167 12.5 -40.5 12.5c-36 0 -82.5 -29.5 -139.5 -88.5s-85.5 -132.5 -85.5 -220.5c0 -54.667 9 -87.667 27 -99s56.333 -17 115 -17
c134.667 0 232 59.667 292 179c-3.33301 -30.667 -13.333 -64.667 -30 -102l-46 -102h-460c-32 -14.667 -63.833 -26.167 -95.5 -34.5s-67.834 -12.5 -108.501 -12.5c-120 0 -211.333 30.667 -274 92s-94 146 -94 254c0 52.667 9.5 109.5 28.5 170.5s56.5 116 112.5 165
s134.333 73.5 235 73.5l145 -6.5c52 -2.33301 98.333 -3.5 139 -3.5zM370.001 632.003c-66.667 0 -119.167 -20.999 -157.5 -62.999s-57.5 -112.667 -57.5 -212c0 -130.667 22.167 -233.334 66.5 -308.001s117.833 -112 220.5 -112c42 0 75.167 5.33301 99.5 16
s36.5 23 36.5 37v515c0 32 -21.5 61.167 -64.5 87.5s-90.833 39.5 -143.5 39.5z" />
    <glyph glyph-name="oe" unicode="&#x153;" horiz-adv-x="712" 
d="M354 70c-20.667 -23.333 -44.6689 -41.834 -72.002 -55.501s-55 -20.5 -83 -20.5c-52.667 0 -94.667 19.833 -126 59.5s-47 89.5 -47 149.5s22 113.333 66 160s94.667 70 152 70c32 0 60 -6.83301 84 -20.5s43.667 -33.167 59 -58.5c44 52 99.667 78 167 78
c26 0 47.5 -4.66699 64.5 -14s40.167 -28.666 69.5 -57.999l-243 -243c13.333 -22 29.833 -36.167 49.5 -42.5s41.834 -9.5 66.501 -9.5s47.834 5.66699 69.501 17s41.167 23.333 58.5 36c-52.667 -81.333 -119 -122 -199 -122c-33.333 0 -61 6.66699 -83 20
s-39.667 31.333 -53 54zM113.998 261.999c0 -54.667 7.16602 -105 21.499 -151s46.5 -69 96.5 -69c28.667 0 52 12 70 36s27 54.667 27 92c0 54 -9 103.5 -27 148.5s-48.667 67.5 -92 67.5c-29.333 0 -52.666 -11.667 -69.999 -35s-26 -53 -26 -89zM434.997 139.999l70 68
c35.333 38 53 66.667 53 86c0 17.333 -4 34 -12 50s-24.333 24 -49 24c-24 0 -42.667 -13.667 -56 -41s-20 -60.333 -20 -99c0 -30.667 4.66699 -60 14 -88z" />
    <glyph glyph-name="Ydieresis" unicode="&#x178;" horiz-adv-x="335" 
d="M541 536c48 0 86.167 -17.666 114.5 -52.999s42.5 -78 42.5 -128c-18.667 44.667 -37.834 78 -57.501 100s-55.167 33 -106.5 33c-82 0 -141.667 -34.5 -179 -103.5s-56 -130.5 -56 -184.5v-154c0 -18 7.33301 -36 22 -54s36.334 -31 65.001 -39h-234
c24.667 10 43.167 21.167 55.5 33.5s18.5 30.166 18.5 53.499v174c0 18 -10.667 47.5 -32 88.5s-53.5 81.5 -96.5 121.5s-96.167 69 -159.5 87h255c-12.667 -4 -24.167 -9.16699 -34.5 -15.5s-15.5 -14.5 -15.5 -24.5c20 -23.333 45.5 -55.333 76.5 -96
s49.167 -75.667 54.5 -105c13.333 64.667 42.833 125.167 88.5 181.5s105.167 84.5 178.5 84.5zM222 621.001c8.66699 0 15.834 -4.16602 21.501 -12.499s8.5 -17.5 8.5 -27.5c0 -12.667 -3.83301 -20.834 -11.5 -24.501s-17.167 -5.5 -28.5 -5.5
c-8.66699 0 -15.834 4.16699 -21.501 12.5s-8.5 17.5 -8.5 27.5c0 20 13.333 30 40 30zM355 621.002c9.33301 0 16.8311 -3.99805 22.498 -11.998s8.5 -17.333 8.5 -28c0 -12.667 -3.83301 -20.834 -11.5 -24.501s-17.167 -5.5 -28.5 -5.5
c-9.33301 0 -16.666 4.33301 -21.999 13s-8 17.667 -8 27s3.83301 16.666 11.5 21.999s16.834 8 27.501 8z" />
    <glyph glyph-name="hungarumlaut" unicode="&#x2ba;" horiz-adv-x="359" 
d="M70 661c3.33301 24.667 8 44.167 14 58.5s17.333 21.5 34 21.5c11.333 0 20.5 -4.83301 27.5 -14.5s10.5 -22.167 10.5 -37.5c0 -9.33301 -1.5 -18 -4.5 -26s-10.833 -20.667 -23.5 -38l-53 -71l-21 14zM206 661c3.33301 24.667 8 44.167 14 58.5s17.333 21.5 34 21.5
c11.333 0 20.5 -4.83301 27.5 -14.5s10.5 -22.167 10.5 -37.5c0 -9.33301 -1.5 -18 -4.5 -26s-10.833 -20.667 -23.5 -38l-53 -71l-21 14z" />
    <glyph glyph-name="caron" unicode="&#x2c7;" horiz-adv-x="408" 
d="M194 544c-28 18 -57.667 40.167 -89 66.5s-56.333 62.5 -75 108.5c29.333 -16.667 60.166 -33.167 92.499 -49.5s57.166 -24.5 74.499 -24.5c16.667 0 39.334 8.33301 68.001 25s56.334 34 83.001 52c-10.667 -46.667 -31.5 -83.5 -62.5 -110.5s-61.5 -49.5 -91.5 -67.5z
" />
    <glyph glyph-name="macron" unicode="&#x2c9;" horiz-adv-x="375" 
d="M306 577h-252v86h252v-86z" />
    <glyph glyph-name="breve" unicode="&#x2d8;" horiz-adv-x="408" 
d="M206 554c-36.667 0 -66.8311 14.002 -90.498 42.002s-47.834 72.333 -72.501 133c22 -16.667 47.167 -33.334 75.5 -50.001s57.5 -25 87.5 -25c30.667 0 58.667 8.16699 84 24.5s48 33.166 68 50.499c-14.667 -57.333 -34.334 -100.833 -59.001 -130.5
s-55.667 -44.5 -93 -44.5z" />
    <glyph glyph-name="dotaccent" unicode="&#x2d9;" horiz-adv-x="326" 
d="M249 634c0 -25.333 -8.66699 -46.333 -26 -63s-38.333 -25 -63 -25c-22.667 0 -42 8.33301 -58 25s-24 36.334 -24 59.001c0 25.333 8.33301 46.666 25 63.999s37.667 26 63 26c23.333 0 43 -8.33301 59 -25s24 -37 24 -61z" />
    <glyph glyph-name="ring" unicode="&#x2da;" horiz-adv-x="347" 
d="M78 652c0 26 9.00098 48 27.001 66s40 27 66 27c25.333 0 47.166 -8.83301 65.499 -26.5s27.5 -39.5 27.5 -65.5s-9.33301 -47.667 -28 -65s-41 -26 -67 -26c-23.333 0 -44.333 9 -63 27s-28 39 -28 63zM220.001 654c0 13.333 -5 24.333 -15 33s-21.667 13 -35 13
c-12.667 0 -23.5 -4.5 -32.5 -13.5s-13.5 -19.833 -13.5 -32.5c0 -13.333 4.5 -24.166 13.5 -32.499s20.5 -12.5 34.5 -12.5s25.5 4.16699 34.5 12.5s13.5 19.166 13.5 32.499z" />
    <glyph glyph-name="ogonek" unicode="&#x2db;" horiz-adv-x="261" 
d="M144 0c-17.333 -17.333 -26 -37.335 -26 -60.002c0 -16 2.83301 -27.833 8.5 -35.5s15.5 -11.5 29.5 -11.5c11.333 0 25 2.33301 41 7c-7.33301 -19.333 -18.333 -34.666 -33 -45.999s-30.667 -17 -48 -17c-18 0 -32.833 6.83301 -44.5 20.5s-17.5 31.834 -17.5 54.501
c0 34 11.333 63.333 34 88h56z" />
    <glyph glyph-name="circumflex" unicode="&#x302;" horiz-adv-x="408" 
d="M342 502c-25.333 14.667 -52.168 29.002 -80.501 43.002s-50.833 21 -67.5 21s-40 -7 -70 -21s-59 -28.333 -87 -43c18.667 45.333 43.167 78.166 73.5 98.499s59.166 36.166 86.499 47.499c26.667 -10.667 54.834 -26 84.501 -46s49.834 -53.333 60.501 -100z" />
    <glyph glyph-name="tilde" unicode="&#x303;" horiz-adv-x="456" 
d="M171 600c16.667 0 38.333 -7.33203 65 -21.999s48.667 -22 66 -22c26 0 44.667 5.16699 56 15.5s23.333 23.166 36 38.499c-6 -31.333 -18.5 -57.833 -37.5 -79.5s-42.5 -32.5 -70.5 -32.5c-14 0 -35.667 7.33301 -65 22s-51.666 22 -66.999 22c-22 0 -38.333 -4 -49 -12
s-25 -22 -43 -42c5.33301 30.667 18.166 57 38.499 79s43.833 33 70.5 33z" />
    <glyph glyph-name="summation" unicode="&#x3a3;" horiz-adv-x="713" 
d="M618 643l14.999 -128.999h-44c-21.333 70 -49.666 118 -84.999 144s-91.666 39 -168.999 39h-132l315 -431l-344 -394h187c81.333 0 138.833 10.5 172.5 31.5s61.167 59.833 82.5 116.5h45l-30 -130l-2 -7c-15.333 -66 -52.333 -99 -111 -99h-482l389 446l-375 514h460
c43.333 0 70.666 -5 81.999 -15c11.333 -8.66699 20 -37.334 26 -86.001z" />
    <glyph glyph-name="Omega" unicode="&#x3a9;" horiz-adv-x="768" 
d="M593 90c32 0 54.665 6.33203 67.998 18.999s20 35 20 67h23v-176h-272v180c51.333 10 92.166 35.5 122.499 76.5s45.5 91.5 45.5 151.5c0 70.667 -19.667 126.834 -59 168.501s-91.666 62.5 -156.999 62.5s-117.666 -20.833 -156.999 -62.5s-59 -97.834 -59 -168.501
c0 -60 14.833 -110.333 44.5 -151s70.834 -66.334 123.501 -77.001v-180h-272v176h23c0 -32 6.33301 -54.333 19 -67s35.667 -19 69 -19h123v59c-78.667 14 -139.667 43.667 -183 89s-65 102 -65 170c0 80.667 30.833 145.334 92.5 194.001s142.167 73 241.5 73
s179.833 -24.5 241.5 -73.5s92.5 -113.5 92.5 -193.5c0 -66.667 -21.333 -122.667 -64 -168s-104 -75.666 -184 -90.999v-59h123z" />
    <glyph glyph-name="pi" unicode="&#x3c0;" horiz-adv-x="549" 
d="M404 373l-1.00391 -24.002l-3 -150v-40c0 -56 2.83301 -91 8.5 -105s15.834 -21 30.501 -21c18.667 0 32.334 9.66699 41.001 29c11.333 20.667 17 50.334 17 89.001h25v-5c0 -53.333 -8.66699 -92.666 -26 -117.999s-44 -38 -80 -38c-37.333 0 -63.833 13.333 -79.5 40
s-23.5 81.334 -23.5 164.001l1 78l3 104l-50 1l-77 2c0 -156 -7.66699 -259.833 -23 -311.5s-42 -77.5 -80 -77.5c-23.333 0 -40.833 9.66699 -52.5 29s-17.5 48 -17.5 86v19h24c0 -18 3.16699 -31.167 9.5 -39.5s15.5 -12.5 27.5 -12.5c28 0 46.167 15.667 54.5 47
s14.333 68.166 18 110.499s5.5 92.166 5.5 149.499h-22c-25.333 0 -45.166 -4.5 -59.499 -13.5s-23.5 -22.167 -27.5 -39.5h-23c0 22.667 3.33301 41.834 10 57.501s18.834 30.5 36.501 44.5s55.167 21 112.5 21l102 -3l152 -3c22.667 0 39.167 2.33301 49.5 7
s15.833 11.667 16.5 21l23 1c0 -35.333 -7.83301 -60.833 -23.5 -76.5s-40.5 -23.5 -74.5 -23.5h-14z" />
    <glyph glyph-name="endash" unicode="&#x2013;" horiz-adv-x="403" 
d="M41 177c22.667 50.667 45.667 82.833 69 96.5s53 20.5 89 20.5c8 0 15.5 -0.166992 22.5 -0.5s13.5 -0.5 19.5 -0.5c22.667 0 42.5 1.66699 59.5 5s36.5 10.333 58.5 21c-22.667 -52 -46.334 -84.333 -71.001 -97s-58.667 -19 -102 -19
c-34.667 0 -61.167 -1.16699 -79.5 -3.5s-40.166 -9.83301 -65.499 -22.5z" />
    <glyph glyph-name="emdash" unicode="&#x2014;" horiz-adv-x="694" 
d="M416 201l-246 -0.000976562c-22.667 0 -40.5 -1.83301 -53.5 -5.5s-28.167 -10.167 -45.5 -19.5c8.66699 26.667 31.167 52.834 67.5 78.501s72.5 38.5 108.5 38.5h278c22 0 40 2.16699 54 6.5s30.333 10.5 49 18.5c-20 -42 -51.167 -72 -93.5 -90
s-81.833 -27 -118.5 -27z" />
    <glyph glyph-name="quoteleft" unicode="&#x2018;" horiz-adv-x="141" 
d="M54 402c-18 16 -31.334 32.835 -40.001 50.502s-13 34.834 -13 51.501c0 23.333 7.16699 45.166 21.5 65.499s34.5 37.833 60.5 52.5c-12.667 -18 -19 -36 -19 -54c0 -20.667 5.33301 -36.667 16 -48s27.334 -25.333 50.001 -42
c-5.33301 -12.667 -13 -26.334 -23 -41.001s-27.667 -26.334 -53 -35.001z" />
    <glyph glyph-name="quoteright" unicode="&#x2019;" horiz-adv-x="125" 
d="M63 663c18 -16 31.333 -32.8291 40 -50.4961s13 -34.834 13 -51.501c0 -22.667 -7.33301 -44.334 -22 -65.001s-34.667 -38.334 -60 -53.001c12.667 18 19 36 19 54c0 20 -4.33301 34.667 -13 44s-26 25 -52 47c5.33301 13.333 13 27.166 23 41.499s27.333 25.5 52 33.5z
" />
    <glyph glyph-name="quotedblleft" unicode="&#x201c;" horiz-adv-x="298" 
d="M219 402c-18 16 -31.333 32.834 -40 50.501s-13 34.834 -13 51.501c0 23.333 7.16699 45.166 21.5 65.499s34.5 37.833 60.5 52.5c-12.667 -18 -19 -36 -19 -54c0 -20 5 -35.333 15 -46s26.667 -25.334 50 -44.001c-6 -18 -14.5 -33.333 -25.5 -46
s-27.5 -22.667 -49.5 -30zM54 402.001c-18 16 -31.334 32.835 -40.001 50.502s-13 34.834 -13 51.501c0 23.333 7.16699 45.166 21.5 65.499s34.5 37.833 60.5 52.5c-12.667 -18 -19 -36 -19 -54c0 -20.667 5.33301 -36.667 16 -48s27.334 -25.333 50.001 -42
c-5.33301 -12.667 -13 -26.334 -23 -41.001s-27.667 -26.334 -53 -35.001z" />
    <glyph glyph-name="quotedblright" unicode="&#x201d;" horiz-adv-x="298" 
d="M246 629c18 -16 31.333 -32.8301 40 -50.4971s13 -34.834 13 -51.501c0 -23.333 -7.16699 -45 -21.5 -65s-34.5 -37.667 -60.5 -53c12.667 18 19 36 19 54c0 20.667 -5 36.167 -15 46.5s-27 25.166 -51 44.499c5.33301 13.333 13 27.166 23 41.499s27.667 25.5 53 33.5z
M80 629.003c18 -16 31.333 -32.8311 40 -50.498s13 -34.834 13 -51.501c0 -23.333 -7.16699 -45 -21.5 -65s-34.5 -37.667 -60.5 -53c12.667 18 19 36 19 54c0 20 -4.33301 34.667 -13 44s-26 25 -52 47c5.33301 13.333 13 27.166 23 41.499s27.333 25.5 52 33.5z" />
    <glyph glyph-name="dagger" unicode="&#x2020;" horiz-adv-x="404" 
d="M215 -188l-41.998 0.00195312c0 120 -1.16699 212.5 -3.5 277.5s-13.5 126.167 -33.5 183.5c10.667 15.333 18.5 28.666 23.5 39.999s9.5 25 13.5 41l-59.5 -16c-20.333 -5.33301 -33.833 -8 -40.5 -8c-14 0 -24.833 5 -32.5 15s-11.5 22.333 -11.5 37
c0 14 4 26.333 12 37s19.333 16 34 16c6 0 19 -2.83301 39 -8.5l59 -17.5l-20 127c-6.66699 42.667 -10 66.667 -10 72c0 17.333 4.66699 31.333 14 42s20.666 16 33.999 16c16 0 29 -5.33301 39 -16s15 -24.667 15 -42c0 -5.33301 -3.33301 -29.333 -10 -72l-20 -127
c18.667 6 38 11.833 58 17.5s33.333 8.5 40 8.5c14.667 0 26.167 -5.16699 34.5 -15.5s12.5 -22.833 12.5 -37.5s-3.83301 -27 -11.5 -37s-18.834 -15 -33.501 -15c-6 0 -19.167 2.66699 -39.5 8l-60.5 16c3.33301 -14 7.33301 -26.333 12 -37s13 -25.334 25 -44.001
c-16 -46 -26.167 -99.667 -30.5 -161s-6.5 -161.333 -6.5 -300z" />
    <glyph glyph-name="daggerdbl" unicode="&#x2021;" horiz-adv-x="349" 
d="M125 577c0 34.667 15.999 52 47.999 52c16.667 0 29.667 -4.16699 39 -12.5s14 -21.5 14 -39.5c0 -4 -3 -25.333 -9 -64s-12.333 -77.334 -19 -116.001l53 16c18 5.33301 30 8 36 8c13.333 0 23.5 -4.66699 30.5 -14s10.5 -20.666 10.5 -33.999
c0 -12.667 -3.66699 -23.667 -11 -33s-17.333 -14 -30 -14c-6 0 -18.333 2.33301 -37 7s-37.334 10 -56.001 16c3.33301 -18 7.33301 -33.833 12 -47.5s12.667 -31.834 24 -54.501c-9.33301 -18.667 -16.833 -35.667 -22.5 -51s-10.167 -32 -13.5 -50
c18 5.33301 36.5 10.333 55.5 15s31.5 7 37.5 7c13.333 0 23.5 -4.66699 30.5 -14s10.5 -20.666 10.5 -33.999c0 -12.667 -3.66699 -23.667 -11 -33s-17.333 -14 -30 -14c-5.33301 0 -17 2.66699 -35 8l-54 16c6.66699 -39.333 13 -78.833 19 -118.5s9 -61.5 9 -65.5
c0 -16.667 -4.66699 -29.667 -14 -39s-21.666 -14 -36.999 -14c-33.333 0 -50 17.667 -50 53c0 5.33301 2.83301 27.333 8.5 66s11.834 78 18.501 118l-54 -16c-18.667 -5.33301 -30.667 -8 -36 -8c-12.667 0 -22.667 4.66699 -30 14s-11 20.666 -11 33.999
s3.33301 24.5 10 33.5s16.667 13.5 30 13.5c6 0 18.5 -2.33301 37.5 -7s37.5 -9.66699 55.5 -15c-2 16.667 -5.83301 32.834 -11.5 48.501s-13.834 33.167 -24.501 52.5c8.66699 16.667 16.334 34 23.001 52s11 34.667 13 50c-18 -5.33301 -36.833 -10.5 -56.5 -15.5
s-31.834 -7.5 -36.501 -7.5c-12.667 0 -22.5 4.83301 -29.5 14.5s-10.5 20.834 -10.5 33.501s3.66699 23.667 11 33s17.333 14 30 14c4.66699 0 16.334 -2.66699 35.001 -8l55 -16l-18 117.5c-6 40.333 -9 61.166 -9 62.499z" />
    <glyph glyph-name="bullet" unicode="&#x2022;" horiz-adv-x="408" 
d="M205 428c47.333 0 85.5 -16.1689 114.5 -48.502s43.5 -71.833 43.5 -118.5c0 -47.333 -15.667 -85.666 -47 -114.999s-71.333 -44 -120 -44c-34.667 0 -69.834 12.667 -105.501 38s-53.5 68.333 -53.5 129c0 46.667 15.833 84.834 47.5 114.501s71.834 44.5 120.501 44.5
z" />
    <glyph glyph-name="ellipsis" unicode="&#x2026;" horiz-adv-x="762" 
d="M138 95c4 0 15.334 -8.66895 34.001 -26.002s37.667 -33.666 57 -48.999l-83 -84c-1.33301 1.33301 -15 12.333 -41 33s-43 33.334 -51 38.001c4 8 15.667 24.667 35 50s35.666 38 48.999 38zM371.001 94.998c4.66699 0 15.667 -8.5 33 -25.5s36.666 -33.5 57.999 -49.5
l-83 -84l-58 46c-16 12.667 -27.333 21 -34 25c6.66699 11.333 18.834 28.833 36.501 52.5s33.5 35.5 47.5 35.5zM605.001 94.998c4 0 15.1689 -8.5 33.502 -25.5s37.5 -33.5 57.5 -49.5l-83 -84c-11.333 7.33301 -25.833 19 -43.5 35s-33.834 28 -48.501 36
c4 8 15.667 24.667 35 50s35.666 38 48.999 38z" />
    <glyph glyph-name="guilsinglleft" unicode="&#x2039;" horiz-adv-x="180" 
d="M109 288l41 -156l-41 -31l-82 187l82 169l41 -28z" />
    <glyph glyph-name="guilsinglright" unicode="&#x203a;" horiz-adv-x="180" 
d="M69 457l81 -169l-81 -187l-42 31l42 156l-42 141z" />
    <glyph glyph-name="trademark" unicode="&#x2122;" horiz-adv-x="704" 
d="M648 631h-13.0029c-10.667 0 -16.5 -2.33301 -17.5 -7s-1.5 -12 -1.5 -22v-207c0 -18 1.33301 -28.833 4 -32.5s12 -6.16699 28 -7.5v-25h-119v25c14.667 0 23.834 2.16699 27.501 6.5s5.5 15.166 5.5 32.499v210l-90 -274h-8l-94 274v-224
c0 -10.667 2.66699 -17.5 8 -20.5s13 -4.5 23 -4.5v-25h-88v25h9c2.66699 0 6.16699 0.166992 10.5 0.5s7.33301 2.83301 9 7.5s2.83398 10.834 3.50098 18.501s1 13.167 1 16.5v204c0 13.333 -0.666992 21.5 -2 24.5s-6.66602 4.5 -15.999 4.5h-10v23h95l71 -206l68 206h96
v-23zM292.997 569l-22.998 0.000976562c0 21.333 -3.5 35.833 -10.5 43.5s-19.5 11.5 -37.5 11.5h-27c0 -73.333 0.166992 -135 0.5 -185s2.16602 -76.667 5.49902 -80c4.66699 -2.66699 14 -4 28 -4h6v-25h-135v25h6c13.333 0 22.666 1.33301 27.999 4
c3.33301 2.66699 5.33301 17.667 6 45s1 100.666 1 219.999h-25c-17.333 0 -29.5 -3.83301 -36.5 -11.5s-10.5 -22.167 -10.5 -43.5h-23v85h247v-85z" />
    <glyph glyph-name="partialdiff" unicode="&#x2202;" horiz-adv-x="494" 
d="M256 349c-34.667 0 -63.332 -20 -85.999 -60s-34 -93.667 -34 -161c0 -38 7.16699 -67.333 21.5 -88s35.166 -31 62.499 -31c35.333 0 64.333 20.667 87 62s34 92.333 34 153c0 38.667 -7.16699 69.167 -21.5 91.5s-35.5 33.5 -63.5 33.5zM358.002 287
c2.66699 9.33301 4.83203 18.6689 6.49902 28.002s2.5 19.666 2.5 30.999l3 89c0 56.667 -5.16699 98.667 -15.5 126s-26.166 41 -47.499 41c-12 0 -28.667 -11.667 -50 -35s-40 -35 -56 -35c-10.667 0 -19.167 2.5 -25.5 7.5s-10.166 13.167 -11.499 24.5
c0 19.333 10.167 36 30.5 50s44.166 21 71.499 21c51.333 0 88.5 -18 111.5 -54s38.5 -70.333 46.5 -103s12 -69.667 12 -111c0 -108.667 -21.5 -199.167 -64.5 -271.5s-95.5 -108.5 -157.5 -108.5c-45.333 0 -82 17 -110 51s-42 79.667 -42 137
c0 54.667 17.667 102.5 53 143.5s77 61.5 125 61.5c29.333 0 53.5 -7.33301 72.5 -22s34.167 -38.334 45.5 -71.001z" />
    <glyph glyph-name="Delta" unicode="&#x2206;" horiz-adv-x="278" 
d="M155 434c20.667 0 34.333 -9 41 -27s10 -47 10 -87v-303c0 -96 -26.333 -176.167 -79 -240.5s-117 -100.833 -193 -109.5c57.333 25.333 101.666 59.833 132.999 103.5s47 93.5 47 149.5v443c0 16 -6.33301 24 -19 24c-13.333 0 -31.666 -9 -54.999 -27
c12 21.333 29.167 39 51.5 53s43.5 21 63.5 21zM144.999 651c16 0 29.666 -6 40.999 -18s17 -28.333 17 -49c0 -23.333 -9.66699 -41.666 -29 -54.999s-37.666 -20 -54.999 -20c-13.333 0 -23.5 7.66699 -30.5 23s-10.5 32.666 -10.5 51.999c0 25.333 6 42.833 18 52.5
s28.333 14.5 49 14.5z" />
    <glyph glyph-name="product" unicode="&#x220f;" horiz-adv-x="823" 
d="M118 -176v880h-88v40h767v-40h-88v-880h88v-40h-264v40h84v880h-407v-880h84v-40h-264v40h88z" />
    <glyph glyph-name="fraction" unicode="&#x2215;" horiz-adv-x="98" 
d="M-87 0h-68l337 681h68z" />
    <glyph glyph-name="radical" unicode="&#x221a;" horiz-adv-x="549" 
d="M594 764h-57l-290 -784h-32l-156 431l-61 -22l-12 39l138 48l125 -346l252 681h93v-47z" />
    <glyph glyph-name="infinity" unicode="&#x221e;" horiz-adv-x="713" 
d="M383 271c15.333 -30 34.668 -53.332 58.001 -69.999c23.333 -15.333 49 -23 77 -23c34.667 0 62.834 11.667 84.501 35s32.5 53.333 32.5 90c0 37.333 -10 67.166 -30 89.499s-46.667 33.5 -80 33.5c-24.667 0 -48.334 -12 -71.001 -36s-46.334 -63.667 -71.001 -119z
M330.002 327.001c-17.333 30.667 -37 53.833 -59 69.5s-47.333 23.5 -76 23.5c-34 0 -62 -11.667 -84 -35s-33 -53.333 -33 -90c0 -36 9.83301 -65.5 29.5 -88.5s45.167 -34.5 76.5 -34.5c26.667 0 50.5 10.5 71.5 31.5s45.833 62.167 74.5 123.5zM366.002 238
c-22 -41.333 -45.835 -72.333 -71.502 -93s-54.167 -31 -85.5 -31c-44 0 -81 17.5 -111 52.5s-45 78.833 -45 131.5c0 55.333 13.667 100.166 41 134.499s62.333 51.5 105 51.5c31.333 0 58.833 -9.83301 82.5 -29.5s45.5 -51.167 65.5 -94.5
c20.667 41.333 43.834 72.333 69.501 93s54.834 31 87.501 31c42 0 78.333 -17.667 109 -53s46 -79 46 -131c0 -55.333 -13.5 -100.166 -40.5 -134.499s-61.833 -51.5 -104.5 -51.5c-30.667 0 -58.667 10 -84 30c-24 20.667 -45.333 52 -64 94z" />
    <glyph glyph-name="integral" unicode="&#x222b;" horiz-adv-x="274" 
d="M283 757c24 0 43.499 -6.16602 58.499 -18.499s22.5 -28.5 22.5 -48.5c0 -13.333 -4.33301 -24.666 -13 -33.999s-20.667 -14 -36 -14c-19.333 0 -34 10.667 -44 32s-19.667 32 -29 32c-38 0 -57 -103.333 -57 -310l-3 -98c0 -42 -1.5 -82 -4.5 -120
s-7.66699 -80.667 -14 -128s-16.666 -87.333 -30.999 -120s-34.333 -59.334 -60 -80.001s-52.834 -31 -81.501 -31c-23.333 0 -42.666 6.16699 -57.999 18.5s-23 28.5 -23 48.5c0 14.667 4.16699 26.167 12.5 34.5s20.5 12.5 36.5 12.5c19.333 0 34 -10.333 44 -31
s20 -31.334 30 -32.001c38 0 57 108 57 324l2 84c0 40 1.33301 78.667 4 116s7.16699 79.833 13.5 127.5s16.833 88.5 31.5 122.5s34.5 61.333 59.5 82s52.5 31 82.5 31z" />
    <glyph glyph-name="approxequal" unicode="&#x2248;" horiz-adv-x="490" 
d="M104 60l-66 66l136 136l-136 136l66 66l136 -136l136 136l66 -66l-136 -136l136 -136l-66 -66l-136 136z" />
    <glyph glyph-name="notequal" unicode="&#x2260;" horiz-adv-x="549" 
d="M413 336h91v-64h-149l-73 -72h222v-64h-281l-118 -118l-43 44l74 74h-91v64h150l73 72h-223v64h281l118 118l44 -44z" />
    <glyph glyph-name="lessequal" unicode="&#x2264;" horiz-adv-x="616" 
d="M328 430c-16.667 -35.333 -34.6631 -66.001 -53.9961 -92.001c-6.66699 8.66699 -17.334 16 -32.001 22s-33.334 9 -56.001 9c-24.667 0 -44.834 -13.5 -60.501 -40.5s-23.5 -58.5 -23.5 -94.5c0 -64 14.833 -109.167 44.5 -135.5s63.5 -39.5 101.5 -39.5
c16 0 33.333 4.5 52 13.5s38 20.167 58 33.5c-26.667 -40.667 -53.167 -69.167 -79.5 -85.5s-62.833 -24.5 -109.5 -24.5c-64.667 0 -106 17.333 -124 52s-27 77.334 -27 128.001c0 76.667 22.333 138.334 67 185.001s102 70 172 70c-22 6.66699 -42.167 19.167 -60.5 37.5
s-27.5 40.833 -27.5 67.5c0 42.667 16.167 72.5 48.5 89.5s69.833 25.5 112.5 25.5c48 0 86.667 -11.833 116 -35.5s44 -64.167 44 -121.5v-65h57c22.667 1.33301 42.334 6.66602 59.001 15.999c-10.667 -24.667 -22.834 -40.667 -36.501 -48s-40.167 -11 -79.5 -11v-303
c0 -14.667 5.66699 -22 17 -22c9.33301 0 21.166 4.5 35.499 13.5s31.5 22.833 51.5 41.5c-17.333 -34.667 -39 -63.667 -65 -87s-52 -35 -78 -35c-20 0 -33.833 8.16699 -41.5 24.5s-11.5 45.5 -11.5 87.5v280h-58c0.666992 8 14.667 20.167 42 36.5s41 45.166 41 86.499
c0 38 -8 66.833 -24 86.5s-41.667 29.5 -77 29.5c-39.333 0 -70.5 -6.66699 -93.5 -20s-34.5 -36.666 -34.5 -69.999c0 -29.333 13.333 -52 40 -68s58 -28.333 94 -37z" />
    <glyph glyph-name="greaterequal" unicode="&#x2265;" horiz-adv-x="600" 
d="M305 431c-8.66699 -13.333 -15.499 -25.998 -20.499 -37.998s-12.167 -32.667 -21.5 -62c-22 23.333 -41 39 -57 47s-37.667 12 -65 12s-46.166 -3.5 -56.499 -10.5s-15.5 -17.5 -15.5 -31.5c0 -20 26.667 -40.667 80 -62s93.666 -41 120.999 -59s41 -49.667 41 -95
c0 -54 -16.667 -89.833 -50 -107.5s-75 -26.5 -125 -26.5c-51.333 0 -83.833 9.16699 -97.5 27.5s-20.5 63.5 -20.5 135.5c18.667 -49.333 42.5 -84.5 71.5 -105.5s59.833 -31.5 92.5 -31.5c47.333 0 71 24.667 71 74c0 28 -37.833 58.833 -113.5 92.5
s-113.5 77.834 -113.5 132.501c0 44.667 18.5 73.834 55.5 87.501s88.5 20.5 154.5 20.5c-16.667 6.66699 -32 19.167 -46 37.5s-21 40.833 -21 67.5c0 37.333 14.167 65.833 42.5 85.5s62.5 29.5 102.5 29.5c48 0 86.667 -11.833 116 -35.5s44 -64.167 44 -121.5v-65h57
c22.667 1.33301 42.334 6.66602 59.001 15.999c-10.667 -24.667 -22.834 -40.667 -36.501 -48s-40.167 -11 -79.5 -11v-303c0 -14.667 5.66699 -22 17 -22c9.33301 0 21.166 4.5 35.499 13.5s31.5 22.833 51.5 41.5c-17.333 -34.667 -39 -63.667 -65 -87s-52 -35 -78 -35
c-20 0 -33.833 8.16699 -41.5 24.5s-11.5 45.5 -11.5 87.5v280h-58c0.666992 8 14.667 20.167 42 36.5s41 45.166 41 86.499c0 37.333 -8.5 66 -25.5 86s-43.167 30 -78.5 30c-38 0 -65.833 -7.5 -83.5 -22.5s-26.5 -37.833 -26.5 -68.5s12.167 -54.334 36.5 -71.001
s49.5 -27.334 75.5 -32.001z" />
    <glyph glyph-name="lozenge" unicode="&#x25ca;" horiz-adv-x="364" 
d="M185 650l165 -325l-165 -334l-165 334zM185 566l-120 -241l120 -244l120 244z" />
    <glyph glyph-name="apple" unicode="&#xf000;" horiz-adv-x="596" 
d="M432 650c0 -45.333 -10.833 -81.167 -32.5 -107.5s-52.834 -41.833 -93.501 -46.5c0 36 9.83301 68.333 29.5 97s51.834 47.667 96.501 57zM201 495.999c16 0 35.333 -4.50195 58 -13.502s39.667 -13.5 51 -13.5c3.33301 0 17.5 4.5 42.5 13.5s45.833 13.5 62.5 13.5
c28.667 0 53 -4.66699 73 -14s41 -25.333 63 -48l-41 -38c-22.667 -27.333 -34 -58.666 -34 -93.999c0 -24 6 -47.667 18 -71s37 -45.666 75 -66.999c-28 -56 -52.667 -98.667 -74 -128s-51.333 -44 -90 -44c-10.667 0 -27 4.5 -49 13.5s-38.667 13.5 -50 13.5
c-8 0 -23.5 -4.5 -46.5 -13.5s-40.5 -13.5 -52.5 -13.5c-44.667 0 -87 34.333 -127 103s-60 137.667 -60 207c0 46.667 13.667 90.667 41 132s74 62 140 62z" />
    <glyph glyph-name="fi" unicode="&#xf001;" horiz-adv-x="515" 
d="M249 667c50 0 93.333 -10.8311 130 -32.498s55 -43.167 55 -64.5c0 -6 -6.16699 -15.5 -18.5 -28.5s-27.5 -26.167 -45.5 -39.5c-25.333 42 -48.833 69.333 -70.5 82s-49.834 19 -84.501 19c-21.333 0 -37.5 -3.33301 -48.5 -10s-16.5 -18.667 -16.5 -36v-128h229
c16 0 29.167 -8.5 39.5 -25.5s15.5 -46.833 15.5 -89.5v-246c0 -13.333 4.66699 -20 14 -20c12 0 28.667 11 50 33c-3.33301 -19.333 -15.333 -38.833 -36 -58.5s-41.334 -29.5 -62.001 -29.5c-38.667 0 -58 25.333 -58 76v300h-192v-426c0 -96.667 -18.333 -167 -55 -211
s-78.667 -66 -126 -66h-107c7.33301 25.333 18 42.166 32 50.499s31.667 12.5 53 12.5c5.33301 0 13.333 -0.333008 24 -1s18.334 -1 23.001 -1c20.667 0 36.334 5 47.001 15s16 30.667 16 62v566h-70l53 59h18v49c0 59.333 18.333 105.666 55 138.999s82 50 136 50z" />
    <glyph glyph-name="fl" unicode="&#xf002;" horiz-adv-x="550" 
d="M159 547l-0.000976562 -117.997c76 0 117.333 7 124 21c-13.333 -30.667 -29.166 -51.667 -47.499 -63s-43.833 -17 -76.5 -17v-388c0 -102 -18.5 -180.167 -55.5 -234.5s-78.833 -81.5 -125.5 -81.5h-106c12 44.667 47.333 67.667 106 69s88 29.666 88 84.999v550h-69
l53 59h17v49c0 53.333 17.833 98.166 53.5 134.499s80.167 54.5 133.5 54.5h310c-12 -20.667 -29.833 -36.334 -53.5 -47.001s-50.167 -16 -79.5 -16v-504c0 -26 7.33301 -39 22 -39c16 0 42.333 16.333 79 49c-10 -29.333 -29.333 -56.166 -58 -80.499s-54 -36.5 -76 -36.5
c-19.333 0 -34 9.16699 -44 27.5s-15 40.5 -15 66.5v364v16c0 22 1.66699 45.333 5 70s10 47 20 67h-157c-16 0 -28 -5.83301 -36 -17.5s-12 -24.834 -12 -39.501z" />
    <glyph glyph-name="glyph1" horiz-adv-x="0" 
 />
    <glyph glyph-name="glyph2" horiz-adv-x="250" 
 />
  </font>
</defs>
</svg>
